<svg width="379" height="41" viewBox="0 0 379 41" fill="none" xmlns="http://www.w3.org/2000/svg">
<path d="M23.3789 24.8828C23.3789 25.0625 23.2188 25.4375 22.8984 26.0078C22.5781 26.5781 22.418 27.0508 22.418 27.4258C22.4414 27.6445 22.543 28.0469 22.7227 28.6328C22.9023 29.2188 22.9922 29.6641 22.9922 29.9688C22.9922 30.3203 22.9141 30.5742 22.7578 30.7305C22.5938 30.9336 22.4258 31.1406 22.2539 31.3516C22.082 31.5547 21.9023 31.7891 21.7148 32.0547C21.5352 32.3203 21.3867 32.582 21.2695 32.8398C21.1602 33.0977 21.0938 33.3555 21.0703 33.6133C21.0312 33.9102 20.8594 34.2148 20.5547 34.5273C20.25 34.8398 19.9492 35.1602 19.6523 35.4883C19.3633 35.8086 19.1797 36.1914 19.1016 36.6367C19.0312 37.1055 18.8555 37.4336 18.5742 37.6211C18.3008 37.8008 17.9062 37.9688 17.3906 38.125C16.8828 38.2734 16.5273 38.4336 16.3242 38.6055C16.0977 38.8164 15.7344 38.957 15.2344 39.0273C14.7422 39.0898 14.1836 39.1641 13.5586 39.25C12.9414 39.3359 12.4531 39.4727 12.0938 39.6602C11.6328 39.918 11.2344 40.0469 10.8984 40.0469C10.6484 40.0469 10.0234 39.8398 9.02344 39.4258C8.88281 39.3945 8.55078 39.375 8.02734 39.3672C7.51172 39.3594 7.1875 39.3477 7.05469 39.332C7.04688 39.3398 7.03125 39.3516 7.00781 39.3672C6.99219 39.375 6.97656 39.3789 6.96094 39.3789C6.53125 39.5664 6.14844 39.6602 5.8125 39.6602C5.61719 39.6602 5.10547 39.5664 4.27734 39.3789C3.84766 39.3789 3.38281 39.4453 2.88281 39.5781C2.38281 39.7109 2.03125 39.7891 1.82812 39.8125C1.82812 39.1094 1.53906 37.5703 0.960938 35.1953C0.960938 34.4531 1.11719 33.5039 1.42969 32.3477C1.74219 31.1914 1.90625 30.5117 1.92188 30.3086C1.92188 29.9102 1.77734 29.1367 1.48828 27.9883C1.19922 26.8398 1.05469 25.9961 1.05469 25.457C1.05469 24.9102 1.19922 24.2812 1.48828 23.5703C1.77734 22.8516 1.92188 22.3125 1.92188 21.9531C1.89062 21.5469 1.76953 20.9922 1.55859 20.2891C1.34766 19.5781 1.17969 18.8672 1.05469 18.1562C1.05469 17.3125 1.18359 16.4453 1.44141 15.5547C1.69922 14.6563 1.82812 14.0703 1.82812 13.7969C1.82812 13.4219 1.77734 13.0508 1.67578 12.6836C1.58203 12.3164 1.44922 11.8789 1.27734 11.3711C1.11328 10.8633 1.00781 10.4844 0.960938 10.2344C0.960938 9.75 1.04297 9.24219 1.20703 8.71094C1.37109 8.17188 1.46484 7.83203 1.48828 7.69141C1.55078 7.47266 1.58203 7.17187 1.58203 6.78906C1.58203 6.45313 1.48828 6.00391 1.30078 5.44141C1.25391 5.29297 1.19141 5.0625 1.11328 4.75C1.04297 4.42969 1.00781 4.10156 1.00781 3.76562C1.00781 3.39062 1.05469 3.08594 1.14844 2.85156C1.41406 2.6875 1.67188 2.60547 1.92188 2.60547C2.19531 2.60547 2.60547 2.69922 3.15234 2.88672C3.70703 3.06641 4.11328 3.16406 4.37109 3.17969C4.73047 3.17969 5.11328 3.07031 5.51953 2.85156C5.93359 2.63281 6.28516 2.50391 6.57422 2.46484C6.90234 2.40234 7.17578 2.37109 7.39453 2.37109C7.80859 2.37109 8.22656 2.40234 8.64844 2.46484C9.07031 2.52734 9.35547 2.55859 9.50391 2.55859C9.83984 2.55859 10.2227 2.49609 10.6523 2.37109C11.4102 2.11328 12.0352 1.98438 12.5273 1.98438C13.0508 1.98438 13.5156 2.14453 13.9219 2.46484C14.2422 2.72266 14.7422 2.97656 15.4219 3.22656C16.1016 3.47656 16.5273 3.67188 16.6992 3.8125C16.7383 3.84375 17.0391 4.19922 17.6016 4.87891C18.1719 5.55078 18.7695 6.01172 19.3945 6.26172C19.832 6.43359 20.1367 6.6875 20.3086 7.02344C20.4883 7.35937 20.6016 7.73047 20.6484 8.13672C20.7031 8.54297 20.7656 9.00391 20.8359 9.51953C20.9062 9.83203 21.1055 10.1836 21.4336 10.5742C21.7695 10.9648 21.9375 11.332 21.9375 11.6758C21.9375 11.9961 22.0977 12.4922 22.418 13.1641C22.7383 13.8359 22.8984 14.3984 22.8984 14.8516C22.8984 15.2578 22.832 15.7852 22.6992 16.4336C22.5742 17.0742 22.5117 17.5859 22.5117 17.9688C22.543 18.1016 22.6523 18.3594 22.8398 18.7422C23.0273 19.125 23.1719 19.4609 23.2734 19.75C23.375 20.0391 23.4258 20.3398 23.4258 20.6523C23.4258 20.9727 23.3594 21.2617 23.2266 21.5195C23.0703 21.9492 22.9922 22.332 22.9922 22.668C22.9922 23.0117 23.0547 23.4336 23.1797 23.9336C23.3125 24.4336 23.3789 24.75 23.3789 24.8828ZM15.5039 18.3555C15.4727 18.1289 15.3203 17.7031 15.0469 17.0781C14.7734 16.4453 14.6367 15.8125 14.6367 15.1797V14.0312C14.6367 13.1094 14.2695 12.4844 13.5352 12.1562C13.1758 12 12.9375 11.7852 12.8203 11.5117C12.7109 11.2383 12.6055 10.9805 12.5039 10.7383C12.4023 10.4961 12.1875 10.3281 11.8594 10.2344C11.4609 10.125 11.1055 10.0703 10.793 10.0703C10.4805 10.0703 10.1641 10.0156 9.84375 9.90625C9.75 9.90625 9.61328 10.0039 9.43359 10.1992C9.26172 10.3867 9.14062 10.4805 9.07031 10.4805C9.17188 10.8477 9.37891 11.4023 9.69141 12.1445C10.0117 12.8789 10.207 13.3945 10.2773 13.6914C10.3398 13.957 10.3711 14.1836 10.3711 14.3711C10.3711 14.7773 10.3164 15.2109 10.207 15.6719C10.0977 16.1328 9.97266 16.5859 9.83203 17.0312C9.69922 17.4766 9.55859 17.9336 9.41016 18.4023C9.34766 18.6523 9.31641 18.875 9.31641 19.0703C9.31641 19.7969 9.60156 20.8203 10.1719 22.1406C10.2422 22.3672 10.2773 22.543 10.2773 22.668C10.2773 23.0977 10.1016 23.8125 9.75 24.8125C9.39844 25.8047 9.1875 26.418 9.11719 26.6523C9.05469 26.9805 9.02344 27.207 9.02344 27.332C9.02344 27.8164 9.17578 28.5898 9.48047 29.6523C9.78516 30.707 9.9375 31.4531 9.9375 31.8906V32.2773C10.0938 32.3086 10.4297 32.3242 10.9453 32.3242C11.3359 32.2461 11.6953 32 12.0234 31.5859C12.3516 31.1641 12.6641 30.8789 12.9609 30.7305C13.2266 30.582 13.4023 30.4023 13.4883 30.1914C13.582 29.9727 13.6797 29.7148 13.7812 29.418C13.8828 29.1133 14.043 28.8633 14.2617 28.668C14.4805 28.4492 14.5898 28.2578 14.5898 28.0938C14.5898 27.9766 14.543 27.7773 14.4492 27.4961C14.3555 27.2148 14.3086 26.9688 14.3086 26.7578C14.3086 26.6641 14.3398 26.4531 14.4023 26.125C14.5273 25.6484 14.7188 25.1758 14.9766 24.707C15.2344 24.2383 15.3633 23.8633 15.3633 23.582C15.3633 23.2461 15.2734 22.7461 15.0938 22.082C14.9219 21.4102 14.8203 20.9336 14.7891 20.6523C14.7891 20.2305 14.8906 19.7422 15.0938 19.1875C15.3047 18.6328 15.4414 18.3555 15.5039 18.3555ZM34.1836 31.7383C34.1836 32.1133 34.1562 32.4336 34.1016 32.6992C34.0547 32.9648 33.9844 33.2422 33.8906 33.5312C33.7969 33.8203 33.7148 34.0898 33.6445 34.3398C33.582 34.7773 33.5508 35.0469 33.5508 35.1484C33.5508 35.3594 33.5625 35.5391 33.5859 35.6875C33.6172 35.8281 33.6562 35.9688 33.7031 36.1094C33.75 36.2422 33.7969 36.3867 33.8438 36.543C33.8906 36.6914 33.9492 36.9336 34.0195 37.2695C34.0898 37.5977 34.125 37.9336 34.125 38.2773C34.125 38.6133 34.0781 38.8984 33.9844 39.1328C33.7344 39.2969 33.4805 39.3789 33.2227 39.3789C32.9414 39.3789 32.5234 39.2891 31.9688 39.1094C31.4219 38.9219 31.0234 38.8203 30.7734 38.8047C30.4062 38.8047 30.0117 38.9336 29.5898 39.1914C29.168 39.4414 28.7305 39.5664 28.2773 39.5664C27.6992 39.5664 26.8516 39.3594 25.7344 38.9453C25.7344 37.4375 25.6523 36.3633 25.4883 35.7227C25.4883 35.1289 25.6094 34.4492 25.8516 33.6836C26.1016 32.918 26.2383 32.4492 26.2617 32.2773C26.2617 31.8945 26.0664 31.2344 25.6758 30.2969C25.2852 29.3516 25.0469 28.6992 24.9609 28.3398C24.8984 28.0742 24.8672 27.8477 24.8672 27.6602C24.8672 27.2461 24.9219 26.8047 25.0312 26.3359C25.1406 25.8594 25.2656 25.3906 25.4062 24.9297C25.5547 24.4609 25.6953 24.0117 25.8281 23.582C25.8906 23.2695 25.9219 23.0312 25.9219 22.8672C25.9219 22.2734 25.6484 21.2656 25.1016 19.8438C25.0391 19.6406 25.0078 19.4648 25.0078 19.3164C25.0078 18.9102 25.1914 18.1797 25.5586 17.125C25.9336 16.0625 26.1367 15.4805 26.168 15.3789C26.2305 15.0508 26.2617 14.8086 26.2617 14.6523C26.2617 14.1211 26.1016 13.3281 25.7812 12.2734C25.4609 11.2188 25.3008 10.4922 25.3008 10.0938C25.3008 8.94531 25.5078 7.69922 25.9219 6.35547C26.0469 5.92578 26.1094 5.44531 26.1094 4.91406C26.1094 4.21094 25.9492 3.47266 25.6289 2.69922C25.793 2.54297 26.0039 2.46484 26.2617 2.46484C26.3555 2.46484 26.5234 2.48828 26.7656 2.53516C27.0078 2.58203 27.207 2.60547 27.3633 2.60547C27.668 2.60547 27.9727 2.54297 28.2773 2.41797C28.543 2.28516 28.8281 2.21875 29.1328 2.21875C29.3672 2.21875 30.0078 2.39844 31.0547 2.75781C31.3906 2.85156 31.6484 2.89844 31.8281 2.89844C32 2.89844 32.2539 2.85937 32.5898 2.78125C32.9258 2.69531 33.2461 2.65234 33.5508 2.65234C33.5508 3.67578 33.7617 5.05469 34.1836 6.78906C34.1836 7.57813 34.0273 8.5625 33.7148 9.74219C33.4023 10.9219 33.2383 11.582 33.2227 11.7227C33.2227 12.0664 33.3633 12.8047 33.6445 13.9375C33.9336 15.0703 34.0781 15.9336 34.0781 16.5273C34.0781 17.1289 33.9336 17.7812 33.6445 18.4844C33.3633 19.1875 33.2227 19.7188 33.2227 20.0781C33.2539 20.4688 33.375 21.0117 33.5859 21.707C33.7969 22.3945 33.9609 23.1016 34.0781 23.8281C34.0781 24.7344 33.9492 25.6328 33.6914 26.5234C33.4414 27.4062 33.3164 27.9609 33.3164 28.1875C33.3164 28.5469 33.3633 28.9141 33.457 29.2891C33.5508 29.6641 33.6797 30.1094 33.8438 30.625C34.0156 31.1328 34.1289 31.5039 34.1836 31.7383ZM60.6914 39.6133C60.3789 39.8398 60.0273 39.9531 59.6367 39.9531C59.2461 39.9531 58.8594 39.8398 58.4766 39.6133C58.3516 39.5508 58.2578 39.5195 58.1953 39.5195C58.1094 39.5195 57.8945 39.6172 57.5508 39.8125C57.207 40 56.8281 40.0938 56.4141 40.0938C56.1641 40.0938 55.8711 39.9766 55.5352 39.7422C55.207 39.5 54.9414 39.3789 54.7383 39.3789C54.5898 39.3789 54.3984 39.4766 54.1641 39.6719C53.9375 39.8594 53.6797 39.9531 53.3906 39.9531C53.1016 39.9531 52.8633 39.9219 52.6758 39.8594C52.6758 39.6172 52.7383 39.3047 52.8633 38.9219C52.9961 38.5312 53.0625 38.2344 53.0625 38.0312C53.0625 37.8672 53.0117 37.707 52.9102 37.5508C52.2539 36.582 51.9023 35.9414 51.8555 35.6289C51.8555 35.3867 51.9102 35.0625 52.0195 34.6562C52.1367 34.2422 52.1953 33.9102 52.1953 33.6602C52 33.5977 51.7578 33.5664 51.4688 33.5664C51.2188 33.5664 50.832 33.668 50.3086 33.8711C49.7852 34.0742 49.4062 34.2148 49.1719 34.293C48.8516 34.293 48.4961 34.1719 48.1055 33.9297C47.7148 33.6875 47.4297 33.5664 47.25 33.5664C47.0312 33.5977 46.8203 33.707 46.6172 33.8945C46.4219 34.0742 46.2148 34.1875 45.9961 34.2344C45.9492 34.2031 45.8633 34.1641 45.7383 34.1172C45.6211 34.0703 45.4688 34.0469 45.2812 34.0469C45.0234 34.0469 44.832 34.0781 44.707 34.1406C44.7695 34.3984 44.8008 34.7188 44.8008 35.1016C44.7461 35.7266 44.6328 36.1758 44.4609 36.4492C44.2734 36.7852 44.1797 37.2148 44.1797 37.7383C44.1797 38.1211 44.2266 38.5078 44.3203 38.8984C43.8594 39.1875 43.4609 39.332 43.125 39.332C42.9375 39.332 42.6172 39.2188 42.1641 38.9922C41.9688 38.8984 41.8242 38.8516 41.7305 38.8516C41.582 38.8516 41.3906 38.9336 41.1562 39.0977C40.9219 39.2539 40.6797 39.3477 40.4297 39.3789C40.1484 39.3789 39.8359 39.2773 39.4922 39.0742C39.1484 38.8633 38.8555 38.7578 38.6133 38.7578C38.4102 38.7578 38.1211 38.8789 37.7461 39.1211C37.3789 39.3555 37.0586 39.4727 36.7852 39.4727C36.7148 39.4727 36.5547 39.4414 36.3047 39.3789C36.3047 38.9023 36.3828 38.457 36.5391 38.043C36.7031 37.6289 36.7852 37.2734 36.7852 36.9766C36.7852 36.7344 36.7539 36.4531 36.6914 36.1328C36.6289 35.8125 36.5977 35.5508 36.5977 35.3477C36.5977 35.2539 36.6289 34.9492 36.6914 34.4336C36.7617 33.9961 36.8516 33.7109 36.9609 33.5781C37.0781 33.4375 37.2852 33.2109 37.582 32.8984C37.8789 32.5859 38.0625 32.2812 38.1328 31.9844C38.1328 31.5078 38.0508 30.9219 37.8867 30.2266C37.7305 29.5312 37.6523 28.9805 37.6523 28.5742C37.6836 28.2148 37.8516 27.8711 38.1562 27.543C38.4609 27.2148 38.6133 26.8711 38.6133 26.5117V22.9141C38.6445 22.6797 38.8359 22.2734 39.1875 21.6953C39.5391 21.1094 39.7148 20.5391 39.7148 19.9844C39.6992 19.6172 39.6523 19.1797 39.5742 18.6719C39.5039 18.1562 39.4688 17.793 39.4688 17.582C39.4688 17.3008 39.5195 17.0938 39.6211 16.9609C39.6836 16.8359 39.793 16.6914 39.9492 16.5273C40.1133 16.3555 40.2344 16.1953 40.3125 16.0469C40.3906 15.8984 40.4297 15.6758 40.4297 15.3789C40.4297 15.1133 40.3398 14.7305 40.1602 14.2305C39.9883 13.7227 39.9023 13.3359 39.9023 13.0703C39.9023 12.7813 40 12.4922 40.1953 12.2031C40.7812 11.4219 41.1758 10.8828 41.3789 10.5859C41.582 10.2891 41.7148 9.94922 41.7773 9.56641C41.7773 9.35547 41.7188 8.98828 41.6016 8.46484C41.4922 7.94141 41.4375 7.52344 41.4375 7.21094C41.4375 6.85156 41.5039 6.55078 41.6367 6.30859C41.8008 6.00391 41.9531 5.75 42.0938 5.54688C42.2422 5.33594 42.3281 5.20312 42.3516 5.14844C42.3828 5.08594 42.3984 4.94141 42.3984 4.71484C42.3984 4.55078 42.3672 4.3125 42.3047 4C42.2422 3.6875 42.2109 3.44922 42.2109 3.28516C42.2109 3.01953 42.2734 2.77734 42.3984 2.55859C42.7422 2.55859 43.082 2.61719 43.418 2.73438C43.7617 2.84375 44.0625 2.89844 44.3203 2.89844C44.5391 2.875 44.8477 2.72656 45.2461 2.45312C45.6523 2.17188 46.0312 2.03125 46.3828 2.03125C46.4375 2.04688 46.8359 2.17969 47.5781 2.42969C48.3203 2.67969 48.9297 2.80469 49.4062 2.80469C49.9609 2.64062 50.418 2.50781 50.7773 2.40625C51.1445 2.29687 51.5039 2.21875 51.8555 2.17188C52.0898 2.17188 52.4492 2.21484 52.9336 2.30078C53.4258 2.37891 54.0273 2.41797 54.7383 2.41797C54.8008 2.54297 54.832 2.73438 54.832 2.99219C54.832 3.17188 54.8008 3.49609 54.7383 3.96484C54.6758 4.43359 54.6445 4.84375 54.6445 5.19531C54.6914 5.375 54.8203 5.64844 55.0312 6.01562C55.2422 6.38281 55.4062 6.73047 55.5234 7.05859C55.6406 7.37891 55.6992 7.76563 55.6992 8.21875C55.6992 8.67969 55.6172 9.15234 55.4531 9.63672C55.2969 10.1133 55.2188 10.4414 55.2188 10.6211C55.2188 10.8008 55.2656 11.0078 55.3594 11.2422C55.5391 11.625 55.6797 11.9297 55.7812 12.1562C55.8828 12.375 55.957 12.5898 56.0039 12.8008C56.0586 13.0039 56.0859 13.3008 56.0859 13.6914C56.0859 14.1367 56.2539 14.7617 56.5898 15.5664C56.9258 16.3711 57.125 16.9648 57.1875 17.3477C57.1875 17.8398 57.1055 18.3711 56.9414 18.9414C56.7852 19.5039 56.707 19.8984 56.707 20.125C56.707 20.2578 56.7383 20.4492 56.8008 20.6992C56.9336 21.0898 57.207 21.6758 57.6211 22.457C58.0352 23.2305 58.2422 23.7812 58.2422 24.1094C58.2422 24.4297 58.1836 24.8711 58.0664 25.4336C57.957 25.9883 57.9023 26.4297 57.9023 26.7578C57.957 27.0859 58.1797 27.5625 58.5703 28.1875C58.9688 28.8125 59.1953 29.3594 59.25 29.8281C59.25 30.1484 59.1836 30.6094 59.0508 31.2109C58.9258 31.8125 58.8633 32.2773 58.8633 32.6055C58.8633 32.8555 58.9102 33.1289 59.0039 33.4258C59.6445 34.9336 59.9648 36.1484 59.9648 37.0703C59.9648 38.1406 60.207 38.9883 60.6914 39.6133ZM50.7539 27.2852C50.707 27.0273 50.6211 26.7344 50.4961 26.4062C50.3789 26.0781 50.3047 25.7617 50.2734 25.457C50.2734 25.0898 50.3281 24.7305 50.4375 24.3789C50.5547 24.0195 50.6133 23.7695 50.6133 23.6289C50.6133 23.3789 50.4609 22.9609 50.1562 22.375C49.8594 21.7891 49.6914 21.4414 49.6523 21.332C49.6523 20.8945 49.7539 20.4453 49.957 19.9844C50.168 19.5234 50.2734 19.2031 50.2734 19.0234C50.2734 18.7812 50.125 18.3945 49.8281 17.8633C49.5312 17.332 49.3594 16.9023 49.3125 16.5742C49.2891 16.3555 49.2695 16.0664 49.2539 15.707C49.2383 15.3477 49.207 14.9844 49.1602 14.6172C49.1133 14.25 49.0352 13.8633 48.9258 13.457C48.1836 14.3398 47.7852 15.1875 47.7305 16V18.6367C47.7305 18.9727 47.6719 19.2656 47.5547 19.5156C47.4375 19.7656 47.2539 20.0742 47.0039 20.4414C46.7617 20.8086 46.5859 21.1055 46.4766 21.332C46.3828 21.6133 46.3359 21.8672 46.3359 22.0938C46.3359 22.2812 46.3828 22.5781 46.4766 22.9844C46.5781 23.3906 46.6289 23.7656 46.6289 24.1094C46.6055 24.2422 46.4766 24.6211 46.2422 25.2461C46.0156 25.8633 45.9023 26.4609 45.9023 27.0391C46.082 27.1641 46.2891 27.2266 46.5234 27.2266C46.6953 27.2266 46.9883 27.1797 47.4023 27.0859C47.8164 26.9844 48.1172 26.9219 48.3047 26.8984C48.6562 26.8984 49.0195 26.9883 49.3945 27.168C49.7695 27.3398 50.0469 27.4258 50.2266 27.4258C50.3906 27.4258 50.5664 27.3789 50.7539 27.2852ZM82.1016 29.6758C81.9141 30.3789 81.5352 31.2383 80.9648 32.2539C80.3945 33.2617 80.0547 33.9883 79.9453 34.4336C79.6875 35.6992 79.4961 36.5547 79.3711 37C79.2461 37.4453 78.9727 37.8359 78.5508 38.1719C78.1914 38.4453 77.7305 38.6328 77.168 38.7344C76.6133 38.8281 76.2266 38.9297 76.0078 39.0391C75.625 39.2344 75.3398 39.3711 75.1523 39.4492C74.9727 39.5273 74.7227 39.6016 74.4023 39.6719C74.082 39.7344 73.6914 39.7656 73.2305 39.7656C72.8008 39.6953 72.293 39.5977 71.707 39.4727C71.1289 39.3477 70.6836 39.2617 70.3711 39.2148C70.0586 39.1602 69.7148 39.1328 69.3398 39.1328C68.9648 39.1641 68.332 39.3164 67.4414 39.5898C66.5508 39.8633 65.8711 40 65.4023 40C63.8477 39.6562 62.8086 39.2227 62.2852 38.6992C62.4102 37.9336 62.4727 37.3906 62.4727 37.0703C62.4727 36.2188 62.3125 35.3711 61.9922 34.5273C61.8047 34.0039 61.7109 33.5547 61.7109 33.1797C61.7109 32.75 61.8867 32.1328 62.2383 31.3281C62.5898 30.5234 62.7656 29.7656 62.7656 29.0547C62.7188 28.3359 62.4961 27.4609 62.0977 26.4297C61.707 25.3906 61.5117 24.5078 61.5117 23.7812C61.582 23.0859 61.8086 22.2539 62.1914 21.2852C62.5742 20.3086 62.7656 19.4766 62.7656 18.7891C62.7656 18.2188 62.6602 17.5156 62.4492 16.6797C62.2383 15.8437 62.1328 15.1523 62.1328 14.6055C62.2188 14.2461 62.3516 13.7656 62.5312 13.1641C62.7188 12.5547 62.8594 12.043 62.9531 11.6289C63.0469 11.207 63.0938 10.8086 63.0938 10.4336C63.0938 10.043 62.9336 9.52344 62.6133 8.875C62.293 8.22656 62.1328 7.625 62.1328 7.07031C62.1484 6.95312 62.207 6.53125 62.3086 5.80469C62.418 5.07812 62.4727 4.53906 62.4727 4.1875C62.4727 3.58594 62.3594 3.04297 62.1328 2.55859C62.6797 2.33203 63.5938 2.21875 64.875 2.21875C65.6797 2.47656 66.2227 2.60547 66.5039 2.60547C66.9102 2.60547 67.2773 2.47656 67.6055 2.21875C68.1211 1.89844 68.7617 1.73828 69.5273 1.73828C70.043 1.73828 70.5547 1.82031 71.0625 1.98438C71.2578 2.02344 71.5312 2.10547 71.8828 2.23047C72.2344 2.35547 72.5078 2.41797 72.7031 2.41797C72.9453 2.41797 73.1523 2.35156 73.3242 2.21875C73.6055 2.03125 74.0195 1.9375 74.5664 1.9375C75.2305 1.9375 75.7578 2.05078 76.1484 2.27734C76.4375 2.41797 76.7266 2.73438 77.0156 3.22656C77.3047 3.71094 77.6406 4.06641 78.0234 4.29297C78.9766 4.48828 79.6406 4.70312 80.0156 4.9375C80.3906 5.16406 80.6055 5.33203 80.6602 5.44141C80.7695 5.73047 80.8672 5.98828 80.9531 6.21484C81.0469 6.43359 81.125 6.64063 81.1875 6.83594C81.25 7.03125 81.2852 7.22266 81.293 7.41016C81.293 7.73828 81.2109 8.04297 81.0469 8.32422C80.9531 8.51172 80.9062 8.71875 80.9062 8.94531C80.9062 9.29688 81.0234 9.80859 81.2578 10.4805C81.5 11.1445 81.6211 11.5781 81.6211 11.7812C81.6211 12.0391 81.4805 12.3242 81.1992 12.6367C80.9258 12.9492 80.7148 13.2891 80.5664 13.6562C80.418 14.0156 80.3242 14.5352 80.2852 15.2148C80.2461 15.8945 80.1797 16.3477 80.0859 16.5742C79.9922 16.793 79.6406 17.1523 79.0312 17.6523C78.4219 18.1523 78.1172 18.5469 78.1172 18.8359C78.9297 19.2031 79.4961 19.5352 79.8164 19.832C80.1367 20.1289 80.4023 20.5625 80.6133 21.1328C80.8711 21.7734 81 22.3359 81 22.8203C81 23.1328 80.9336 23.4961 80.8008 23.9102C80.6758 24.3164 80.6133 24.6562 80.6133 24.9297C80.6133 25.0703 80.6484 25.3086 80.7188 25.6445C80.7969 25.9648 80.8828 26.2148 80.9766 26.3945C81.0781 26.5742 81.2578 26.8594 81.5156 27.25C81.7734 27.6328 81.9531 27.9375 82.0547 28.1641C82.1562 28.3828 82.207 28.6328 82.207 28.9141C82.207 29.2344 82.1719 29.4883 82.1016 29.6758ZM73.7578 13.457C74.0391 13.0273 74.1797 12.5938 74.1797 12.1562C74.1797 11.6719 74.0234 11.0664 73.7109 10.3398C73.5547 9.94922 73.4062 9.70703 73.2656 9.61328C73.125 9.51172 72.9219 9.44922 72.6562 9.42578C72.3984 9.40234 72.1562 9.33594 71.9297 9.22656C71.0703 8.875 70.5273 8.69922 70.3008 8.69922C70.1992 8.69922 70.0078 8.73438 69.7266 8.80469C69.75 8.98438 69.8047 9.28125 69.8906 9.69531C69.9844 10.1094 70.0508 10.4297 70.0898 10.6562C70.1289 10.8828 70.1484 11.1758 70.1484 11.5352C70.1484 11.9023 70.043 12.4102 69.832 13.0586C69.6289 13.6992 69.5273 14.168 69.5273 14.4648C69.8164 15.5508 69.9609 16.3672 69.9609 16.9141C71.9766 16.9141 72.9844 16.4648 72.9844 15.5664C72.9844 15.0664 72.9922 14.7539 73.0078 14.6289C73.0312 14.4961 73.0938 14.3594 73.1953 14.2188C73.3047 14.0781 73.4922 13.8242 73.7578 13.457ZM74.3789 26.8047C74.1133 25.4609 73.4414 24.7891 72.3633 24.7891C72.2148 24.8047 71.9766 24.8555 71.6484 24.9414C71.3281 25.0273 71.0703 25.0703 70.875 25.0703C70.5781 25.0703 70.2578 25.0078 69.9141 24.8828C69.5312 25.25 69.3398 25.793 69.3398 26.5117C69.3398 26.8711 69.4766 27.3438 69.75 27.9297C70.0312 28.5156 70.1836 28.9219 70.207 29.1484C70.207 29.3984 70.1172 29.793 69.9375 30.332C69.7578 30.8711 69.668 31.293 69.668 31.5977C69.668 31.8555 69.7031 32.0469 69.7734 32.1719C69.9062 32.1719 70.1367 32.1562 70.4648 32.125C70.793 32.0938 71.1055 32.0781 71.4023 32.0781C71.5195 32.0781 71.6211 32.0898 71.707 32.1133C71.8008 32.1289 71.9023 32.1562 72.0117 32.1953C72.1289 32.2266 72.2461 32.2539 72.3633 32.2773C72.6211 32.2773 72.9414 32.1328 73.3242 31.8438C73.5586 31.6328 73.6914 31.3789 73.7227 31.082C73.7617 30.7852 73.793 30.4688 73.8164 30.1328C73.8477 29.7969 73.9688 29.5195 74.1797 29.3008C74.5391 28.8945 74.7188 28.5586 74.7188 28.293C74.7188 28.168 74.6055 27.6719 74.3789 26.8047ZM105.973 26.2773C105.973 26.7539 105.762 27.3242 105.34 27.9883C104.926 28.6523 104.719 29.2305 104.719 29.7227C104.719 30.5273 104.59 31.293 104.332 32.0195C104.082 32.7383 103.957 33.2695 103.957 33.6133C103.926 34.0117 103.805 34.3242 103.594 34.5508C103.383 34.7695 103.086 35.0078 102.703 35.2656C102.32 35.5156 102.066 35.7344 101.941 35.9219C101.809 36.1406 101.742 36.332 101.742 36.4961C101.742 36.5273 101.75 36.5938 101.766 36.6953C101.789 36.7969 101.801 36.9062 101.801 37.0234C101.801 37.3906 101.672 37.8398 101.414 38.3711C101.031 39.1367 100.406 39.5195 99.5391 39.5195C99.375 39.5195 99.125 39.5039 98.7891 39.4727C98.4531 39.4414 98.207 39.4258 98.0508 39.4258C97.7539 39.4258 97.4609 39.5547 97.1719 39.8125C96.8828 40.0703 96.6289 40.2617 96.4102 40.3867C96.1992 40.5195 95.7539 40.6289 95.0742 40.7148C94.2773 40.7148 93.6211 40.6211 93.1055 40.4336C92.5898 40.2539 92.1523 40.0117 91.793 39.707C91.4336 39.4023 91.1211 39.1328 90.8555 38.8984C90.4336 38.5781 89.9375 38.418 89.3672 38.418C88.9844 38.418 88.6484 38.3711 88.3594 38.2773C87.6406 38.0898 87.1602 37.1602 86.918 35.4883C86.8633 35.2227 86.5352 34.7695 85.9336 34.1289C85.332 33.4805 84.918 33.0195 84.6914 32.7461C84.4648 32.4648 84.3281 32.1133 84.2812 31.6914C84.2109 31.0039 84.1758 30.5586 84.1758 30.3555C84.1758 30.0977 84.2734 29.3906 84.4688 28.2344C84.4688 27.6562 84.4062 27.1602 84.2812 26.7461C84.1562 26.332 83.9727 25.8047 83.7305 25.1641C83.4961 24.5156 83.3594 24.0195 83.3203 23.6758C83.3203 23.0742 83.4531 22.3906 83.7188 21.625C83.9922 20.8516 84.1289 20.2734 84.1289 19.8906C84.1289 19.4219 83.918 18.7031 83.4961 17.7344C83.082 16.7656 82.8477 16.0586 82.793 15.6133C82.793 15.2852 82.8555 14.9922 82.9805 14.7344C83.1133 14.4766 83.3281 14.1406 83.625 13.7266C83.9297 13.3047 84.1445 12.9688 84.2695 12.7188C84.4023 12.4687 84.4688 12.1875 84.4688 11.875C84.4141 11.4609 84.3438 11.0586 84.2578 10.668C84.1719 10.2773 84.1289 9.79687 84.1289 9.22656C84.1289 8.78906 84.2617 8.39062 84.5273 8.03125C84.793 7.66406 85.1406 7.29297 85.5703 6.91797C86 6.53516 86.2734 6.26563 86.3906 6.10938C86.5625 5.89063 86.7148 5.52344 86.8477 5.00781C86.9805 4.48438 87.1641 4.08594 87.3984 3.8125C87.7266 3.41406 88.1992 3.09766 88.8164 2.86328C89.4336 2.62891 90.0469 2.51172 90.6562 2.51172C91.0625 2.51172 91.5195 2.33203 92.0273 1.97266C92.5352 1.60547 93.0078 1.35156 93.4453 1.21094C94.0703 0.992188 94.6289 0.882812 95.1211 0.882812C95.707 0.882812 96.2852 1.02734 96.8555 1.31641C97.082 1.43359 97.3359 1.64844 97.6172 1.96094C97.8984 2.27344 98.1719 2.51953 98.4375 2.69922C98.7109 2.87109 99.1094 2.98438 99.6328 3.03906C101.492 3.1875 102.422 4.00391 102.422 5.48828C102.422 6.04297 102.648 6.50391 103.102 6.87109C103.562 7.23828 103.961 7.72266 104.297 8.32422C104.453 8.59766 104.531 8.88281 104.531 9.17969C104.531 9.3125 104.516 9.48438 104.484 9.69531C104.453 9.90625 104.438 10.0703 104.438 10.1875C104.438 10.5547 104.598 10.957 104.918 11.3945C104.98 11.582 105.012 11.7422 105.012 11.875C105.012 12.1562 104.934 12.5664 104.777 13.1055C104.629 13.6367 104.547 13.9453 104.531 14.0312C104.531 14.6016 104.582 15.0898 104.684 15.4961C104.793 15.8945 104.945 16.3711 105.141 16.9258C105.336 17.4727 105.453 17.8984 105.492 18.2031C105.492 18.7969 105.355 19.4883 105.082 20.2773C104.809 21.0664 104.672 21.6406 104.672 22C104.672 22.4375 104.875 23.1445 105.281 24.1211C105.695 25.0977 105.926 25.8164 105.973 26.2773ZM98.2383 18.2617C98.2383 17.5039 97.8867 16.3828 97.1836 14.8984C97.1523 14.8281 97.0742 14.6875 96.9492 14.4766C96.832 14.2656 96.7539 14.1094 96.7148 14.0078C96.6758 13.8984 96.6562 13.7617 96.6562 13.5977C96.6562 13.3867 96.7539 12.957 96.9492 12.3086C96.9492 12.043 96.9219 11.8164 96.8672 11.6289C96.8203 11.4336 96.7344 11.1875 96.6094 10.8906C96.4922 10.5937 96.3984 10.3281 96.3281 10.0938C96.3281 9.00781 95.8789 8.46484 94.9805 8.46484C94.4258 8.46484 93.8672 8.67187 93.3047 9.08594C92.5 9.6875 92.0977 10.3281 92.0977 11.0078C92.0977 11.2266 92.1641 11.6094 92.2969 12.1562C92.2969 12.7109 92.0977 13.2891 91.6992 13.8906C91.3008 14.4844 91.0664 14.8984 90.9961 15.1328C90.9023 15.4687 90.8555 15.7734 90.8555 16.0469C90.8555 16.5625 91.125 17.25 91.6641 18.1094C91.8281 18.375 91.9102 18.6172 91.9102 18.8359C91.9102 19.0703 91.7891 19.4141 91.5469 19.8672C91.3047 20.3203 91.1836 20.7109 91.1836 21.0391C91.2539 21.3203 91.2891 21.5273 91.2891 21.6602C91.2891 21.9648 91.2188 22.3477 91.0781 22.8086C90.9453 23.2695 90.8711 23.5586 90.8555 23.6758C90.8555 24.457 91.2227 25.5469 91.957 26.9453C92.0742 27.1484 92.1758 27.3203 92.2617 27.4609C92.3555 27.6016 92.4219 27.7305 92.4609 27.8477C92.5078 27.957 92.5312 28.1055 92.5312 28.293C92.5312 28.6367 92.4531 29.0664 92.2969 29.582C92.1953 29.9102 92.1445 30.1992 92.1445 30.4492C92.1445 31.4648 92.6719 32.1992 93.7266 32.6523C94.2266 32.9102 94.6758 33.0391 95.0742 33.0391C95.6367 33.0391 96.0547 32.7031 96.3281 32.0312C96.2266 31.8516 96.1758 31.6914 96.1758 31.5508C96.1758 31.3477 96.3242 31.1484 96.6211 30.9531C96.918 30.75 97.1055 30.5508 97.1836 30.3555C97.2773 30.1289 97.3555 29.6641 97.418 28.9609C97.4805 28.2578 97.5781 27.6992 97.7109 27.2852C98.0312 26.4023 98.1914 25.7461 98.1914 25.3164C98.1914 24.8555 98.0508 24.3594 97.7695 23.8281C97.5117 23.4297 97.3828 22.9648 97.3828 22.4336C97.3828 22.3164 97.3906 22.1484 97.4062 21.9297C97.4219 21.7109 97.4297 21.543 97.4297 21.4258C97.4297 21.293 97.3984 21.1016 97.3359 20.8516C97.3359 20.3672 97.4766 19.8477 97.7578 19.293C98.0469 18.7305 98.207 18.3867 98.2383 18.2617ZM124.371 33.9062C124.371 34.2422 124.242 34.6406 123.984 35.1016C123.727 35.5625 123.598 35.9492 123.598 36.2617C123.598 36.543 123.652 36.8047 123.762 37.0469C123.879 37.2891 123.938 37.4883 123.938 37.6445C123.938 37.7695 123.891 37.9805 123.797 38.2773C123.57 38.3398 123.266 38.3711 122.883 38.3711C122.75 38.3711 122.562 38.3633 122.32 38.3477C122.078 38.332 121.898 38.3242 121.781 38.3242C121.062 38.3242 120.211 38.5312 119.227 38.9453C117.875 39.3984 117.027 39.6367 116.684 39.6602C116.316 39.6602 115.98 39.5977 115.676 39.4727C114.691 39.0586 113.684 38.8516 112.652 38.8516C112.426 38.8516 112.188 38.8828 111.938 38.9453C111.359 39.0703 110.75 39.1328 110.109 39.1328C109.156 39.1328 108.391 38.957 107.812 38.6055C108.133 37.5039 108.293 36.5781 108.293 35.8281C108.293 35.2734 108.195 34.6953 108 34.0938C107.875 33.75 107.812 33.4297 107.812 33.1328C107.812 32.8594 107.891 32.5352 108.047 32.1602C108.211 31.7852 108.293 31.4688 108.293 31.2109C108.293 30.9609 108.25 30.5977 108.164 30.1211C108.086 29.6367 108.047 29.25 108.047 28.9609C108.047 28.6484 108.094 28.2969 108.188 27.9062C108.383 27.1094 108.48 26.4531 108.48 25.9375C108.48 25.1328 108.32 24.2539 108 23.3008C107.742 22.582 107.613 21.7969 107.613 20.9453C107.613 19.9453 107.805 18.9062 108.188 17.8281C108.289 17.5 108.34 17.1641 108.34 16.8203C108.34 16.3984 108.277 15.9648 108.152 15.5195C108.027 15.0664 107.863 14.6055 107.66 14.1367C107.457 13.6602 107.348 13.3867 107.332 13.3164C107.332 13.2227 107.449 12.8945 107.684 12.332C107.918 11.7617 108.055 11.1289 108.094 10.4336C108.094 10.0508 108.047 9.71875 107.953 9.4375C107.859 9.14844 107.715 8.84766 107.52 8.53516C107.324 8.21484 107.176 7.94141 107.074 7.71484C106.98 7.48047 106.922 7.20313 106.898 6.88281C106.898 6.35156 107.023 5.68359 107.273 4.87891C107.531 4.06641 107.66 3.48438 107.66 3.13281C107.949 3.03906 108.27 2.99219 108.621 2.99219C109.02 2.99219 109.484 3.03906 110.016 3.13281C110.734 3.13281 111.598 2.92578 112.605 2.51172C113.27 2.25391 113.848 2.125 114.34 2.125C114.934 2.125 115.523 2.25391 116.109 2.51172C116.211 2.77734 116.262 3 116.262 3.17969C116.262 3.42969 116.188 3.79687 116.039 4.28125C115.898 4.76563 115.812 5.07031 115.781 5.19531C115.781 5.59375 115.898 6.0625 116.133 6.60156C116.375 7.14062 116.496 7.51953 116.496 7.73828C116.496 7.88672 116.449 8.03125 116.355 8.17188C115.973 8.73438 115.781 9.60156 115.781 10.7734C115.906 11.1484 115.969 11.6914 115.969 12.4023C115.969 13.1523 115.871 13.6797 115.676 13.9844C115.457 14.3437 115.348 14.793 115.348 15.332C115.348 15.7539 115.426 16.1523 115.582 16.5273C115.777 16.9336 115.875 17.3164 115.875 17.6758C115.875 17.8008 115.844 18.0586 115.781 18.4492C115.758 18.6445 115.68 18.9102 115.547 19.2461C115.414 19.582 115.348 19.8594 115.348 20.0781C115.348 20.4688 115.426 20.9023 115.582 21.3789C115.809 22.1211 115.922 22.7773 115.922 23.3477C115.922 23.918 115.809 24.3633 115.582 24.6836C115.52 24.8867 115.488 25.0312 115.488 25.1172C115.488 25.1797 115.52 25.4297 115.582 25.8672C115.645 26.3047 115.676 26.8086 115.676 27.3789C115.605 27.9414 115.461 28.3281 115.242 28.5391C115.023 28.75 114.883 28.9688 114.82 29.1953C114.75 29.3906 114.715 29.7266 114.715 30.2031C114.715 30.9141 114.859 31.4609 115.148 31.8438C115.805 31.7422 116.336 31.6914 116.742 31.6914C117.367 31.6914 118.164 31.8203 119.133 32.0781C119.469 32.1719 119.742 32.2188 119.953 32.2188C120.297 32.2188 120.605 32.1172 120.879 31.9141C121.16 31.7031 121.395 31.582 121.582 31.5508C121.973 31.4883 122.23 31.457 122.355 31.457C122.824 31.457 123.352 31.5859 123.938 31.8438C123.938 32.4844 124.082 33.1719 124.371 33.9062ZM135.762 31.7383C135.762 32.1133 135.734 32.4336 135.68 32.6992C135.633 32.9648 135.562 33.2422 135.469 33.5312C135.375 33.8203 135.293 34.0898 135.223 34.3398C135.16 34.7773 135.129 35.0469 135.129 35.1484C135.129 35.3594 135.141 35.5391 135.164 35.6875C135.195 35.8281 135.234 35.9688 135.281 36.1094C135.328 36.2422 135.375 36.3867 135.422 36.543C135.469 36.6914 135.527 36.9336 135.598 37.2695C135.668 37.5977 135.703 37.9336 135.703 38.2773C135.703 38.6133 135.656 38.8984 135.562 39.1328C135.312 39.2969 135.059 39.3789 134.801 39.3789C134.52 39.3789 134.102 39.2891 133.547 39.1094C133 38.9219 132.602 38.8203 132.352 38.8047C131.984 38.8047 131.59 38.9336 131.168 39.1914C130.746 39.4414 130.309 39.5664 129.855 39.5664C129.277 39.5664 128.43 39.3594 127.312 38.9453C127.312 37.4375 127.23 36.3633 127.066 35.7227C127.066 35.1289 127.188 34.4492 127.43 33.6836C127.68 32.918 127.816 32.4492 127.84 32.2773C127.84 31.8945 127.645 31.2344 127.254 30.2969C126.863 29.3516 126.625 28.6992 126.539 28.3398C126.477 28.0742 126.445 27.8477 126.445 27.6602C126.445 27.2461 126.5 26.8047 126.609 26.3359C126.719 25.8594 126.844 25.3906 126.984 24.9297C127.133 24.4609 127.273 24.0117 127.406 23.582C127.469 23.2695 127.5 23.0312 127.5 22.8672C127.5 22.2734 127.227 21.2656 126.68 19.8438C126.617 19.6406 126.586 19.4648 126.586 19.3164C126.586 18.9102 126.77 18.1797 127.137 17.125C127.512 16.0625 127.715 15.4805 127.746 15.3789C127.809 15.0508 127.84 14.8086 127.84 14.6523C127.84 14.1211 127.68 13.3281 127.359 12.2734C127.039 11.2188 126.879 10.4922 126.879 10.0938C126.879 8.94531 127.086 7.69922 127.5 6.35547C127.625 5.92578 127.688 5.44531 127.688 4.91406C127.688 4.21094 127.527 3.47266 127.207 2.69922C127.371 2.54297 127.582 2.46484 127.84 2.46484C127.934 2.46484 128.102 2.48828 128.344 2.53516C128.586 2.58203 128.785 2.60547 128.941 2.60547C129.246 2.60547 129.551 2.54297 129.855 2.41797C130.121 2.28516 130.406 2.21875 130.711 2.21875C130.945 2.21875 131.586 2.39844 132.633 2.75781C132.969 2.85156 133.227 2.89844 133.406 2.89844C133.578 2.89844 133.832 2.85937 134.168 2.78125C134.504 2.69531 134.824 2.65234 135.129 2.65234C135.129 3.67578 135.34 5.05469 135.762 6.78906C135.762 7.57813 135.605 8.5625 135.293 9.74219C134.98 10.9219 134.816 11.582 134.801 11.7227C134.801 12.0664 134.941 12.8047 135.223 13.9375C135.512 15.0703 135.656 15.9336 135.656 16.5273C135.656 17.1289 135.512 17.7812 135.223 18.4844C134.941 19.1875 134.801 19.7188 134.801 20.0781C134.832 20.4688 134.953 21.0117 135.164 21.707C135.375 22.3945 135.539 23.1016 135.656 23.8281C135.656 24.7344 135.527 25.6328 135.27 26.5234C135.02 27.4062 134.895 27.9609 134.895 28.1875C134.895 28.5469 134.941 28.9141 135.035 29.2891C135.129 29.6641 135.258 30.1094 135.422 30.625C135.594 31.1328 135.707 31.5039 135.762 31.7383ZM159.574 12.4961C159.332 12.8633 159.031 13.0977 158.672 13.1992C158.32 13.3008 157.598 13.4492 156.504 13.6445C156.34 13.668 156.012 13.6914 155.52 13.7148C155.035 13.7383 154.598 13.8359 154.207 14.0078C153.824 14.1719 153.359 14.4844 152.812 14.9453C152.586 14.5391 152.473 14.1719 152.473 13.8438V12.7305C152.426 12.5977 152.207 12.2578 151.816 11.7109C151.426 11.1641 151.23 10.625 151.23 10.0938C151.23 8.97656 150.766 8.41797 149.836 8.41797C149.258 8.41797 148.699 8.64062 148.16 9.08594C147.418 9.61719 147.047 10.2578 147.047 11.0078C147.047 11.3594 147.098 11.7422 147.199 12.1562C147.199 12.7109 146.992 13.2852 146.578 13.8789C146.164 14.4727 145.922 14.8906 145.852 15.1328C145.789 15.3984 145.758 15.5742 145.758 15.6602C145.758 15.9414 145.82 16.2188 145.945 16.4922C146.07 16.7656 146.238 17.0703 146.449 17.4062C146.66 17.7344 146.91 18.1289 147.199 18.5898C147.355 18.8633 147.434 19.0703 147.434 19.2109C147.434 19.4219 147.281 19.6992 146.977 20.043C146.672 20.3867 146.52 20.7188 146.52 21.0391C146.52 21.5078 146.391 22.0352 146.133 22.6211C145.875 23.1992 145.734 23.5508 145.711 23.6758C145.711 23.9961 145.77 24.3516 145.887 24.7422C146.012 25.1328 146.156 25.5 146.32 25.8438C146.492 26.1875 146.672 26.5547 146.859 26.9453C146.977 27.1484 147.078 27.3203 147.164 27.4609C147.258 27.6016 147.324 27.7305 147.363 27.8477C147.41 27.957 147.434 28.1055 147.434 28.293C147.434 28.6367 147.355 29.0664 147.199 29.582C147.098 29.9102 147.047 30.2461 147.047 30.5898C147.047 31.7695 147.785 32.457 149.262 32.6523C150.23 32.8164 150.727 32.8984 150.75 32.8984C151.039 32.8984 151.184 32.6094 151.184 32.0312C151.184 31.5781 151.312 31.2188 151.57 30.9531C151.828 30.6875 151.984 30.4883 152.039 30.3555C152.234 29.8789 152.41 29.0312 152.566 27.8125C152.73 27.8281 153.066 27.8398 153.574 27.8477C154.082 27.8477 154.496 27.8945 154.816 27.9883C155.137 28.082 155.445 28.2617 155.742 28.5273C156.633 29.3242 157.895 29.7227 159.527 29.7227C159.629 29.918 159.68 30.1289 159.68 30.3555C159.68 30.6914 159.535 31.2227 159.246 31.9492C158.957 32.668 158.812 33.2227 158.812 33.6133C158.781 34.0117 158.664 34.3242 158.461 34.5508C158.258 34.7695 157.969 35.0078 157.594 35.2656C157.219 35.5234 156.969 35.7422 156.844 35.9219C156.719 36.0859 156.656 36.2617 156.656 36.4492C156.656 36.4883 156.664 36.5625 156.68 36.6719C156.695 36.7812 156.703 36.8828 156.703 36.9766C156.703 37.3984 156.559 37.8633 156.27 38.3711C155.887 39.1367 155.262 39.5195 154.395 39.5195C154.23 39.5195 153.98 39.5039 153.645 39.4727C153.309 39.4414 153.062 39.4258 152.906 39.4258C152.609 39.4258 152.328 39.5508 152.062 39.8008C151.805 40.0508 151.559 40.2422 151.324 40.375C151.098 40.5156 150.648 40.6289 149.977 40.7148C149.148 40.7148 148.477 40.6211 147.961 40.4336C147.453 40.2539 147.012 40.0078 146.637 39.6953C146.262 39.375 145.953 39.1094 145.711 38.8984C145.32 38.5781 144.863 38.4062 144.34 38.3828C143.816 38.3594 143.457 38.3242 143.262 38.2773C142.762 38.1211 142.414 37.8047 142.219 37.3281C142.031 36.8438 141.883 36.2305 141.773 35.4883C141.734 35.2148 141.484 34.8359 141.023 34.3516C140.57 33.8594 140.152 33.3984 139.77 32.9688C139.395 32.5312 139.184 32.1055 139.137 31.6914C139.066 31.0039 139.031 30.5586 139.031 30.3555C139.031 30.0977 139.129 29.3906 139.324 28.2344C139.324 27.6562 139.262 27.1602 139.137 26.7461C139.012 26.332 138.828 25.8047 138.586 25.1641C138.352 24.5156 138.215 24.0195 138.176 23.6758C138.176 23.0898 138.309 22.4102 138.574 21.6367C138.848 20.8555 138.984 20.2734 138.984 19.8906C138.984 19.4375 138.781 18.7305 138.375 17.7695C137.969 16.8086 137.742 16.0898 137.695 15.6133C137.695 15.2695 137.762 14.9609 137.895 14.6875C138.035 14.4062 138.234 14.0859 138.492 13.7266C138.758 13.3672 138.961 13.0469 139.102 12.7656C139.25 12.4766 139.324 12.1797 139.324 11.875C139.27 11.4609 139.199 11.0586 139.113 10.668C139.027 10.2773 138.984 9.79687 138.984 9.22656C138.984 8.78125 139.117 8.38281 139.383 8.03125C139.648 7.67188 140.008 7.29688 140.461 6.90625C140.914 6.51562 141.191 6.25 141.293 6.10938C141.449 5.89063 141.59 5.52734 141.715 5.01953C141.848 4.50391 142.027 4.10156 142.254 3.8125C142.582 3.42187 143.059 3.10938 143.684 2.875C144.316 2.63281 144.926 2.51172 145.512 2.51172C145.918 2.51172 146.379 2.33203 146.895 1.97266C147.41 1.60547 147.879 1.35156 148.301 1.21094C148.926 0.992188 149.484 0.882812 149.977 0.882812C150.562 0.882812 151.141 1.02734 151.711 1.31641C151.938 1.43359 152.191 1.64844 152.473 1.96094C152.754 2.27344 153.027 2.51953 153.293 2.69922C153.566 2.87109 153.965 2.98438 154.488 3.03906C155.324 3.10156 155.895 3.35156 156.199 3.78906C156.504 4.22656 156.656 4.87109 156.656 5.72266C156.656 6.06641 156.691 6.31641 156.762 6.47266C156.84 6.62891 156.988 6.79687 157.207 6.97656C157.434 7.15625 157.648 7.35156 157.852 7.5625C158.055 7.76563 158.277 8.08203 158.52 8.51172C158.723 8.85547 158.848 9.28516 158.895 9.80078C158.941 10.3164 158.988 10.7812 159.035 11.1953C159.09 11.6094 159.27 12.043 159.574 12.4961ZM185.66 39.6133C185.348 39.8398 184.996 39.9531 184.605 39.9531C184.215 39.9531 183.828 39.8398 183.445 39.6133C183.32 39.5508 183.227 39.5195 183.164 39.5195C183.078 39.5195 182.863 39.6172 182.52 39.8125C182.176 40 181.797 40.0938 181.383 40.0938C181.133 40.0938 180.84 39.9766 180.504 39.7422C180.176 39.5 179.91 39.3789 179.707 39.3789C179.559 39.3789 179.367 39.4766 179.133 39.6719C178.906 39.8594 178.648 39.9531 178.359 39.9531C178.07 39.9531 177.832 39.9219 177.645 39.8594C177.645 39.6172 177.707 39.3047 177.832 38.9219C177.965 38.5312 178.031 38.2344 178.031 38.0312C178.031 37.8672 177.98 37.707 177.879 37.5508C177.223 36.582 176.871 35.9414 176.824 35.6289C176.824 35.3867 176.879 35.0625 176.988 34.6562C177.105 34.2422 177.164 33.9102 177.164 33.6602C176.969 33.5977 176.727 33.5664 176.438 33.5664C176.188 33.5664 175.801 33.668 175.277 33.8711C174.754 34.0742 174.375 34.2148 174.141 34.293C173.82 34.293 173.465 34.1719 173.074 33.9297C172.684 33.6875 172.398 33.5664 172.219 33.5664C172 33.5977 171.789 33.707 171.586 33.8945C171.391 34.0742 171.184 34.1875 170.965 34.2344C170.918 34.2031 170.832 34.1641 170.707 34.1172C170.59 34.0703 170.438 34.0469 170.25 34.0469C169.992 34.0469 169.801 34.0781 169.676 34.1406C169.738 34.3984 169.77 34.7188 169.77 35.1016C169.715 35.7266 169.602 36.1758 169.43 36.4492C169.242 36.7852 169.148 37.2148 169.148 37.7383C169.148 38.1211 169.195 38.5078 169.289 38.8984C168.828 39.1875 168.43 39.332 168.094 39.332C167.906 39.332 167.586 39.2188 167.133 38.9922C166.938 38.8984 166.793 38.8516 166.699 38.8516C166.551 38.8516 166.359 38.9336 166.125 39.0977C165.891 39.2539 165.648 39.3477 165.398 39.3789C165.117 39.3789 164.805 39.2773 164.461 39.0742C164.117 38.8633 163.824 38.7578 163.582 38.7578C163.379 38.7578 163.09 38.8789 162.715 39.1211C162.348 39.3555 162.027 39.4727 161.754 39.4727C161.684 39.4727 161.523 39.4414 161.273 39.3789C161.273 38.9023 161.352 38.457 161.508 38.043C161.672 37.6289 161.754 37.2734 161.754 36.9766C161.754 36.7344 161.723 36.4531 161.66 36.1328C161.598 35.8125 161.566 35.5508 161.566 35.3477C161.566 35.2539 161.598 34.9492 161.66 34.4336C161.73 33.9961 161.82 33.7109 161.93 33.5781C162.047 33.4375 162.254 33.2109 162.551 32.8984C162.848 32.5859 163.031 32.2812 163.102 31.9844C163.102 31.5078 163.02 30.9219 162.855 30.2266C162.699 29.5312 162.621 28.9805 162.621 28.5742C162.652 28.2148 162.82 27.8711 163.125 27.543C163.43 27.2148 163.582 26.8711 163.582 26.5117V22.9141C163.613 22.6797 163.805 22.2734 164.156 21.6953C164.508 21.1094 164.684 20.5391 164.684 19.9844C164.668 19.6172 164.621 19.1797 164.543 18.6719C164.473 18.1562 164.438 17.793 164.438 17.582C164.438 17.3008 164.488 17.0938 164.59 16.9609C164.652 16.8359 164.762 16.6914 164.918 16.5273C165.082 16.3555 165.203 16.1953 165.281 16.0469C165.359 15.8984 165.398 15.6758 165.398 15.3789C165.398 15.1133 165.309 14.7305 165.129 14.2305C164.957 13.7227 164.871 13.3359 164.871 13.0703C164.871 12.7813 164.969 12.4922 165.164 12.2031C165.75 11.4219 166.145 10.8828 166.348 10.5859C166.551 10.2891 166.684 9.94922 166.746 9.56641C166.746 9.35547 166.688 8.98828 166.57 8.46484C166.461 7.94141 166.406 7.52344 166.406 7.21094C166.406 6.85156 166.473 6.55078 166.605 6.30859C166.77 6.00391 166.922 5.75 167.062 5.54688C167.211 5.33594 167.297 5.20312 167.32 5.14844C167.352 5.08594 167.367 4.94141 167.367 4.71484C167.367 4.55078 167.336 4.3125 167.273 4C167.211 3.6875 167.18 3.44922 167.18 3.28516C167.18 3.01953 167.242 2.77734 167.367 2.55859C167.711 2.55859 168.051 2.61719 168.387 2.73438C168.73 2.84375 169.031 2.89844 169.289 2.89844C169.508 2.875 169.816 2.72656 170.215 2.45312C170.621 2.17188 171 2.03125 171.352 2.03125C171.406 2.04688 171.805 2.17969 172.547 2.42969C173.289 2.67969 173.898 2.80469 174.375 2.80469C174.93 2.64062 175.387 2.50781 175.746 2.40625C176.113 2.29687 176.473 2.21875 176.824 2.17188C177.059 2.17188 177.418 2.21484 177.902 2.30078C178.395 2.37891 178.996 2.41797 179.707 2.41797C179.77 2.54297 179.801 2.73438 179.801 2.99219C179.801 3.17188 179.77 3.49609 179.707 3.96484C179.645 4.43359 179.613 4.84375 179.613 5.19531C179.66 5.375 179.789 5.64844 180 6.01562C180.211 6.38281 180.375 6.73047 180.492 7.05859C180.609 7.37891 180.668 7.76563 180.668 8.21875C180.668 8.67969 180.586 9.15234 180.422 9.63672C180.266 10.1133 180.188 10.4414 180.188 10.6211C180.188 10.8008 180.234 11.0078 180.328 11.2422C180.508 11.625 180.648 11.9297 180.75 12.1562C180.852 12.375 180.926 12.5898 180.973 12.8008C181.027 13.0039 181.055 13.3008 181.055 13.6914C181.055 14.1367 181.223 14.7617 181.559 15.5664C181.895 16.3711 182.094 16.9648 182.156 17.3477C182.156 17.8398 182.074 18.3711 181.91 18.9414C181.754 19.5039 181.676 19.8984 181.676 20.125C181.676 20.2578 181.707 20.4492 181.77 20.6992C181.902 21.0898 182.176 21.6758 182.59 22.457C183.004 23.2305 183.211 23.7812 183.211 24.1094C183.211 24.4297 183.152 24.8711 183.035 25.4336C182.926 25.9883 182.871 26.4297 182.871 26.7578C182.926 27.0859 183.148 27.5625 183.539 28.1875C183.938 28.8125 184.164 29.3594 184.219 29.8281C184.219 30.1484 184.152 30.6094 184.02 31.2109C183.895 31.8125 183.832 32.2773 183.832 32.6055C183.832 32.8555 183.879 33.1289 183.973 33.4258C184.613 34.9336 184.934 36.1484 184.934 37.0703C184.934 38.1406 185.176 38.9883 185.66 39.6133ZM175.723 27.2852C175.676 27.0273 175.59 26.7344 175.465 26.4062C175.348 26.0781 175.273 25.7617 175.242 25.457C175.242 25.0898 175.297 24.7305 175.406 24.3789C175.523 24.0195 175.582 23.7695 175.582 23.6289C175.582 23.3789 175.43 22.9609 175.125 22.375C174.828 21.7891 174.66 21.4414 174.621 21.332C174.621 20.8945 174.723 20.4453 174.926 19.9844C175.137 19.5234 175.242 19.2031 175.242 19.0234C175.242 18.7812 175.094 18.3945 174.797 17.8633C174.5 17.332 174.328 16.9023 174.281 16.5742C174.258 16.3555 174.238 16.0664 174.223 15.707C174.207 15.3477 174.176 14.9844 174.129 14.6172C174.082 14.25 174.004 13.8633 173.895 13.457C173.152 14.3398 172.754 15.1875 172.699 16V18.6367C172.699 18.9727 172.641 19.2656 172.523 19.5156C172.406 19.7656 172.223 20.0742 171.973 20.4414C171.73 20.8086 171.555 21.1055 171.445 21.332C171.352 21.6133 171.305 21.8672 171.305 22.0938C171.305 22.2812 171.352 22.5781 171.445 22.9844C171.547 23.3906 171.598 23.7656 171.598 24.1094C171.574 24.2422 171.445 24.6211 171.211 25.2461C170.984 25.8633 170.871 26.4609 170.871 27.0391C171.051 27.1641 171.258 27.2266 171.492 27.2266C171.664 27.2266 171.957 27.1797 172.371 27.0859C172.785 26.9844 173.086 26.9219 173.273 26.8984C173.625 26.8984 173.988 26.9883 174.363 27.168C174.738 27.3398 175.016 27.4258 175.195 27.4258C175.359 27.4258 175.535 27.3789 175.723 27.2852ZM204.293 33.9062C204.293 34.2422 204.164 34.6406 203.906 35.1016C203.648 35.5625 203.52 35.9492 203.52 36.2617C203.52 36.543 203.574 36.8047 203.684 37.0469C203.801 37.2891 203.859 37.4883 203.859 37.6445C203.859 37.7695 203.812 37.9805 203.719 38.2773C203.492 38.3398 203.188 38.3711 202.805 38.3711C202.672 38.3711 202.484 38.3633 202.242 38.3477C202 38.332 201.82 38.3242 201.703 38.3242C200.984 38.3242 200.133 38.5312 199.148 38.9453C197.797 39.3984 196.949 39.6367 196.605 39.6602C196.238 39.6602 195.902 39.5977 195.598 39.4727C194.613 39.0586 193.605 38.8516 192.574 38.8516C192.348 38.8516 192.109 38.8828 191.859 38.9453C191.281 39.0703 190.672 39.1328 190.031 39.1328C189.078 39.1328 188.312 38.957 187.734 38.6055C188.055 37.5039 188.215 36.5781 188.215 35.8281C188.215 35.2734 188.117 34.6953 187.922 34.0938C187.797 33.75 187.734 33.4297 187.734 33.1328C187.734 32.8594 187.812 32.5352 187.969 32.1602C188.133 31.7852 188.215 31.4688 188.215 31.2109C188.215 30.9609 188.172 30.5977 188.086 30.1211C188.008 29.6367 187.969 29.25 187.969 28.9609C187.969 28.6484 188.016 28.2969 188.109 27.9062C188.305 27.1094 188.402 26.4531 188.402 25.9375C188.402 25.1328 188.242 24.2539 187.922 23.3008C187.664 22.582 187.535 21.7969 187.535 20.9453C187.535 19.9453 187.727 18.9062 188.109 17.8281C188.211 17.5 188.262 17.1641 188.262 16.8203C188.262 16.3984 188.199 15.9648 188.074 15.5195C187.949 15.0664 187.785 14.6055 187.582 14.1367C187.379 13.6602 187.27 13.3867 187.254 13.3164C187.254 13.2227 187.371 12.8945 187.605 12.332C187.84 11.7617 187.977 11.1289 188.016 10.4336C188.016 10.0508 187.969 9.71875 187.875 9.4375C187.781 9.14844 187.637 8.84766 187.441 8.53516C187.246 8.21484 187.098 7.94141 186.996 7.71484C186.902 7.48047 186.844 7.20313 186.82 6.88281C186.82 6.35156 186.945 5.68359 187.195 4.87891C187.453 4.06641 187.582 3.48438 187.582 3.13281C187.871 3.03906 188.191 2.99219 188.543 2.99219C188.941 2.99219 189.406 3.03906 189.938 3.13281C190.656 3.13281 191.52 2.92578 192.527 2.51172C193.191 2.25391 193.77 2.125 194.262 2.125C194.855 2.125 195.445 2.25391 196.031 2.51172C196.133 2.77734 196.184 3 196.184 3.17969C196.184 3.42969 196.109 3.79687 195.961 4.28125C195.82 4.76563 195.734 5.07031 195.703 5.19531C195.703 5.59375 195.82 6.0625 196.055 6.60156C196.297 7.14062 196.418 7.51953 196.418 7.73828C196.418 7.88672 196.371 8.03125 196.277 8.17188C195.895 8.73438 195.703 9.60156 195.703 10.7734C195.828 11.1484 195.891 11.6914 195.891 12.4023C195.891 13.1523 195.793 13.6797 195.598 13.9844C195.379 14.3437 195.27 14.793 195.27 15.332C195.27 15.7539 195.348 16.1523 195.504 16.5273C195.699 16.9336 195.797 17.3164 195.797 17.6758C195.797 17.8008 195.766 18.0586 195.703 18.4492C195.68 18.6445 195.602 18.9102 195.469 19.2461C195.336 19.582 195.27 19.8594 195.27 20.0781C195.27 20.4688 195.348 20.9023 195.504 21.3789C195.73 22.1211 195.844 22.7773 195.844 23.3477C195.844 23.918 195.73 24.3633 195.504 24.6836C195.441 24.8867 195.41 25.0312 195.41 25.1172C195.41 25.1797 195.441 25.4297 195.504 25.8672C195.566 26.3047 195.598 26.8086 195.598 27.3789C195.527 27.9414 195.383 28.3281 195.164 28.5391C194.945 28.75 194.805 28.9688 194.742 29.1953C194.672 29.3906 194.637 29.7266 194.637 30.2031C194.637 30.9141 194.781 31.4609 195.07 31.8438C195.727 31.7422 196.258 31.6914 196.664 31.6914C197.289 31.6914 198.086 31.8203 199.055 32.0781C199.391 32.1719 199.664 32.2188 199.875 32.2188C200.219 32.2188 200.527 32.1172 200.801 31.9141C201.082 31.7031 201.316 31.582 201.504 31.5508C201.895 31.4883 202.152 31.457 202.277 31.457C202.746 31.457 203.273 31.5859 203.859 31.8438C203.859 32.4844 204.004 33.1719 204.293 33.9062ZM244.91 24.8828C244.91 25.0625 244.75 25.4375 244.43 26.0078C244.109 26.5781 243.949 27.0508 243.949 27.4258C243.973 27.6445 244.074 28.0469 244.254 28.6328C244.434 29.2188 244.523 29.6641 244.523 29.9688C244.523 30.3203 244.445 30.5742 244.289 30.7305C244.125 30.9336 243.957 31.1406 243.785 31.3516C243.613 31.5547 243.434 31.7891 243.246 32.0547C243.066 32.3203 242.918 32.582 242.801 32.8398C242.691 33.0977 242.625 33.3555 242.602 33.6133C242.562 33.9102 242.391 34.2148 242.086 34.5273C241.781 34.8398 241.48 35.1602 241.184 35.4883C240.895 35.8086 240.711 36.1914 240.633 36.6367C240.562 37.1055 240.387 37.4336 240.105 37.6211C239.832 37.8008 239.438 37.9688 238.922 38.125C238.414 38.2734 238.059 38.4336 237.855 38.6055C237.629 38.8164 237.266 38.957 236.766 39.0273C236.273 39.0898 235.715 39.1641 235.09 39.25C234.473 39.3359 233.984 39.4727 233.625 39.6602C233.164 39.918 232.766 40.0469 232.43 40.0469C232.18 40.0469 231.555 39.8398 230.555 39.4258C230.414 39.3945 230.082 39.375 229.559 39.3672C229.043 39.3594 228.719 39.3477 228.586 39.332C228.578 39.3398 228.562 39.3516 228.539 39.3672C228.523 39.375 228.508 39.3789 228.492 39.3789C228.062 39.5664 227.68 39.6602 227.344 39.6602C227.148 39.6602 226.637 39.5664 225.809 39.3789C225.379 39.3789 224.914 39.4453 224.414 39.5781C223.914 39.7109 223.562 39.7891 223.359 39.8125C223.359 39.1094 223.07 37.5703 222.492 35.1953C222.492 34.4531 222.648 33.5039 222.961 32.3477C223.273 31.1914 223.438 30.5117 223.453 30.3086C223.453 29.9102 223.309 29.1367 223.02 27.9883C222.73 26.8398 222.586 25.9961 222.586 25.457C222.586 24.9102 222.73 24.2812 223.02 23.5703C223.309 22.8516 223.453 22.3125 223.453 21.9531C223.422 21.5469 223.301 20.9922 223.09 20.2891C222.879 19.5781 222.711 18.8672 222.586 18.1562C222.586 17.3125 222.715 16.4453 222.973 15.5547C223.23 14.6563 223.359 14.0703 223.359 13.7969C223.359 13.4219 223.309 13.0508 223.207 12.6836C223.113 12.3164 222.98 11.8789 222.809 11.3711C222.645 10.8633 222.539 10.4844 222.492 10.2344C222.492 9.75 222.574 9.24219 222.738 8.71094C222.902 8.17188 222.996 7.83203 223.02 7.69141C223.082 7.47266 223.113 7.17187 223.113 6.78906C223.113 6.45313 223.02 6.00391 222.832 5.44141C222.785 5.29297 222.723 5.0625 222.645 4.75C222.574 4.42969 222.539 4.10156 222.539 3.76562C222.539 3.39062 222.586 3.08594 222.68 2.85156C222.945 2.6875 223.203 2.60547 223.453 2.60547C223.727 2.60547 224.137 2.69922 224.684 2.88672C225.238 3.06641 225.645 3.16406 225.902 3.17969C226.262 3.17969 226.645 3.07031 227.051 2.85156C227.465 2.63281 227.816 2.50391 228.105 2.46484C228.434 2.40234 228.707 2.37109 228.926 2.37109C229.34 2.37109 229.758 2.40234 230.18 2.46484C230.602 2.52734 230.887 2.55859 231.035 2.55859C231.371 2.55859 231.754 2.49609 232.184 2.37109C232.941 2.11328 233.566 1.98438 234.059 1.98438C234.582 1.98438 235.047 2.14453 235.453 2.46484C235.773 2.72266 236.273 2.97656 236.953 3.22656C237.633 3.47656 238.059 3.67188 238.23 3.8125C238.27 3.84375 238.57 4.19922 239.133 4.87891C239.703 5.55078 240.301 6.01172 240.926 6.26172C241.363 6.43359 241.668 6.6875 241.84 7.02344C242.02 7.35937 242.133 7.73047 242.18 8.13672C242.234 8.54297 242.297 9.00391 242.367 9.51953C242.438 9.83203 242.637 10.1836 242.965 10.5742C243.301 10.9648 243.469 11.332 243.469 11.6758C243.469 11.9961 243.629 12.4922 243.949 13.1641C244.27 13.8359 244.43 14.3984 244.43 14.8516C244.43 15.2578 244.363 15.7852 244.23 16.4336C244.105 17.0742 244.043 17.5859 244.043 17.9688C244.074 18.1016 244.184 18.3594 244.371 18.7422C244.559 19.125 244.703 19.4609 244.805 19.75C244.906 20.0391 244.957 20.3398 244.957 20.6523C244.957 20.9727 244.891 21.2617 244.758 21.5195C244.602 21.9492 244.523 22.332 244.523 22.668C244.523 23.0117 244.586 23.4336 244.711 23.9336C244.844 24.4336 244.91 24.75 244.91 24.8828ZM237.035 18.3555C237.004 18.1289 236.852 17.7031 236.578 17.0781C236.305 16.4453 236.168 15.8125 236.168 15.1797V14.0312C236.168 13.1094 235.801 12.4844 235.066 12.1562C234.707 12 234.469 11.7852 234.352 11.5117C234.242 11.2383 234.137 10.9805 234.035 10.7383C233.934 10.4961 233.719 10.3281 233.391 10.2344C232.992 10.125 232.637 10.0703 232.324 10.0703C232.012 10.0703 231.695 10.0156 231.375 9.90625C231.281 9.90625 231.145 10.0039 230.965 10.1992C230.793 10.3867 230.672 10.4805 230.602 10.4805C230.703 10.8477 230.91 11.4023 231.223 12.1445C231.543 12.8789 231.738 13.3945 231.809 13.6914C231.871 13.957 231.902 14.1836 231.902 14.3711C231.902 14.7773 231.848 15.2109 231.738 15.6719C231.629 16.1328 231.504 16.5859 231.363 17.0312C231.23 17.4766 231.09 17.9336 230.941 18.4023C230.879 18.6523 230.848 18.875 230.848 19.0703C230.848 19.7969 231.133 20.8203 231.703 22.1406C231.773 22.3672 231.809 22.543 231.809 22.668C231.809 23.0977 231.633 23.8125 231.281 24.8125C230.93 25.8047 230.719 26.418 230.648 26.6523C230.586 26.9805 230.555 27.207 230.555 27.332C230.555 27.8164 230.707 28.5898 231.012 29.6523C231.316 30.707 231.469 31.4531 231.469 31.8906V32.2773C231.625 32.3086 231.961 32.3242 232.477 32.3242C232.867 32.2461 233.227 32 233.555 31.5859C233.883 31.1641 234.195 30.8789 234.492 30.7305C234.758 30.582 234.934 30.4023 235.02 30.1914C235.113 29.9727 235.211 29.7148 235.312 29.418C235.414 29.1133 235.574 28.8633 235.793 28.668C236.012 28.4492 236.121 28.2578 236.121 28.0938C236.121 27.9766 236.074 27.7773 235.98 27.4961C235.887 27.2148 235.84 26.9688 235.84 26.7578C235.84 26.6641 235.871 26.4531 235.934 26.125C236.059 25.6484 236.25 25.1758 236.508 24.707C236.766 24.2383 236.895 23.8633 236.895 23.582C236.895 23.2461 236.805 22.7461 236.625 22.082C236.453 21.4102 236.352 20.9336 236.32 20.6523C236.32 20.2305 236.422 19.7422 236.625 19.1875C236.836 18.6328 236.973 18.3555 237.035 18.3555ZM264.926 7.31641C264.887 7.58984 264.805 7.90234 264.68 8.25391C264.555 8.59766 264.492 8.85937 264.492 9.03906C264.492 9.30469 264.574 9.57812 264.738 9.85938C264.348 10.3672 263.754 10.6211 262.957 10.6211C262.895 10.6055 262.59 10.4766 262.043 10.2344C261.504 9.98437 261.023 9.85938 260.602 9.85938C260.352 9.92188 260.047 10.1055 259.688 10.4102C259.328 10.7148 258.93 10.8672 258.492 10.8672C258.195 10.8359 257.836 10.7578 257.414 10.6328C256.992 10.5 256.648 10.4336 256.383 10.4336C256.086 10.4336 255.766 10.4961 255.422 10.6211C255.422 11.207 255.316 11.7539 255.105 12.2617C254.902 12.7695 254.801 13.0703 254.801 13.1641C254.801 13.3594 254.918 13.6875 255.152 14.1484C255.395 14.6094 255.516 14.9219 255.516 15.0859C255.516 15.25 255.434 15.5195 255.27 15.8945C255.113 16.2695 255.035 16.5625 255.035 16.7734C255.23 16.9297 255.52 17.0078 255.902 17.0078C255.996 17.0078 256.207 16.9922 256.535 16.9609C256.863 16.9297 257.18 16.9141 257.484 16.9141C257.578 16.9375 257.809 17.0078 258.176 17.125C258.551 17.2422 258.848 17.3008 259.066 17.3008C259.293 17.3008 259.566 17.2539 259.887 17.1602C260.207 17.0586 260.766 17.0078 261.562 17.0078C261.562 17.5234 261.465 18.0703 261.27 18.6484C261.082 19.2188 260.988 19.6484 260.988 19.9375C261.074 20.2422 261.254 20.6055 261.527 21.0273C261.809 21.4414 261.949 21.7969 261.949 22.0938V23.6289C261.949 24.0273 261.871 24.2852 261.715 24.4023C261.574 24.4648 261.477 24.4961 261.422 24.4961C261.367 24.4961 261.129 24.4414 260.707 24.332C260.293 24.2148 259.828 24.1562 259.312 24.1562C259.086 24.2031 258.836 24.3438 258.562 24.5781C258.297 24.8125 257.938 24.9297 257.484 24.9297C257.203 24.9297 256.887 24.8984 256.535 24.8359C256.191 24.7656 255.934 24.7305 255.762 24.7305C255.457 24.7305 255.184 24.8281 254.941 25.0234C254.941 25.5078 255.074 26.0742 255.34 26.7227C255.613 27.3711 255.754 27.7344 255.762 27.8125C255.762 27.9688 255.656 28.3789 255.445 29.043C255.234 29.707 255.129 30.2539 255.129 30.6836C255.129 30.9648 255.18 31.2227 255.281 31.457C255.586 31.457 255.902 31.418 256.23 31.3398C256.559 31.2539 256.785 31.2109 256.91 31.2109C257.129 31.2109 257.352 31.3242 257.578 31.5508C257.789 31.7461 257.98 31.8438 258.152 31.8438C258.293 31.8438 258.559 31.7148 258.949 31.457C259.348 31.1992 259.676 31.0703 259.934 31.0703C260.199 31.1172 260.523 31.2891 260.906 31.5859C261.289 31.8828 261.59 32.0312 261.809 32.0312C261.84 32.0312 261.949 32 262.137 31.9375C262.457 31.7891 262.727 31.6641 262.945 31.5625C263.172 31.4531 263.406 31.3672 263.648 31.3047C263.898 31.2422 264.18 31.2109 264.492 31.2109C264.57 31.5781 264.617 32.1172 264.633 32.8281C264.648 33.5391 264.715 34.0078 264.832 34.2344C264.895 34.4375 264.926 34.582 264.926 34.668C264.926 35.2695 264.688 35.9766 264.211 36.7891C264.141 36.8828 264.105 37.0234 264.105 37.2109C264.105 37.375 264.176 37.6172 264.316 37.9375C264.457 38.2578 264.547 38.5117 264.586 38.6992C264.305 39.2461 263.891 39.5195 263.344 39.5195C262.852 39.5195 262.309 39.3281 261.715 38.9453C261.566 38.8516 261.406 38.8047 261.234 38.8047C260.984 38.8047 260.594 38.957 260.062 39.2617C259.531 39.5586 259.07 39.707 258.68 39.707C258.352 39.6758 258.016 39.5117 257.672 39.2148C257.336 38.9102 257.051 38.7578 256.816 38.7578C256.715 38.7578 256.57 38.7891 256.383 38.8516C256.141 38.9297 255.941 39.0039 255.785 39.0742C255.637 39.1445 255.547 39.1797 255.516 39.1797C255.516 39.1797 255.355 39.0703 255.035 38.8516C254.887 38.75 254.758 38.6992 254.648 38.6992C254.492 38.6992 254.062 38.8438 253.359 39.1328C252.656 39.4219 252 39.5664 251.391 39.5664C250.82 39.5117 250.371 39.3789 250.043 39.168C249.723 38.957 249.453 38.8516 249.234 38.8516C249.062 38.8984 248.805 38.9922 248.461 39.1328C248.117 39.2656 247.828 39.332 247.594 39.332C247.375 39.332 247.152 39.2812 246.926 39.1797C246.926 38.4688 247.004 37.8477 247.16 37.3164C247.324 36.7773 247.406 36.3906 247.406 36.1562C247.406 35.8828 247.262 35.4844 246.973 34.9609C246.684 34.4375 246.539 33.9883 246.539 33.6133C246.594 33.4961 246.742 33.1953 246.984 32.7109C247.234 32.2188 247.422 31.793 247.547 31.4336C247.68 31.0742 247.746 30.7305 247.746 30.4023C247.746 30.2773 247.711 30.1016 247.641 29.875C247.57 29.5859 247.426 29.1797 247.207 28.6562C246.988 28.125 246.879 27.7617 246.879 27.5664C246.879 27.4023 246.941 27.2734 247.066 27.1797C247.355 26.9609 247.5 26.5938 247.5 26.0781C247.5 25.6094 247.387 25.1797 247.16 24.7891C247.035 24.5312 246.973 24.1445 246.973 23.6289C246.973 22.5273 247.164 21.3438 247.547 20.0781C247.609 19.8281 247.641 19.6211 247.641 19.457C247.641 19.0664 247.523 18.5703 247.289 17.9688C247.062 17.3594 246.941 17.0078 246.926 16.9141C246.926 16.6797 247.004 16.3711 247.16 15.9883C247.324 15.6055 247.406 15.2578 247.406 14.9453C246.992 13.6797 246.785 12.75 246.785 12.1562C246.785 11.8516 246.832 11.582 246.926 11.3477C246.973 11.1992 247.168 10.7969 247.512 10.1406C247.855 9.48438 248.027 8.95703 248.027 8.55859C248.027 8.31641 247.98 8.07812 247.887 7.84375C247.816 7.69531 247.668 7.43359 247.441 7.05859C247.215 6.68359 247.062 6.42187 246.984 6.27344C246.914 6.11719 246.879 5.95312 246.879 5.78125C246.879 5.57812 246.941 5.36719 247.066 5.14844C247.199 4.85938 247.266 4.60547 247.266 4.38672C247.266 4.29297 247.258 4.17969 247.242 4.04688C247.227 3.91406 247.219 3.82031 247.219 3.76562C247.219 3.58594 247.281 3.40625 247.406 3.22656C247.781 3.22656 248.234 3.16406 248.766 3.03906C249.297 2.91406 249.738 2.85156 250.09 2.85156C250.293 2.90625 250.605 3.02344 251.027 3.20312C251.449 3.38281 251.809 3.47266 252.105 3.47266C252.34 3.47266 252.629 3.42578 252.973 3.33203C253.262 3.22266 253.641 3.02734 254.109 2.74609C254.578 2.46484 254.953 2.32422 255.234 2.32422C255.43 2.32422 255.652 2.37109 255.902 2.46484C256.559 2.75391 257.148 2.89844 257.672 2.89844C258.086 2.89844 258.504 2.80078 258.926 2.60547C259.16 2.51172 259.398 2.46484 259.641 2.46484C259.906 2.46484 260.258 2.54688 260.695 2.71094C261.141 2.86719 261.48 2.96094 261.715 2.99219C261.973 2.99219 262.352 2.92188 262.852 2.78125C263.359 2.63281 263.73 2.55859 263.965 2.55859C264.129 2.55859 264.305 2.60547 264.492 2.69922C264.586 2.98828 264.633 3.24609 264.633 3.47266C264.633 3.75391 264.566 4.08203 264.434 4.45703C264.309 4.82422 264.215 5.00781 264.152 5.00781C264.184 5.1875 264.32 5.50781 264.562 5.96875C264.805 6.42187 264.926 6.87109 264.926 7.31641ZM288.141 10.7148C287.961 10.8867 287.809 11.0391 287.684 11.1719C287.559 11.3047 287.43 11.418 287.297 11.5117C287.172 11.5977 286.91 11.7656 286.512 12.0156C286.176 12.2422 285.824 12.3555 285.457 12.3555C285.355 12.3555 285.156 12.3398 284.859 12.3086C284.562 12.2773 284.266 12.2617 283.969 12.2617C283.656 12.3086 283.422 12.3711 283.266 12.4492C283.109 12.5195 282.918 12.6484 282.691 12.8359C282.473 13.0156 282.211 13.207 281.906 13.4102C281.555 13.3008 281.352 13.0664 281.297 12.707C281.242 12.3398 281.191 11.9609 281.145 11.5703C281.098 11.1797 280.918 10.9297 280.605 10.8203C280.309 10.7188 280.113 10.5859 280.02 10.4219C279.934 10.2578 279.836 10.0781 279.727 9.88281C279.625 9.6875 279.422 9.51953 279.117 9.37891C278.75 9.18359 278.43 9.08594 278.156 9.08594C277.695 9.08594 277.219 9.45313 276.727 10.1875C276.492 10.5469 276.188 10.8633 275.812 11.1367C275.445 11.4102 275.203 11.7031 275.086 12.0156C275.023 12.1406 274.992 12.3164 274.992 12.543C274.992 12.707 275.062 12.9688 275.203 13.3281C275.352 13.6875 275.426 14.0352 275.426 14.3711C275.426 15.0117 275.484 15.4453 275.602 15.6719C275.719 15.8906 276.027 16 276.527 16C276.863 16 277.137 16.0391 277.348 16.1172C277.559 16.1875 277.82 16.3281 278.133 16.5391C278.453 16.7422 278.766 16.9297 279.07 17.1016C279.344 17.2344 279.602 17.3008 279.844 17.3008C280.07 17.3008 280.375 17.2461 280.758 17.1367C281.148 17.0195 281.449 16.9609 281.66 16.9609C281.98 16.9609 282.27 17.0742 282.527 17.3008C282.949 17.6289 283.258 18.043 283.453 18.543C283.656 19.043 283.828 19.3477 283.969 19.457C284.086 19.5352 284.363 19.625 284.801 19.7266C285.238 19.8203 285.582 19.9297 285.832 20.0547C286.09 20.1719 286.27 20.3867 286.371 20.6992C286.496 21.043 286.57 21.4648 286.594 21.9648C286.617 22.4648 286.719 22.8438 286.898 23.1016C287.375 23.625 287.613 24.2031 287.613 24.8359C287.613 24.9531 287.582 25.1445 287.52 25.4102C287.496 25.4805 287.387 25.7695 287.191 26.2773C286.996 26.7852 286.898 27.1523 286.898 27.3789C286.898 27.5273 286.93 27.6719 286.992 27.8125C287.156 28.0391 287.309 28.2539 287.449 28.457C287.598 28.6523 287.734 28.875 287.859 29.125C287.984 29.375 288.047 29.6406 288.047 29.9219C288.047 30.2109 287.984 30.4805 287.859 30.7305C287.68 31.168 287.395 31.6055 287.004 32.043C286.613 32.4727 286.418 32.8047 286.418 33.0391C286.418 33.1328 286.426 33.2969 286.441 33.5312C286.457 33.7656 286.465 33.9531 286.465 34.0938C286.465 34.8828 286.289 35.4102 285.938 35.6758C285.688 35.9023 285.324 36.0352 284.848 36.0742C284.371 36.1133 284.047 36.1914 283.875 36.3086C283.719 36.3867 283.625 36.6328 283.594 37.0469C283.57 37.4609 283.5 37.8008 283.383 38.0664C283.273 38.332 282.988 38.543 282.527 38.6992C281.91 38.9258 281.414 39.0391 281.039 39.0391C280.812 39.0391 280.547 38.9844 280.242 38.875C279.945 38.7578 279.621 38.6992 279.27 38.6992C278.973 38.7617 278.676 38.9141 278.379 39.1562C278.09 39.3906 277.855 39.5586 277.676 39.6602C277.496 39.7617 277.18 39.8125 276.727 39.8125C275.969 39.7188 275.406 39.5352 275.039 39.2617C274.68 38.9883 274.344 38.8516 274.031 38.8516C273.758 38.8516 273.418 38.9258 273.012 39.0742C272.613 39.2148 272.328 39.2852 272.156 39.2852C271.906 39.2852 271.684 39.1719 271.488 38.9453C271.316 38.7422 271.137 38.5117 270.949 38.2539C270.77 37.9961 270.617 37.7969 270.492 37.6562C270.375 37.5156 270.211 37.3672 270 37.2109C269.672 37 269.438 36.7812 269.297 36.5547C269.156 36.3281 269.035 36.0039 268.934 35.582C268.84 35.1523 268.746 34.7852 268.652 34.4805C268.543 34.1445 268.27 33.793 267.832 33.4258C267.402 33.0586 267.078 32.7109 266.859 32.3828C266.648 32.0469 266.543 31.5156 266.543 30.7891C266.902 30.75 267.156 30.668 267.305 30.543C267.453 30.4102 267.66 30.1875 267.926 29.875C268.191 29.5547 268.418 29.3945 268.605 29.3945C269.832 29.3398 270.633 29.0352 271.008 28.4805C271.445 27.7617 272.148 27.25 273.117 26.9453C273.281 27.1562 273.449 27.3242 273.621 27.4492C273.793 27.5664 273.898 27.6875 273.938 27.8125C273.984 27.9375 274.047 28.2891 274.125 28.8672C274.188 29.2969 274.277 29.5938 274.395 29.7578C274.512 29.9219 274.676 30.0977 274.887 30.2852C275.098 30.4727 275.215 30.6562 275.238 30.8359C275.309 31.3984 275.449 31.6992 275.66 31.7383C275.754 31.7383 275.91 31.7109 276.129 31.6562C276.355 31.5938 276.504 31.5586 276.574 31.5508C276.816 31.5508 277.109 31.6172 277.453 31.75C277.797 31.875 278.051 31.9375 278.215 31.9375C278.426 31.9375 278.633 31.8555 278.836 31.6914C279.445 31.1758 279.75 30.6172 279.75 30.0156C279.75 29.6406 279.684 29.3047 279.551 29.0078C279.488 28.8203 279.457 28.6914 279.457 28.6211C279.457 28.4492 279.52 28.2031 279.645 27.8828C279.777 27.5625 279.844 27.2969 279.844 27.0859C279.844 26.7891 279.762 26.5 279.598 26.2188C279.418 25.8906 279.219 25.6992 279 25.6445C278.789 25.582 278.574 25.5195 278.355 25.457C278.145 25.3867 277.969 25.2109 277.828 24.9297C277.461 24.1953 276.934 23.8281 276.246 23.8281C276.051 23.8281 275.664 23.8906 275.086 24.0156C274.68 24.0156 274.402 23.9648 274.254 23.8633C274.113 23.7539 273.902 23.5547 273.621 23.2656C273.34 22.9766 273.047 22.793 272.742 22.7148C272.359 22.5977 272.066 22.4414 271.863 22.2461C271.66 22.0508 271.43 21.7422 271.172 21.3203C270.922 20.8984 270.707 20.582 270.527 20.3711C270.285 20.082 269.887 19.8672 269.332 19.7266C268.777 19.5781 268.336 19.4453 268.008 19.3281C267.688 19.2109 267.504 18.9492 267.457 18.543C267.457 18.0977 267.535 17.6094 267.691 17.0781C267.855 16.5391 267.938 16.1797 267.938 16C267.938 15.7109 267.84 15.4727 267.645 15.2852C267.262 14.8867 267.07 14.5 267.07 14.125C267.07 13.7422 267.312 13.1523 267.797 12.3555C267.953 12.1133 268.031 11.8242 268.031 11.4883C268.031 11.1523 267.91 10.7578 267.668 10.3047C267.426 9.84375 267.293 9.56641 267.27 9.47266C267.27 9.08203 267.391 8.74219 267.633 8.45312C267.875 8.16406 268.426 7.58984 269.285 6.73047C269.652 6.36328 269.91 6.02734 270.059 5.72266C270.215 5.41797 270.371 5.08203 270.527 4.71484C270.691 4.34766 270.934 3.98047 271.254 3.61328C271.91 2.87891 272.676 2.51172 273.551 2.51172C273.668 2.51172 273.879 2.51953 274.184 2.53516C274.488 2.55078 274.727 2.55859 274.898 2.55859C275.305 2.55859 275.812 2.42188 276.422 2.14844C277.031 1.875 277.484 1.73828 277.781 1.73828C277.867 1.73828 278.059 1.77344 278.355 1.84375C278.715 1.84375 279.16 1.77344 279.691 1.63281C280.223 1.48438 280.625 1.41016 280.898 1.41016C281.305 1.41016 281.672 1.55469 282 1.84375C282.883 2.58594 283.715 3.14453 284.496 3.51953C284.816 3.67578 285.023 3.87891 285.117 4.12891C285.211 4.37109 285.305 4.73828 285.398 5.23047C285.5 5.72266 285.633 6.08203 285.797 6.30859C285.984 6.55078 286.266 6.82031 286.641 7.11719C287.023 7.41406 287.297 7.66016 287.461 7.85547C287.633 8.05078 287.719 8.28516 287.719 8.55859C287.719 8.97266 287.859 9.69141 288.141 10.7148ZM310.301 12.2031C310.363 12.3984 310.395 12.6562 310.395 12.9766C310.395 13.4375 310.176 13.9805 309.738 14.6055C309.309 15.2305 309.031 15.793 308.906 16.293C308.844 16.6055 308.812 16.8281 308.812 16.9609C308.812 17.2344 308.875 17.5859 309 18.0156C309.133 18.4375 309.199 18.8047 309.199 19.1172C309.199 19.6016 309.07 20.1641 308.812 20.8047C308.719 21.0859 308.641 21.3281 308.578 21.5312C308.516 21.7266 308.438 21.8945 308.344 22.0352C308.25 22.1758 308.102 22.3125 307.898 22.4453C307.703 22.5703 307.398 22.7266 306.984 22.9141C306.906 22.9375 306.625 22.9922 306.141 23.0781C305.656 23.1641 305.254 23.2695 304.934 23.3945C304.621 23.5117 304.316 23.7188 304.02 24.0156C303.035 24.9453 302.137 25.4102 301.324 25.4102C301.16 25.4102 300.922 25.3789 300.609 25.3164C299.977 25.2148 299.609 25.1641 299.508 25.1641C298.961 25.1641 298.574 25.293 298.348 25.5508C298.348 25.8164 298.309 26.0898 298.23 26.3711C298.16 26.6445 298.066 26.9219 297.949 27.2031C297.832 27.4844 297.758 27.6875 297.727 27.8125C297.727 28.0625 297.828 28.5117 298.031 29.1602C298.242 29.8008 298.348 30.3086 298.348 30.6836C298.348 31.1211 298.254 31.6602 298.066 32.3008C297.879 32.9336 297.766 33.4219 297.727 33.7656C297.727 34.1406 297.828 34.5703 298.031 35.0547C298.242 35.5391 298.348 35.957 298.348 36.3086C298.316 36.3086 298.301 36.7383 298.301 37.5977C298.301 38.2383 298.316 38.7812 298.348 39.2266C297.691 39.4531 297.102 39.5664 296.578 39.5664C296.102 39.5664 295.684 39.4531 295.324 39.2266C295.09 39.0703 294.867 38.9922 294.656 38.9922C294.484 38.9922 294.246 39.0938 293.941 39.2969C293.637 39.4922 293.348 39.6289 293.074 39.707C292.973 39.7305 292.797 39.7617 292.547 39.8008C292.305 39.8398 292.047 39.8594 291.773 39.8594C291.156 39.8594 290.691 39.7461 290.379 39.5195C290.543 39.168 290.625 38.6406 290.625 37.9375C290.625 37.4922 290.578 36.8945 290.484 36.1445C290.391 35.3945 290.34 34.9688 290.332 34.8672C290.332 34.3047 290.492 33.6992 290.812 33.0508C291.133 32.4023 291.293 31.8867 291.293 31.5039C291.293 31.1211 291.246 30.7266 291.152 30.3203C291.059 29.9141 290.918 29.4062 290.73 28.7969C290.551 28.1797 290.418 27.6914 290.332 27.332C290.332 26.7461 290.434 26.043 290.637 25.2227C290.848 24.4023 290.953 23.7109 290.953 23.1484C290.953 22.4688 290.758 21.6328 290.367 20.6406C289.984 19.6406 289.766 18.8125 289.711 18.1562C289.711 17.6797 289.754 17.2656 289.84 16.9141C289.934 16.5547 290.074 16.1289 290.262 15.6367C290.449 15.1445 290.602 14.6836 290.719 14.2539C290.844 13.8242 290.922 13.3672 290.953 12.8828C290.953 12.4063 290.902 11.9883 290.801 11.6289C290.707 11.2695 290.566 10.8867 290.379 10.4805C290.199 10.0664 290.074 9.75 290.004 9.53125C289.934 9.3125 289.898 9.05469 289.898 8.75781C289.898 8.375 289.996 7.92578 290.191 7.41016C290.512 6.52734 290.672 5.66406 290.672 4.82031C290.672 4.49219 290.605 3.96094 290.473 3.22656C291.059 2.70313 292.102 2.27344 293.602 1.9375C294.102 1.9375 294.805 2.07422 295.711 2.34766C296.617 2.62109 297.242 2.77344 297.586 2.80469C297.953 2.80469 298.293 2.78125 298.605 2.73438C298.918 2.67969 299.363 2.58984 299.941 2.46484C300.52 2.33203 301.012 2.23438 301.418 2.17188C302.098 2.17188 302.59 2.22656 302.895 2.33594C303.207 2.4375 303.645 2.625 304.207 2.89844C304.402 2.99219 304.789 3.08984 305.367 3.19141C305.953 3.29297 306.43 3.48438 306.797 3.76562C307.086 4 307.312 4.30859 307.477 4.69141C307.641 5.06641 307.793 5.59766 307.934 6.28516C308.074 6.97266 308.16 7.37891 308.191 7.50391C308.262 7.86328 308.438 8.3125 308.719 8.85156C309 9.38281 309.297 9.94141 309.609 10.5273C309.922 11.1055 310.152 11.6641 310.301 12.2031ZM302.625 15.1328C302.812 14.1797 302.906 13.6992 302.906 13.6914C302.906 13.3789 302.73 13.0273 302.379 12.6367C302.137 12.3555 302.008 11.9258 301.992 11.3477C301.977 10.7617 301.82 10.3438 301.523 10.0938C301.18 9.83594 300.859 9.70703 300.562 9.70703C300.445 9.70703 300.297 9.73047 300.117 9.77734C299.945 9.81641 299.773 9.84375 299.602 9.85938C299.375 9.85938 299.09 9.84375 298.746 9.8125C298.402 9.78125 298.16 9.76562 298.02 9.76562C297.949 9.89062 297.914 10.082 297.914 10.3398C297.914 10.5977 298 10.9922 298.172 11.5234C298.352 12.0469 298.441 12.4687 298.441 12.7891C298.41 13.0312 298.258 13.4453 297.984 14.0312C297.719 14.6094 297.586 15.0742 297.586 15.4258C297.586 16.1602 297.762 16.7031 298.113 17.0547C298.363 16.9609 298.684 16.9141 299.074 16.9141C299.418 16.9141 299.914 16.9922 300.562 17.1484C301.625 17.1484 302.312 16.4766 302.625 15.1328ZM334.301 26.2773C334.301 26.7539 334.09 27.3242 333.668 27.9883C333.254 28.6523 333.047 29.2305 333.047 29.7227C333.047 30.5273 332.918 31.293 332.66 32.0195C332.41 32.7383 332.285 33.2695 332.285 33.6133C332.254 34.0117 332.133 34.3242 331.922 34.5508C331.711 34.7695 331.414 35.0078 331.031 35.2656C330.648 35.5156 330.395 35.7344 330.27 35.9219C330.137 36.1406 330.07 36.332 330.07 36.4961C330.07 36.5273 330.078 36.5938 330.094 36.6953C330.117 36.7969 330.129 36.9062 330.129 37.0234C330.129 37.3906 330 37.8398 329.742 38.3711C329.359 39.1367 328.734 39.5195 327.867 39.5195C327.703 39.5195 327.453 39.5039 327.117 39.4727C326.781 39.4414 326.535 39.4258 326.379 39.4258C326.082 39.4258 325.789 39.5547 325.5 39.8125C325.211 40.0703 324.957 40.2617 324.738 40.3867C324.527 40.5195 324.082 40.6289 323.402 40.7148C322.605 40.7148 321.949 40.6211 321.434 40.4336C320.918 40.2539 320.48 40.0117 320.121 39.707C319.762 39.4023 319.449 39.1328 319.184 38.8984C318.762 38.5781 318.266 38.418 317.695 38.418C317.312 38.418 316.977 38.3711 316.688 38.2773C315.969 38.0898 315.488 37.1602 315.246 35.4883C315.191 35.2227 314.863 34.7695 314.262 34.1289C313.66 33.4805 313.246 33.0195 313.02 32.7461C312.793 32.4648 312.656 32.1133 312.609 31.6914C312.539 31.0039 312.504 30.5586 312.504 30.3555C312.504 30.0977 312.602 29.3906 312.797 28.2344C312.797 27.6562 312.734 27.1602 312.609 26.7461C312.484 26.332 312.301 25.8047 312.059 25.1641C311.824 24.5156 311.688 24.0195 311.648 23.6758C311.648 23.0742 311.781 22.3906 312.047 21.625C312.32 20.8516 312.457 20.2734 312.457 19.8906C312.457 19.4219 312.246 18.7031 311.824 17.7344C311.41 16.7656 311.176 16.0586 311.121 15.6133C311.121 15.2852 311.184 14.9922 311.309 14.7344C311.441 14.4766 311.656 14.1406 311.953 13.7266C312.258 13.3047 312.473 12.9688 312.598 12.7188C312.73 12.4687 312.797 12.1875 312.797 11.875C312.742 11.4609 312.672 11.0586 312.586 10.668C312.5 10.2773 312.457 9.79687 312.457 9.22656C312.457 8.78906 312.59 8.39062 312.855 8.03125C313.121 7.66406 313.469 7.29297 313.898 6.91797C314.328 6.53516 314.602 6.26563 314.719 6.10938C314.891 5.89063 315.043 5.52344 315.176 5.00781C315.309 4.48438 315.492 4.08594 315.727 3.8125C316.055 3.41406 316.527 3.09766 317.145 2.86328C317.762 2.62891 318.375 2.51172 318.984 2.51172C319.391 2.51172 319.848 2.33203 320.355 1.97266C320.863 1.60547 321.336 1.35156 321.773 1.21094C322.398 0.992188 322.957 0.882812 323.449 0.882812C324.035 0.882812 324.613 1.02734 325.184 1.31641C325.41 1.43359 325.664 1.64844 325.945 1.96094C326.227 2.27344 326.5 2.51953 326.766 2.69922C327.039 2.87109 327.438 2.98438 327.961 3.03906C329.82 3.1875 330.75 4.00391 330.75 5.48828C330.75 6.04297 330.977 6.50391 331.43 6.87109C331.891 7.23828 332.289 7.72266 332.625 8.32422C332.781 8.59766 332.859 8.88281 332.859 9.17969C332.859 9.3125 332.844 9.48438 332.812 9.69531C332.781 9.90625 332.766 10.0703 332.766 10.1875C332.766 10.5547 332.926 10.957 333.246 11.3945C333.309 11.582 333.34 11.7422 333.34 11.875C333.34 12.1562 333.262 12.5664 333.105 13.1055C332.957 13.6367 332.875 13.9453 332.859 14.0312C332.859 14.6016 332.91 15.0898 333.012 15.4961C333.121 15.8945 333.273 16.3711 333.469 16.9258C333.664 17.4727 333.781 17.8984 333.82 18.2031C333.82 18.7969 333.684 19.4883 333.41 20.2773C333.137 21.0664 333 21.6406 333 22C333 22.4375 333.203 23.1445 333.609 24.1211C334.023 25.0977 334.254 25.8164 334.301 26.2773ZM326.566 18.2617C326.566 17.5039 326.215 16.3828 325.512 14.8984C325.48 14.8281 325.402 14.6875 325.277 14.4766C325.16 14.2656 325.082 14.1094 325.043 14.0078C325.004 13.8984 324.984 13.7617 324.984 13.5977C324.984 13.3867 325.082 12.957 325.277 12.3086C325.277 12.043 325.25 11.8164 325.195 11.6289C325.148 11.4336 325.062 11.1875 324.938 10.8906C324.82 10.5937 324.727 10.3281 324.656 10.0938C324.656 9.00781 324.207 8.46484 323.309 8.46484C322.754 8.46484 322.195 8.67187 321.633 9.08594C320.828 9.6875 320.426 10.3281 320.426 11.0078C320.426 11.2266 320.492 11.6094 320.625 12.1562C320.625 12.7109 320.426 13.2891 320.027 13.8906C319.629 14.4844 319.395 14.8984 319.324 15.1328C319.23 15.4687 319.184 15.7734 319.184 16.0469C319.184 16.5625 319.453 17.25 319.992 18.1094C320.156 18.375 320.238 18.6172 320.238 18.8359C320.238 19.0703 320.117 19.4141 319.875 19.8672C319.633 20.3203 319.512 20.7109 319.512 21.0391C319.582 21.3203 319.617 21.5273 319.617 21.6602C319.617 21.9648 319.547 22.3477 319.406 22.8086C319.273 23.2695 319.199 23.5586 319.184 23.6758C319.184 24.457 319.551 25.5469 320.285 26.9453C320.402 27.1484 320.504 27.3203 320.59 27.4609C320.684 27.6016 320.75 27.7305 320.789 27.8477C320.836 27.957 320.859 28.1055 320.859 28.293C320.859 28.6367 320.781 29.0664 320.625 29.582C320.523 29.9102 320.473 30.1992 320.473 30.4492C320.473 31.4648 321 32.1992 322.055 32.6523C322.555 32.9102 323.004 33.0391 323.402 33.0391C323.965 33.0391 324.383 32.7031 324.656 32.0312C324.555 31.8516 324.504 31.6914 324.504 31.5508C324.504 31.3477 324.652 31.1484 324.949 30.9531C325.246 30.75 325.434 30.5508 325.512 30.3555C325.605 30.1289 325.684 29.6641 325.746 28.9609C325.809 28.2578 325.906 27.6992 326.039 27.2852C326.359 26.4023 326.52 25.7461 326.52 25.3164C326.52 24.8555 326.379 24.3594 326.098 23.8281C325.84 23.4297 325.711 22.9648 325.711 22.4336C325.711 22.3164 325.719 22.1484 325.734 21.9297C325.75 21.7109 325.758 21.543 325.758 21.4258C325.758 21.293 325.727 21.1016 325.664 20.8516C325.664 20.3672 325.805 19.8477 326.086 19.293C326.375 18.7305 326.535 18.3867 326.566 18.2617ZM355.523 6.30859C355.492 6.48047 355.355 6.74219 355.113 7.09375C354.879 7.44531 354.762 7.72656 354.762 7.9375C354.762 7.99219 354.793 8.12109 354.855 8.32422C354.98 8.57422 355.043 8.82812 355.043 9.08594C355.043 9.28125 354.949 9.69922 354.762 10.3398C354.512 10.4023 354.32 10.4336 354.188 10.4336C353.984 10.4336 353.727 10.3711 353.414 10.2461C353.102 10.1133 352.863 10.0469 352.699 10.0469C352.512 10.0469 352.285 10.1914 352.02 10.4805C351.754 10.7695 351.5 10.9141 351.258 10.9141C351.07 10.9141 350.797 10.8594 350.438 10.75C350.086 10.6328 349.75 10.5742 349.43 10.5742C349.109 11.5117 348.949 12.0547 348.949 12.2031C348.949 12.4766 349.031 12.7344 349.195 12.9766C349.383 13.2656 349.477 13.5547 349.477 13.8438C349.477 14.2266 349.316 14.707 348.996 15.2852C348.551 16.1367 348.328 16.9492 348.328 17.7227C348.359 17.8555 348.469 18.1445 348.656 18.5898C348.844 19.0273 348.996 19.4492 349.113 19.8555C349.23 20.2617 349.289 20.6406 349.289 20.9922C349.25 21.4531 349.168 21.875 349.043 22.2578C348.918 22.6328 348.855 22.9297 348.855 23.1484C348.871 23.5469 348.969 24.0117 349.148 24.543C349.336 25.0664 349.43 25.5312 349.43 25.9375C349.367 26.2422 349.219 26.707 348.984 27.332C348.75 27.957 348.613 28.5 348.574 28.9609C348.574 29.4219 348.672 29.8906 348.867 30.3672C349.07 30.8438 349.195 31.2695 349.242 31.6445C349.242 32.1992 349.137 32.7695 348.926 33.3555C348.723 33.9336 348.621 34.293 348.621 34.4336C348.637 34.6289 348.73 34.9766 348.902 35.4766C349.082 35.9688 349.18 36.4219 349.195 36.8359C349.195 37.1172 349.188 37.4375 349.172 37.7969C349.156 38.1562 349.148 38.4922 349.148 38.8047C348.875 38.9922 348.586 39.0859 348.281 39.0859C348.195 39.0859 348.02 39.0781 347.754 39.0625C347.488 39.0469 347.215 39.0391 346.934 39.0391C346.699 39.0703 346.41 39.2227 346.066 39.4961C345.723 39.7695 345.371 39.9062 345.012 39.9062C344.691 39.875 344.348 39.7227 343.98 39.4492C343.621 39.1758 343.359 39.0391 343.195 39.0391C343.047 39.0859 342.91 39.1328 342.785 39.1797C342.66 39.2266 342.488 39.2734 342.27 39.3203C342.051 39.3594 341.75 39.3789 341.367 39.3789C341.273 39.0898 341.227 38.832 341.227 38.6055C341.227 38.3789 341.297 38.0664 341.438 37.668C341.586 37.2617 341.66 36.9023 341.66 36.5898C341.66 36.207 341.57 35.8906 341.391 35.6406C341.219 35.3828 341.117 35.1875 341.086 35.0547C341.086 34.7344 341.199 34.3086 341.426 33.7773C341.66 33.2383 341.785 32.8984 341.801 32.7578C341.801 32.4453 341.762 32.1602 341.684 31.9023C341.605 31.6367 341.48 31.3125 341.309 30.9297C341.145 30.5391 341.031 30.2422 340.969 30.0391C340.914 29.8359 340.887 29.5703 340.887 29.2422C340.949 28.8281 341.102 28.4102 341.344 27.9883C341.586 27.5664 341.707 27.1211 341.707 26.6523C341.684 26.4883 341.562 26.1172 341.344 25.5391C341.133 24.9609 341.027 24.4062 341.027 23.875C341.066 23.5859 341.203 23.2266 341.438 22.7969C341.68 22.3594 341.801 22.0312 341.801 21.8125C341.801 21.6953 341.691 21.4922 341.473 21.2031C341.254 20.9062 341.078 20.625 340.945 20.3594C340.812 20.0938 340.746 19.7773 340.746 19.4102C340.746 19.3086 340.777 19.1016 340.84 18.7891C340.934 18.4062 341.039 18.0273 341.156 17.6523C341.281 17.2695 341.371 16.9453 341.426 16.6797C341.48 16.4141 341.508 16.1094 341.508 15.7656C341.477 15.6484 341.41 15.4336 341.309 15.1211C341.207 14.8086 341.125 14.4961 341.062 14.1836C341.008 13.8711 340.98 13.5469 340.98 13.2109C341.012 12.9609 341.098 12.5352 341.238 11.9336C341.387 11.3242 341.461 10.8711 341.461 10.5742C341.273 10.4805 341.098 10.4336 340.934 10.4336C340.785 10.4336 340.641 10.4609 340.5 10.5156C340.359 10.5625 340.168 10.6406 339.926 10.75C339.691 10.8594 339.531 10.9297 339.445 10.9609C339.234 10.9609 339.004 10.8906 338.754 10.75C338.504 10.6016 338.27 10.5273 338.051 10.5273C337.988 10.5273 337.832 10.5586 337.582 10.6211C336.863 10.8477 336.43 10.9609 336.281 10.9609C336.07 10.9609 335.812 10.8984 335.508 10.7734C335.508 10.3125 335.586 9.85547 335.742 9.40234C335.906 8.94141 335.988 8.58203 335.988 8.32422C335.988 8.01172 335.867 7.65625 335.625 7.25781C335.391 6.85938 335.273 6.52734 335.273 6.26172C335.594 5.26953 335.754 4.70703 335.754 4.57422C335.754 4.48047 335.711 4.32422 335.625 4.10547C335.547 3.88672 335.508 3.70703 335.508 3.56641C335.508 3.31641 335.605 3.07813 335.801 2.85156C335.957 2.94531 336.18 2.99219 336.469 2.99219C336.609 2.99219 336.867 2.9375 337.242 2.82812C337.625 2.71094 338.008 2.65234 338.391 2.65234C338.641 2.66797 338.973 2.75391 339.387 2.91016C339.809 3.05859 340.148 3.13281 340.406 3.13281C340.617 3.13281 340.965 3.00781 341.449 2.75781C341.934 2.5 342.355 2.37109 342.715 2.37109C342.918 2.39453 343.188 2.45703 343.523 2.55859C343.859 2.65234 344.133 2.69922 344.344 2.69922C344.406 2.68359 344.52 2.64062 344.684 2.57031C344.855 2.5 345.008 2.44922 345.141 2.41797C345.281 2.38672 345.465 2.37109 345.691 2.37109C345.793 2.38672 346.016 2.43359 346.359 2.51172C346.703 2.58203 346.973 2.63281 347.168 2.66406C347.371 2.6875 347.598 2.69922 347.848 2.69922C347.973 2.68359 348.184 2.625 348.48 2.52344C348.785 2.42188 349.039 2.37109 349.242 2.37109C349.453 2.37109 349.676 2.41797 349.91 2.51172C350.23 2.64453 350.457 2.74219 350.59 2.80469C350.73 2.86719 350.844 2.90625 350.93 2.92188C351.023 2.9375 351.211 2.94531 351.492 2.94531C351.703 2.90625 351.965 2.79297 352.277 2.60547C352.59 2.41797 352.906 2.32422 353.227 2.32422C353.898 2.54297 354.328 2.65234 354.516 2.65234C354.609 2.65234 354.82 2.62109 355.148 2.55859C355.148 2.94141 355.066 3.30469 354.902 3.64844C354.746 3.99219 354.668 4.26953 354.668 4.48047C354.668 4.78516 354.809 5.12109 355.09 5.48828C355.379 5.84766 355.523 6.12109 355.523 6.30859ZM378.188 10.7148C378.008 10.8867 377.855 11.0391 377.73 11.1719C377.605 11.3047 377.477 11.418 377.344 11.5117C377.219 11.5977 376.957 11.7656 376.559 12.0156C376.223 12.2422 375.871 12.3555 375.504 12.3555C375.402 12.3555 375.203 12.3398 374.906 12.3086C374.609 12.2773 374.312 12.2617 374.016 12.2617C373.703 12.3086 373.469 12.3711 373.312 12.4492C373.156 12.5195 372.965 12.6484 372.738 12.8359C372.52 13.0156 372.258 13.207 371.953 13.4102C371.602 13.3008 371.398 13.0664 371.344 12.707C371.289 12.3398 371.238 11.9609 371.191 11.5703C371.145 11.1797 370.965 10.9297 370.652 10.8203C370.355 10.7188 370.16 10.5859 370.066 10.4219C369.98 10.2578 369.883 10.0781 369.773 9.88281C369.672 9.6875 369.469 9.51953 369.164 9.37891C368.797 9.18359 368.477 9.08594 368.203 9.08594C367.742 9.08594 367.266 9.45313 366.773 10.1875C366.539 10.5469 366.234 10.8633 365.859 11.1367C365.492 11.4102 365.25 11.7031 365.133 12.0156C365.07 12.1406 365.039 12.3164 365.039 12.543C365.039 12.707 365.109 12.9688 365.25 13.3281C365.398 13.6875 365.473 14.0352 365.473 14.3711C365.473 15.0117 365.531 15.4453 365.648 15.6719C365.766 15.8906 366.074 16 366.574 16C366.91 16 367.184 16.0391 367.395 16.1172C367.605 16.1875 367.867 16.3281 368.18 16.5391C368.5 16.7422 368.812 16.9297 369.117 17.1016C369.391 17.2344 369.648 17.3008 369.891 17.3008C370.117 17.3008 370.422 17.2461 370.805 17.1367C371.195 17.0195 371.496 16.9609 371.707 16.9609C372.027 16.9609 372.316 17.0742 372.574 17.3008C372.996 17.6289 373.305 18.043 373.5 18.543C373.703 19.043 373.875 19.3477 374.016 19.457C374.133 19.5352 374.41 19.625 374.848 19.7266C375.285 19.8203 375.629 19.9297 375.879 20.0547C376.137 20.1719 376.316 20.3867 376.418 20.6992C376.543 21.043 376.617 21.4648 376.641 21.9648C376.664 22.4648 376.766 22.8438 376.945 23.1016C377.422 23.625 377.66 24.2031 377.66 24.8359C377.66 24.9531 377.629 25.1445 377.566 25.4102C377.543 25.4805 377.434 25.7695 377.238 26.2773C377.043 26.7852 376.945 27.1523 376.945 27.3789C376.945 27.5273 376.977 27.6719 377.039 27.8125C377.203 28.0391 377.355 28.2539 377.496 28.457C377.645 28.6523 377.781 28.875 377.906 29.125C378.031 29.375 378.094 29.6406 378.094 29.9219C378.094 30.2109 378.031 30.4805 377.906 30.7305C377.727 31.168 377.441 31.6055 377.051 32.043C376.66 32.4727 376.465 32.8047 376.465 33.0391C376.465 33.1328 376.473 33.2969 376.488 33.5312C376.504 33.7656 376.512 33.9531 376.512 34.0938C376.512 34.8828 376.336 35.4102 375.984 35.6758C375.734 35.9023 375.371 36.0352 374.895 36.0742C374.418 36.1133 374.094 36.1914 373.922 36.3086C373.766 36.3867 373.672 36.6328 373.641 37.0469C373.617 37.4609 373.547 37.8008 373.43 38.0664C373.32 38.332 373.035 38.543 372.574 38.6992C371.957 38.9258 371.461 39.0391 371.086 39.0391C370.859 39.0391 370.594 38.9844 370.289 38.875C369.992 38.7578 369.668 38.6992 369.316 38.6992C369.02 38.7617 368.723 38.9141 368.426 39.1562C368.137 39.3906 367.902 39.5586 367.723 39.6602C367.543 39.7617 367.227 39.8125 366.773 39.8125C366.016 39.7188 365.453 39.5352 365.086 39.2617C364.727 38.9883 364.391 38.8516 364.078 38.8516C363.805 38.8516 363.465 38.9258 363.059 39.0742C362.66 39.2148 362.375 39.2852 362.203 39.2852C361.953 39.2852 361.73 39.1719 361.535 38.9453C361.363 38.7422 361.184 38.5117 360.996 38.2539C360.816 37.9961 360.664 37.7969 360.539 37.6562C360.422 37.5156 360.258 37.3672 360.047 37.2109C359.719 37 359.484 36.7812 359.344 36.5547C359.203 36.3281 359.082 36.0039 358.98 35.582C358.887 35.1523 358.793 34.7852 358.699 34.4805C358.59 34.1445 358.316 33.793 357.879 33.4258C357.449 33.0586 357.125 32.7109 356.906 32.3828C356.695 32.0469 356.59 31.5156 356.59 30.7891C356.949 30.75 357.203 30.668 357.352 30.543C357.5 30.4102 357.707 30.1875 357.973 29.875C358.238 29.5547 358.465 29.3945 358.652 29.3945C359.879 29.3398 360.68 29.0352 361.055 28.4805C361.492 27.7617 362.195 27.25 363.164 26.9453C363.328 27.1562 363.496 27.3242 363.668 27.4492C363.84 27.5664 363.945 27.6875 363.984 27.8125C364.031 27.9375 364.094 28.2891 364.172 28.8672C364.234 29.2969 364.324 29.5938 364.441 29.7578C364.559 29.9219 364.723 30.0977 364.934 30.2852C365.145 30.4727 365.262 30.6562 365.285 30.8359C365.355 31.3984 365.496 31.6992 365.707 31.7383C365.801 31.7383 365.957 31.7109 366.176 31.6562C366.402 31.5938 366.551 31.5586 366.621 31.5508C366.863 31.5508 367.156 31.6172 367.5 31.75C367.844 31.875 368.098 31.9375 368.262 31.9375C368.473 31.9375 368.68 31.8555 368.883 31.6914C369.492 31.1758 369.797 30.6172 369.797 30.0156C369.797 29.6406 369.73 29.3047 369.598 29.0078C369.535 28.8203 369.504 28.6914 369.504 28.6211C369.504 28.4492 369.566 28.2031 369.691 27.8828C369.824 27.5625 369.891 27.2969 369.891 27.0859C369.891 26.7891 369.809 26.5 369.645 26.2188C369.465 25.8906 369.266 25.6992 369.047 25.6445C368.836 25.582 368.621 25.5195 368.402 25.457C368.191 25.3867 368.016 25.2109 367.875 24.9297C367.508 24.1953 366.98 23.8281 366.293 23.8281C366.098 23.8281 365.711 23.8906 365.133 24.0156C364.727 24.0156 364.449 23.9648 364.301 23.8633C364.16 23.7539 363.949 23.5547 363.668 23.2656C363.387 22.9766 363.094 22.793 362.789 22.7148C362.406 22.5977 362.113 22.4414 361.91 22.2461C361.707 22.0508 361.477 21.7422 361.219 21.3203C360.969 20.8984 360.754 20.582 360.574 20.3711C360.332 20.082 359.934 19.8672 359.379 19.7266C358.824 19.5781 358.383 19.4453 358.055 19.3281C357.734 19.2109 357.551 18.9492 357.504 18.543C357.504 18.0977 357.582 17.6094 357.738 17.0781C357.902 16.5391 357.984 16.1797 357.984 16C357.984 15.7109 357.887 15.4727 357.691 15.2852C357.309 14.8867 357.117 14.5 357.117 14.125C357.117 13.7422 357.359 13.1523 357.844 12.3555C358 12.1133 358.078 11.8242 358.078 11.4883C358.078 11.1523 357.957 10.7578 357.715 10.3047C357.473 9.84375 357.34 9.56641 357.316 9.47266C357.316 9.08203 357.438 8.74219 357.68 8.45312C357.922 8.16406 358.473 7.58984 359.332 6.73047C359.699 6.36328 359.957 6.02734 360.105 5.72266C360.262 5.41797 360.418 5.08203 360.574 4.71484C360.738 4.34766 360.98 3.98047 361.301 3.61328C361.957 2.87891 362.723 2.51172 363.598 2.51172C363.715 2.51172 363.926 2.51953 364.23 2.53516C364.535 2.55078 364.773 2.55859 364.945 2.55859C365.352 2.55859 365.859 2.42188 366.469 2.14844C367.078 1.875 367.531 1.73828 367.828 1.73828C367.914 1.73828 368.105 1.77344 368.402 1.84375C368.762 1.84375 369.207 1.77344 369.738 1.63281C370.27 1.48438 370.672 1.41016 370.945 1.41016C371.352 1.41016 371.719 1.55469 372.047 1.84375C372.93 2.58594 373.762 3.14453 374.543 3.51953C374.863 3.67578 375.07 3.87891 375.164 4.12891C375.258 4.37109 375.352 4.73828 375.445 5.23047C375.547 5.72266 375.68 6.08203 375.844 6.30859C376.031 6.55078 376.312 6.82031 376.688 7.11719C377.07 7.41406 377.344 7.66016 377.508 7.85547C377.68 8.05078 377.766 8.28516 377.766 8.55859C377.766 8.97266 377.906 9.69141 378.188 10.7148Z" fill="white"/>
</svg>
