<svg width="331" height="34" viewBox="0 0 331 34" fill="none" xmlns="http://www.w3.org/2000/svg">
<path d="M38.32 1.92C38.32 1.94666 38.32 1.98667 38.32 2.04L38.36 2.12C38.36 2.30667 38.2933 2.48 38.16 2.64C38.0267 2.8 37.84 2.97333 37.6 3.16C37.4133 3.32 37.2933 3.44 37.24 3.52C36.5733 4.48 35.6533 5.94666 34.48 7.92C33.8133 9.04 33.2933 9.90667 32.92 10.52C32.7867 10.7067 32.6267 11.04 32.44 11.52C32.2267 12 32.04 12.3733 31.88 12.64C31.1867 13.7867 29.9467 15.4933 28.16 17.76C26.4267 19.9733 25.0933 21.84 24.16 23.36C23.2267 24.88 22.6133 26.5067 22.32 28.24C22.2667 28.5333 22.2133 28.72 22.16 28.8C22.1067 28.8533 21.96 28.92 21.72 29L21.6 29.04C21.5733 29.1467 21.4667 29.3067 21.28 29.52C21.0933 29.7067 20.9867 29.8 20.96 29.8C20.96 29.9867 20.92 30.2267 20.84 30.52C20.76 30.76 20.7067 30.96 20.68 31.12C20.5733 31.44 20.3467 31.6 20 31.6C19.68 31.6 19.52 31.44 19.52 31.12C19.6533 30.56 19.72 30 19.72 29.44C19.72 28.8267 19.6533 28.2267 19.52 27.64C19.3867 27.0533 19.16 26.3067 18.84 25.4C18.76 25.16 18.68 24.9067 18.6 24.64C18.5467 24.48 18.52 24.32 18.52 24.16C18.52 24 18.56 23.72 18.64 23.32C18.72 22.84 18.76 22.44 18.76 22.12C18.68 21.64 18.6 21.16 18.52 20.68C18.2 18.8667 18.04 17.4933 18.04 16.56C18.04 16.1067 18.0667 15.6667 18.12 15.24C17.5867 14.7333 17.2 14.0667 16.96 13.24C16.8 13.48 16.52 13.92 16.12 14.56C15.6933 15.3067 15.32 15.9067 15 16.36C14.68 16.7867 14.3067 17.1867 13.88 17.56C13.48 18.4133 12.68 19.6 11.48 21.12C10.6 22.2667 9.97333 23.1467 9.6 23.76C9.17333 24.5067 8.78667 25.6667 8.44 27.24C8.17333 28.4133 7.93333 29.2667 7.72 29.8C7.69333 30.04 7.53333 30.1867 7.24 30.24C7.18667 30.5333 7.05333 30.8533 6.84 31.2C6.65333 31.52 6.44 31.68 6.2 31.68C6.09333 31.68 6 31.6533 5.92 31.6C5.76 31.52 5.68 31.3733 5.68 31.16C5.68 31.0267 5.72 30.84 5.8 30.6C5.8 30.4933 5.81333 30.4133 5.84 30.36C5.92 30.0667 5.96 29.76 5.96 29.44C5.98667 29.0933 6 28.6133 6 28C6 27.84 6.01333 27.6933 6.04 27.56C6.04 27.4 6.04 27.2533 6.04 27.12C6.04 26.6133 5.98667 26.16 5.88 25.76C5.77333 25.3333 5.6 24.8 5.36 24.16C5.12 23.52 4.93333 22.9867 4.8 22.56C4.69333 22.1067 4.64 21.6133 4.64 21.08C4.64 21 4.65333 20.9067 4.68 20.8C4.68 20.7467 4.68 20.72 4.68 20.72C4.68 20.64 4.64 20.5067 4.56 20.32L4.44 20.08C4.06667 19.68 3.82667 19.1867 3.72 18.6C3.61333 17.9867 3.56 17.0667 3.56 15.84L3.4 15.12L3.16 14.88C2.68 14.4267 2.30667 14.0267 2.04 13.68C1.77333 13.3067 1.62667 12.9467 1.6 12.6C1.6 11.9333 1.64 11.0133 1.72 9.84C1.77333 8.88 1.8 8.2 1.8 7.8C1.8 7.08 1.72 6.41333 1.56 5.8C1.42667 5.18667 1.17333 4.58667 0.8 4C0.64 3.84 0.56 3.62667 0.56 3.36C0.56 3.04 0.68 2.76 0.92 2.52C1.16 2.25333 1.49333 2.12 1.92 2.12C2.13333 2.12 2.36 2.16 2.6 2.24C2.86667 2.08 3.08 1.97333 3.24 1.92C3.42667 1.84 3.8 1.70666 4.36 1.52C4.57333 1.46666 4.92 1.38667 5.4 1.28C5.90667 1.17333 6.42667 1.09333 6.96 1.04C6.98667 1.04 7.05333 1.04 7.16 1.04C7.29333 1.01333 7.41333 0.999999 7.52 0.999999C7.78667 0.999999 8 1.06667 8.16 1.2C8.34667 1.30667 8.44 1.52 8.44 1.84C8.38667 2.02667 8.33333 2.21333 8.28 2.4C8.17333 2.61333 8.08 2.89333 8 3.24C7.92 3.56 7.8 4.14667 7.64 5C7.50667 5.26667 7.33333 5.72 7.12 6.36C6.93333 6.97333 6.84 7.65333 6.84 8.4C6.84 9.36 7.06667 10.2 7.52 10.92C7.6 11.3733 7.64 11.6533 7.64 11.76C7.64 11.92 7.56 12.0933 7.4 12.28C7.16 12.5733 6.93333 12.88 6.72 13.2C6.74667 13.44 6.86667 13.76 7.08 14.16C7.32 14.6667 7.44 15.0667 7.44 15.36C7.44 15.5467 7.4 15.7333 7.32 15.92C7.10667 16.5333 7 17.16 7 17.8C7 17.88 7.01333 17.9867 7.04 18.12C7.04 18.2 7.04 18.2933 7.04 18.4C7.06667 18.5067 7.09333 18.6133 7.12 18.72C7.17333 18.8533 7.2 19.0533 7.2 19.32C7.2 19.5067 7.16 19.7733 7.08 20.12C6.97333 20.4667 6.92 20.7333 6.92 20.92C6.92 20.9467 6.93333 20.9867 6.96 21.04C6.96 21.0933 6.96 21.1467 6.96 21.2C7.01333 21.5467 7.10667 21.8267 7.24 22.04C7.34667 22.2533 7.44 22.48 7.52 22.72L8.24 21.16L9.72 19.16C10.0933 18.7333 10.36 18.2933 10.52 17.84C10.68 17.36 10.8133 16.7733 10.92 16.08C11.1067 14.9333 11.36 14.0933 11.68 13.56C12.1333 12.8133 12.5733 11.92 13 10.88C13.4267 9.81333 13.76 8.85333 14 8C14.24 7.12 14.4533 6.42667 14.64 5.92C14.8533 5.41333 15.1733 4.70667 15.6 3.8C15.68 3.32 15.8133 2.94666 16 2.68C16.1867 2.38667 16.4933 2.12 16.92 1.88C17.0533 1.8 17.2933 1.76 17.64 1.76C17.8533 1.76 18.0533 1.77333 18.24 1.8C18.8 1.8 19.6 1.6 20.64 1.2C21.0933 1.04 21.4 0.933332 21.56 0.879998C21.6933 0.693332 21.8667 0.599999 22.08 0.599999C22.3467 0.599999 22.5067 0.733332 22.56 0.999999C22.6933 1.61333 22.76 2.08 22.76 2.4C22.76 2.45333 22.7467 2.52 22.72 2.6C22.72 2.68 22.72 2.74667 22.72 2.8L22.68 2.96C22.6267 3.41333 22.56 3.68 22.48 3.76C22.3467 4.18666 22.1067 4.8 21.76 5.6C21.3067 6.64 21.0133 7.42667 20.88 7.96C20.88 8.28 21.12 8.73333 21.6 9.32C22.0533 9.85333 22.28 10.2667 22.28 10.56C22.28 10.5867 22.2667 10.6133 22.24 10.64C22.24 10.6933 22.24 10.7333 22.24 10.76C22.16 11.0267 22.0533 11.3733 21.92 11.8C21.6 12.68 21.44 13.3467 21.44 13.8C21.44 13.9867 21.4667 14.1733 21.52 14.36C21.6 14.76 21.64 15.2267 21.64 15.76C21.64 15.9467 21.64 16.24 21.64 16.64C21.6133 16.9333 21.6 17.2133 21.6 17.48C21.6 18.0667 21.6667 18.5733 21.8 19C21.8533 19.16 21.96 19.4 22.12 19.72C22.44 20.44 22.6 21.0267 22.6 21.48C22.6267 21.48 22.68 21.4667 22.76 21.44C22.8667 21.3867 22.9333 21.36 22.96 21.36C23.5467 19.68 24.0667 18.3333 24.52 17.32C25 16.28 25.6533 15.2267 26.48 14.16C26.5067 13.12 26.76 12.12 27.24 11.16C27.72 10.1733 28.44 8.98667 29.4 7.6L29.84 6.96C30.2667 6.32 30.6 5.30667 30.84 3.92C31.0533 2.8 31.28 1.97333 31.52 1.44L31.48 1.48C31.6133 1.29333 31.6933 1.17333 31.72 1.12C31.88 0.853331 32 0.679998 32.08 0.599999C32.1867 0.519998 32.36 0.479998 32.6 0.479998C32.6533 0.479998 32.7333 0.479998 32.84 0.479998C33.0267 0.506664 33.16 0.519998 33.24 0.519998C33.5333 0.519998 33.9333 0.506664 34.44 0.479998C34.92 0.479998 35.2533 0.479998 35.44 0.479998C36.2933 0.479998 36.96 0.586665 37.44 0.799999C37.6267 0.853331 37.8 0.986665 37.96 1.2C38.1467 1.41333 38.2667 1.65333 38.32 1.92ZM57.0034 29.12C57.0034 29.4933 56.8701 29.88 56.6034 30.28C56.3368 30.6533 56.0168 30.8533 55.6434 30.88C55.4568 30.88 55.3368 30.7733 55.2834 30.56C55.2301 30.32 55.2034 29.9733 55.2034 29.52C55.2034 28.1333 55.0968 27.2933 54.8834 27C54.5634 26.5467 54.3501 26.1333 54.2434 25.76C54.1368 25.36 54.0834 24.9467 54.0834 24.52C54.0834 23.7733 54.0301 23.2 53.9234 22.8C53.8168 22.3733 53.5901 21.9333 53.2434 21.48C53.0834 21.3467 52.7634 21.2667 52.2834 21.24C51.8301 21.1867 50.9501 21.16 49.6434 21.16C49.0034 21.16 48.4968 21.1333 48.1234 21.08C47.6168 21 47.0701 20.96 46.4834 20.96C45.4434 20.96 44.4434 21.08 43.4834 21.32C42.5501 21.5333 41.8434 21.8533 41.3634 22.28C41.2834 22.68 41.1768 22.9467 41.0434 23.08C40.9368 23.1867 40.7768 23.2667 40.5634 23.32C40.3234 23.3733 40.1101 23.4667 39.9234 23.6C39.7368 23.7333 39.5368 23.9867 39.3234 24.36C39.3234 24.7067 39.2968 25.1467 39.2434 25.68C39.1901 26.1867 39.0434 26.8933 38.8034 27.8C38.8834 28.2267 38.9234 28.7333 38.9234 29.32C38.9234 30.1733 38.8301 30.9733 38.6434 31.72C38.4568 32.4667 38.2168 32.9067 37.9234 33.04C37.6834 33.1467 37.4434 33.2 37.2034 33.2C36.7501 33.2 36.5234 33.08 36.5234 32.84C36.5234 32.4133 36.5901 31.8133 36.7234 31.04C36.8301 30.32 36.8834 29.8133 36.8834 29.52C36.9368 28.96 37.0301 28.1467 37.1634 27.08C37.4034 25.1333 37.5234 23.6933 37.5234 22.76C37.5234 21.96 37.4568 21.1467 37.3234 20.32C37.2168 19.4933 37.0168 18.5467 36.7234 17.48C36.7234 17.24 36.7768 16.8267 36.8834 16.24C37.0168 15.6533 37.1634 15.0267 37.3234 14.36C37.4834 13.6667 37.6434 13.0133 37.8034 12.4C37.9901 11.76 38.1368 11.32 38.2434 11.08C38.4034 10.7067 38.4834 10.32 38.4834 9.92C38.4834 9.49333 38.3501 8.90667 38.0834 8.16C37.8434 7.46667 37.7234 6.94666 37.7234 6.6C37.7234 6.12 37.8701 5.65333 38.1634 5.2C38.2968 4.98667 38.3634 4.73333 38.3634 4.44C38.3634 4.33333 38.3368 4.13333 38.2834 3.84C38.2568 3.62667 38.2434 3.46667 38.2434 3.36C38.2434 2.96 38.4701 2.72 38.9234 2.64L39.1634 2.6C39.9368 2.44 40.6168 2.30666 41.2034 2.2C41.7901 2.06666 42.4301 1.92 43.1234 1.76C43.8168 1.57333 44.4301 1.41333 44.9634 1.28C45.5234 1.12 45.8968 0.986665 46.0834 0.879998C46.3768 0.719998 46.7634 0.586665 47.2434 0.479998C47.7234 0.346665 48.1634 0.279998 48.5634 0.279998C48.9901 0.279998 49.3101 0.346665 49.5234 0.479998C49.7901 0.639998 50.1101 1.08 50.4834 1.8C50.7501 2.38666 50.9901 2.8 51.2034 3.04C51.9768 3.73333 52.5634 4.46667 52.9634 5.24C53.3901 5.98667 53.8301 6.94667 54.2834 8.12C54.5768 8.89333 54.7234 9.77333 54.7234 10.76C54.7234 11.2133 54.6968 11.8267 54.6434 12.6C54.5634 13.4267 54.5234 14.0533 54.5234 14.48C54.5234 14.8533 54.5501 15.2267 54.6034 15.6C54.6034 15.68 54.5901 15.8 54.5634 15.96C54.5101 16.1733 54.4834 16.3467 54.4834 16.48C54.4834 16.6667 54.5368 16.8267 54.6434 16.96C54.7234 18 54.8568 18.9867 55.0434 19.92C55.2301 20.8267 55.4834 21.9733 55.8034 23.36C56.4168 25.76 56.8168 27.68 57.0034 29.12ZM50.1634 17.72C49.6301 17.0533 49.2568 16.3467 49.0434 15.6C48.8301 14.8533 48.6301 13.9067 48.4434 12.76C48.3101 11.8533 48.1768 11.1067 48.0434 10.52C47.9101 9.90667 47.6834 9.29333 47.3634 8.68C47.0701 8.04 46.6301 7.42667 46.0434 6.84C45.4568 6.25333 44.7101 5.72 43.8034 5.24C43.8834 5.50667 44.0434 5.89333 44.2834 6.4C44.6034 7.09333 44.7634 7.62667 44.7634 8C44.7634 8.18666 44.7368 8.37333 44.6834 8.56C44.3368 8.69333 44.1634 8.89333 44.1634 9.16C44.1634 9.18666 44.1768 9.22667 44.2034 9.28C44.2034 9.33333 44.2034 9.37333 44.2034 9.4C44.2568 9.61333 44.2834 9.82667 44.2834 10.04C44.2834 10.4667 44.2034 10.88 44.0434 11.28C43.8834 11.6533 43.6301 12.12 43.2834 12.68C42.9634 13.24 42.7234 13.72 42.5634 14.12C42.4034 14.4933 42.3234 14.88 42.3234 15.28C42.3234 15.84 42.3234 16.4533 42.3234 17.12C42.3501 17.76 42.3901 18.16 42.4434 18.32C43.0568 18.16 43.8301 18.04 44.7634 17.96C45.7234 17.88 46.9101 17.8267 48.3234 17.8C49.1768 17.7733 49.7901 17.7467 50.1634 17.72ZM76.9344 22.88C76.9344 23.12 76.881 23.36 76.7744 23.6C76.6944 23.84 76.5477 24.16 76.3344 24.56L76.2144 24.8C75.9744 25.4133 75.7744 26.0267 75.6144 26.64C75.6144 26.6933 75.6277 26.7467 75.6544 26.8C75.6544 26.8533 75.6544 26.9067 75.6544 26.96C75.6544 27.3067 75.4677 27.7733 75.0944 28.36C74.9344 28.68 74.7877 28.9333 74.6544 29.12C74.5477 29.28 74.3744 29.4533 74.1344 29.64C73.7877 30.12 73.441 30.4667 73.0944 30.68C72.7744 30.8667 72.281 31.08 71.6144 31.32C70.8144 31.5867 70.161 31.84 69.6544 32.08C69.6277 32.08 69.5744 32.08 69.4944 32.08C69.4144 32.1067 69.3477 32.12 69.2944 32.12C68.8144 32.12 68.2944 32.0133 67.7344 31.8C67.1744 31.56 66.8144 31.3067 66.6544 31.04C66.4677 30.8267 66.321 30.6933 66.2144 30.64C66.1077 30.56 65.961 30.48 65.7744 30.4C65.561 30.3467 65.3877 30.2933 65.2544 30.24C64.5077 29.8667 63.881 29.24 63.3744 28.36C62.8944 27.4533 62.3877 26.3067 61.8544 24.92C61.3477 23.64 60.9744 22.84 60.7344 22.52C60.601 22.3333 60.3477 22.0133 59.9744 21.56C59.121 20.6 58.6277 19.84 58.4944 19.28C58.1477 18.4 57.8944 17.64 57.7344 17C57.5744 16.36 57.4944 15.7467 57.4944 15.16C57.4944 14.6267 57.5477 14.0933 57.6544 13.56C57.761 13 57.9477 12.1733 58.2144 11.08C58.2677 10.7867 58.2944 10.4933 58.2944 10.2C58.2944 10.0667 58.2944 9.93333 58.2944 9.8V9.44C58.2944 9.04 58.3877 8.61333 58.5744 8.16C58.7344 7.65333 59.0944 6.93333 59.6544 6C59.681 5.94667 59.7877 5.76 59.9744 5.44C60.1077 5.2 60.2144 4.82667 60.2944 4.32C60.3477 3.86666 60.441 3.50666 60.5744 3.24C60.7077 2.97333 60.9744 2.74667 61.3744 2.56C61.881 2.26666 62.961 1.96 64.6144 1.64C66.9344 1.18667 68.8677 0.679999 70.4144 0.119998C71.801 0.439999 72.801 0.866665 73.4144 1.4C73.8944 1.8 74.2144 2.12 74.3744 2.36C74.5344 2.57333 74.6944 2.86667 74.8544 3.24C74.9877 3.56 75.0944 3.81333 75.1744 4C75.361 4.4 75.6277 4.86666 75.9744 5.4C76.241 5.85333 76.4277 6.24 76.5344 6.56C76.6677 6.85333 76.7344 7.26667 76.7344 7.8C76.7344 7.82667 76.6544 7.90667 76.4944 8.04C76.3344 8.17333 76.1744 8.30666 76.0144 8.44C75.881 8.54667 75.681 8.69333 75.4144 8.88C75.1744 9.04 75.001 9.14667 74.8944 9.2C74.7077 9.30666 74.2544 9.48 73.5344 9.72C72.8144 9.96 72.2944 10.08 71.9744 10.08C71.9477 10.08 71.8944 10.0667 71.8144 10.04C71.7877 10.04 71.7744 10.04 71.7744 10.04C71.2677 9.82667 70.9077 9.61333 70.6944 9.4C70.481 9.16 70.3744 8.94667 70.3744 8.76C70.321 8.70667 70.241 8.62667 70.1344 8.52C70.0544 8.38667 69.8944 8.2 69.6544 7.96C69.441 7.72 69.241 7.50667 69.0544 7.32C68.8677 7.10667 68.721 6.94667 68.6144 6.84C68.4277 6.62667 68.2944 6.44 68.2144 6.28C68.161 6.12 68.121 5.93333 68.0944 5.72C68.0677 5.50667 68.0144 5.32 67.9344 5.16C67.881 5 67.761 4.81333 67.5744 4.6C67.0677 5.10667 66.681 5.64 66.4144 6.2C66.1477 6.76 65.881 7.48 65.6144 8.36C65.3744 9.10667 65.161 9.69333 64.9744 10.12C64.8944 10.2 64.8144 10.28 64.7344 10.36C64.5477 10.5733 64.401 10.7467 64.2944 10.88C64.1877 11.0133 64.1344 11.1333 64.1344 11.24C63.4944 12.7333 63.1744 14.3067 63.1744 15.96C63.1744 17.3467 63.401 18.88 63.8544 20.56C63.9877 21.0933 64.1744 21.9067 64.4144 23C64.7077 24.4933 65.0144 25.72 65.3344 26.68C65.681 27.64 66.2144 28.56 66.9344 29.44C66.961 29.4667 67.001 29.5333 67.0544 29.64C67.401 30.1467 67.7344 30.4533 68.0544 30.56C68.2677 30.64 68.5077 30.7467 68.7744 30.88C68.9877 31.0133 69.161 31.08 69.2944 31.08C69.2944 31.08 69.321 31.08 69.3744 31.08C69.4544 31.0533 69.5077 31.04 69.5344 31.04C69.9877 30.9067 70.4944 30.72 71.0544 30.48C71.641 30.24 71.9344 30.0533 71.9344 29.92C72.121 29.6533 72.441 29.2667 72.8944 28.76C73.2677 28.36 73.5077 28.08 73.6144 27.92C73.7477 27.76 73.8277 27.5733 73.8544 27.36C73.9077 27.12 73.9477 26.84 73.9744 26.52C74.001 26.0933 74.041 25.8267 74.0944 25.72C74.521 24.84 74.7344 23.8133 74.7344 22.64C74.7344 22.2667 74.6944 21.6667 74.6144 20.84C74.561 20.04 74.5344 19.44 74.5344 19.04C74.5344 18.9867 74.5477 18.8267 74.5744 18.56C74.5744 18.32 74.5744 18.1733 74.5744 18.12C74.041 18.0667 73.561 18.04 73.1344 18.04C72.1477 18.04 71.441 18.2133 71.0144 18.56L70.6944 18.76C70.2677 19.0267 69.8944 19.24 69.5744 19.4C69.2544 19.5333 68.921 19.6 68.5744 19.6C68.1744 19.5467 67.9744 19.3067 67.9744 18.88C67.9744 18.6667 68.0277 18.3867 68.1344 18.04C68.161 17.9333 68.1744 17.88 68.1744 17.88C68.1744 17.3733 68.5477 16.9867 69.2944 16.72C70.041 16.4267 71.081 16.1333 72.4144 15.84C72.761 15.76 73.081 15.6933 73.3744 15.64C73.6944 15.56 73.9477 15.4667 74.1344 15.36C74.3477 15.2267 74.6544 15 75.0544 14.68C75.081 14.68 75.121 14.68 75.1744 14.68C75.281 14.6533 75.361 14.64 75.4144 14.64C75.7344 14.64 76.041 14.8133 76.3344 15.16C77.1344 16.2267 77.5344 17.44 77.5344 18.8C77.5344 19.4667 77.401 20.5067 77.1344 21.92C77.001 22.48 76.9344 22.8 76.9344 22.88ZM98.2969 3.16C98.1902 3.10667 98.0835 3.08 97.9769 3.08C97.7635 3.08 97.4569 3.18666 97.0569 3.4C96.8702 3.50667 96.7369 3.57333 96.6569 3.6C96.7102 3.62666 96.7369 3.68 96.7369 3.76C96.7369 3.89333 96.6169 4.05333 96.3769 4.24C96.1102 4.32 95.7902 4.36 95.4169 4.36C95.2302 4.36 94.9235 4.34667 94.4969 4.32C94.0169 4.26667 93.6702 4.24 93.4569 4.24C92.7902 4.24 92.2035 4.38667 91.6969 4.68C91.1369 5 90.4435 5.16 89.6169 5.16C89.4035 5.16 89.1235 5.14667 88.7769 5.12C88.4035 5.09333 88.1102 5.08 87.8969 5.08C87.5769 5.08 87.2835 5.10667 87.0169 5.16C86.9902 5.16 86.9235 5.24 86.8169 5.4C86.7369 5.53333 86.6702 5.61333 86.6169 5.64C86.6969 6.36 86.7369 6.92 86.7369 7.32C86.7369 8.2 86.5369 9.04 86.1369 9.84C85.7369 10.88 85.5102 12.1333 85.4569 13.6C86.3102 13.5733 87.1102 13.4933 87.8569 13.36C88.6035 13.2267 89.4169 13.0133 90.2969 12.72C90.8835 12.4267 91.6835 12.28 92.6969 12.28C93.7369 12.28 94.8702 12.4267 96.0969 12.72C96.2835 12.8 96.3769 12.9333 96.3769 13.12C96.3769 13.2533 96.3369 13.4 96.2569 13.56C96.2035 13.6933 96.1502 13.7867 96.0969 13.84L95.6969 14C94.7902 14.3733 94.0702 14.56 93.5369 14.56C93.2969 14.56 93.0435 14.5333 92.7769 14.48C92.5902 14.48 92.3502 14.6267 92.0569 14.92C91.7902 15.16 91.5769 15.32 91.4169 15.4C91.0969 15.64 90.6835 15.76 90.1769 15.76C89.5102 15.76 89.0969 15.7867 88.9369 15.84C88.1902 16.1333 87.6169 16.3867 87.2169 16.6C86.8169 16.7867 86.5635 16.9733 86.4569 17.16C86.1635 17.72 85.9502 18.1467 85.8169 18.44C85.7102 18.7067 85.5769 19.0533 85.4169 19.48C85.4169 19.5067 85.3235 19.7733 85.1369 20.28C85.1369 20.28 85.1235 20.28 85.0969 20.28C85.0969 20.2533 85.0969 20.24 85.0969 20.24C85.0702 20.24 85.0569 20.28 85.0569 20.36C85.0569 20.44 85.0702 20.5733 85.0969 20.76C85.1235 21 85.1369 21.16 85.1369 21.24C85.1369 21.3467 85.1102 21.4 85.0569 21.4C85.0302 21.4 85.0169 21.4 85.0169 21.4C85.0169 21.8533 84.9769 22.36 84.8969 22.92C84.8435 23.48 84.7235 24.2533 84.5369 25.24C84.4035 26.0667 84.2969 26.76 84.2169 27.32C84.1369 27.88 84.0969 28.3867 84.0969 28.84C84.0969 29.5067 84.2169 29.9467 84.4569 30.16C84.5902 30.2133 84.7502 30.24 84.9369 30.24C85.0969 30.24 85.3235 30.2133 85.6169 30.16C85.8835 30.1067 86.0569 30.08 86.1369 30.08C86.4835 30.0267 86.9769 29.9733 87.6169 29.92C87.7769 29.8933 88.0169 29.8667 88.3369 29.84C88.4969 29.7867 88.6969 29.64 88.9369 29.4C89.2035 29.1067 89.4169 28.96 89.5769 28.96C90.1902 28.96 91.0702 28.8 92.2169 28.48C93.1502 28.24 93.8569 28.0933 94.3369 28.04C94.4969 28.0133 94.7102 27.8667 94.9769 27.6C95.2435 27.3333 95.4569 27.2 95.6169 27.2C96.2835 27.2 96.6169 27.5067 96.6169 28.12C96.6169 28.2533 96.5902 28.4 96.5369 28.56C96.4569 28.7733 96.2835 28.9067 96.0169 28.96C95.7769 29.0133 95.4169 29.04 94.9369 29.04C94.7235 29.0933 94.3102 29.1733 93.6969 29.28C93.0835 29.3867 92.6302 29.4667 92.3369 29.52C92.0169 29.6 91.7102 29.6667 91.4169 29.72C90.5635 29.9067 89.9235 30.08 89.4969 30.24C89.2569 30.5067 89.0569 30.68 88.8969 30.76C88.7369 30.84 88.4835 30.88 88.1369 30.88C88.0035 30.96 87.8035 31.1067 87.5369 31.32C87.1635 31.6133 86.8969 31.7867 86.7369 31.84C86.0435 32.2667 85.3235 32.48 84.5769 32.48C84.0169 32.48 83.6302 32.3467 83.4169 32.08C82.6435 31.1467 82.2569 29.9467 82.2569 28.48C82.2569 28.3733 82.2702 28.2267 82.2969 28.04C82.2969 27.8533 82.2969 27.72 82.2969 27.64L82.6969 23.64C82.5635 23.1867 82.3235 22.6533 81.9769 22.04C81.7369 21.6133 81.5635 21.2667 81.4569 21C81.3502 20.7067 81.2969 20.3467 81.2969 19.92C81.2969 19.3067 81.2302 18.7867 81.0969 18.36C80.9902 17.9067 80.8169 17.4133 80.5769 16.88C80.3102 16.24 80.1769 15.7867 80.1769 15.52C79.1102 12.16 78.5769 9.24 78.5769 6.76C78.5769 6.12 78.6169 5.46667 78.6969 4.8C78.6969 4.72 78.7902 4.64 78.9769 4.56C79.1635 4.48 79.2569 4.41333 79.2569 4.36C79.2035 4.17333 79.1769 3.98667 79.1769 3.8C79.1769 2.92 79.7769 2.17333 80.9769 1.56C82.1769 0.919999 83.5235 0.599999 85.0169 0.599999C85.0435 0.599999 85.1102 0.586666 85.2169 0.559999C85.2969 0.559999 85.3502 0.559999 85.3769 0.559999C85.5902 0.559999 85.8169 0.626666 86.0569 0.759999C86.0835 0.786666 86.1102 0.799999 86.1369 0.799999C87.0969 0.799999 88.3635 0.759998 89.9369 0.679998C91.3235 0.626665 92.3235 0.599999 92.9369 0.599999C94.3235 0.599999 95.5635 0.706666 96.6569 0.92C97.0569 0.999999 97.4435 1.2 97.8169 1.52C98.2169 1.84 98.4169 2.21333 98.4169 2.64C98.4169 2.8 98.3769 2.97333 98.2969 3.16ZM149.121 1.92C149.175 2.02667 149.201 2.13333 149.201 2.24C149.201 2.48 149.015 2.78667 148.641 3.16C148.455 3.32 148.348 3.44 148.321 3.52C147.815 4.48 147.148 5.93333 146.321 7.88C145.841 9.05333 145.468 9.93333 145.201 10.52C145.121 10.7333 145.015 11.0933 144.881 11.6C144.775 12.0533 144.668 12.4 144.561 12.64C144.055 13.8133 143.121 15.52 141.761 17.76C140.401 19.9733 139.388 21.8533 138.721 23.4C138.055 24.92 137.721 26.5333 137.721 28.24C137.721 28.5333 137.695 28.72 137.641 28.8C137.615 28.8533 137.495 28.92 137.281 29C137.255 29 137.215 29.0133 137.161 29.04C137.161 29.1733 137.081 29.3333 136.921 29.52C136.788 29.7067 136.708 29.8 136.681 29.8C136.681 29.8533 136.681 29.9067 136.681 29.96C136.708 30.04 136.721 30.08 136.721 30.08C136.721 30.1867 136.695 30.3333 136.641 30.52C136.615 30.76 136.601 30.96 136.601 31.12C136.601 31.44 136.415 31.6 136.041 31.6C135.668 31.6 135.481 31.44 135.481 31.12C135.481 30.0533 135.335 29.1067 135.041 28.28C134.748 27.4267 134.295 26.4133 133.681 25.24L133.361 24.64C133.255 24.4 133.201 24.1067 133.201 23.76C133.201 23.6267 133.201 23.4933 133.201 23.36C133.228 23.1467 133.241 23 133.241 22.92C133.241 22.6 133.201 22.3333 133.121 22.12C132.988 21.6933 132.815 21.1733 132.601 20.56C132.201 19.44 131.881 18.48 131.641 17.68C131.428 16.88 131.295 16.0667 131.241 15.24C130.655 14.76 130.148 14.0933 129.721 13.24C129.561 13.56 129.375 13.9867 129.161 14.52C128.868 15.24 128.588 15.8267 128.321 16.28C128.081 16.7333 127.775 17.16 127.401 17.56C127.241 18.1467 127.028 18.6933 126.761 19.2C126.521 19.7067 126.161 20.3467 125.681 21.12C124.961 22.2667 124.481 23.1467 124.241 23.76C123.948 24.48 123.761 25.6267 123.681 27.2C123.628 28.3467 123.535 29.2133 123.401 29.8C123.401 30.04 123.268 30.1867 123.001 30.24C123.001 30.5867 122.921 30.92 122.761 31.24C122.628 31.5333 122.441 31.68 122.201 31.68C122.095 31.68 122.001 31.6533 121.921 31.6C121.788 31.52 121.695 31.4 121.641 31.24C121.615 31.08 121.601 30.7867 121.601 30.36C121.601 30.3067 121.601 30.2267 121.601 30.12C121.628 30.04 121.641 29.96 121.641 29.88C121.641 29.5067 121.575 28.9333 121.441 28.16C121.361 27.7333 121.308 27.3867 121.281 27.12C121.228 26.64 121.095 26.1867 120.881 25.76C120.695 25.3333 120.415 24.8 120.041 24.16C119.695 23.52 119.415 22.9733 119.201 22.52C118.988 22.0667 118.855 21.5867 118.801 21.08C118.801 20.8667 118.788 20.72 118.761 20.64C118.735 20.56 118.641 20.4 118.481 20.16L118.441 20.08C117.935 19.6267 117.575 19.1067 117.361 18.52C117.175 17.9067 117.015 17.1333 116.881 16.2L116.801 15.84L116.521 15.12L116.281 14.92C115.748 14.4933 115.295 14.0933 114.921 13.72C114.575 13.3467 114.361 12.9733 114.281 12.6C114.121 11.88 113.975 10.88 113.841 9.6C113.735 8.32 113.561 7.28 113.321 6.48C113.108 5.65333 112.655 4.82667 111.961 4C111.695 3.78667 111.561 3.49333 111.561 3.12C111.561 2.85333 111.668 2.62666 111.881 2.44C112.068 2.22667 112.348 2.12 112.721 2.12C112.935 2.12 113.175 2.16 113.441 2.24C113.655 2.08 113.841 1.97333 114.001 1.92C114.161 1.84 114.521 1.70666 115.081 1.52C115.295 1.46666 115.628 1.38667 116.081 1.28C116.561 1.17333 117.068 1.09333 117.601 1.04C117.628 1.04 117.681 1.04 117.761 1.04C117.948 1.01333 118.081 0.999999 118.161 0.999999C118.428 0.999999 118.655 1.06667 118.841 1.2C119.028 1.30667 119.148 1.52 119.201 1.84C119.201 2.02667 119.175 2.21333 119.121 2.4C119.068 2.58667 119.028 2.84 119.001 3.16C118.975 3.48 118.961 4.09333 118.961 5C118.908 5.16 118.841 5.42667 118.761 5.8C118.681 6.17333 118.641 6.62667 118.641 7.16C118.641 7.82667 118.735 8.48 118.921 9.12C119.135 9.76 119.468 10.36 119.921 10.92C120.108 11.4267 120.201 11.7467 120.201 11.88C120.201 11.96 120.135 12.08 120.001 12.24C119.815 12.5333 119.641 12.8533 119.481 13.2C119.535 13.3867 119.695 13.6933 119.961 14.12C120.388 14.84 120.601 15.44 120.601 15.92C120.548 16.2133 120.521 16.52 120.521 16.84C120.521 17.3467 120.588 17.8667 120.721 18.4C120.748 18.48 120.801 18.5867 120.881 18.72C120.961 18.8533 121.015 19.0533 121.041 19.32C121.041 19.3467 121.041 19.4133 121.041 19.52L121.081 19.68C121.081 19.7067 121.068 19.84 121.041 20.08C121.041 20.24 121.041 20.36 121.041 20.44C121.041 20.76 121.081 21.0133 121.161 21.2C121.241 21.44 121.308 21.6133 121.361 21.72C121.415 21.8267 121.481 21.9467 121.561 22.08C121.721 22.2933 121.855 22.5067 121.961 22.72L122.401 21.16L123.521 19.16C123.815 18.7867 124.001 18.36 124.081 17.88C124.161 17.3733 124.201 16.6 124.201 15.56C124.201 14.7333 124.308 14.0667 124.521 13.56C124.815 12.8133 125.081 11.92 125.321 10.88C125.588 9.81333 125.761 8.85333 125.841 8C125.948 7.17333 126.041 6.54667 126.121 6.12C126.228 5.66667 126.401 5 126.641 4.12L126.721 3.8C126.721 3.29333 126.788 2.90667 126.921 2.64C127.055 2.37333 127.321 2.12 127.721 1.88C127.828 1.8 128.055 1.76 128.401 1.76C128.615 1.76 128.815 1.77333 129.001 1.8C129.561 1.8 130.348 1.6 131.361 1.2C131.761 1.04 132.028 0.933332 132.161 0.879998C132.268 0.693332 132.428 0.599999 132.641 0.599999C132.935 0.599999 133.121 0.733332 133.201 0.999999L133.281 1.24C133.521 1.93333 133.641 2.45333 133.641 2.8C133.641 3.36 133.615 3.68 133.561 3.76C133.508 4.16 133.375 4.76 133.161 5.56C132.895 6.62667 132.748 7.42667 132.721 7.96C132.721 8.28 133.015 8.72 133.601 9.28C133.921 9.6 134.161 9.86666 134.321 10.08C134.481 10.2933 134.561 10.52 134.561 10.76C134.561 10.9733 134.521 11.3333 134.441 11.84C134.335 12.4533 134.281 12.9067 134.281 13.2C134.281 13.6267 134.348 14.0133 134.481 14.36C134.695 14.84 134.868 15.5867 135.001 16.6C135.161 17.6933 135.361 18.4933 135.601 19C135.708 19.1867 135.881 19.4667 136.121 19.84C136.575 20.5333 136.815 21.08 136.841 21.48C136.868 21.48 136.921 21.4533 137.001 21.4C137.081 21.3733 137.135 21.36 137.161 21.36C137.428 19.76 137.708 18.44 138.001 17.4C138.295 16.3333 138.761 15.2533 139.401 14.16C139.401 14.0533 139.388 13.9067 139.361 13.72C139.361 13.5333 139.361 13.3867 139.361 13.28C139.361 12.3733 139.508 11.5067 139.801 10.68C140.121 9.82667 140.588 8.8 141.201 7.6L141.521 6.96C141.735 6.53333 141.868 6.08 141.921 5.6C141.975 5.12 142.001 4.54667 142.001 3.88C142.001 2.78667 142.068 1.97333 142.201 1.44V1.48C142.255 1.37333 142.308 1.25333 142.361 1.12C142.468 0.853331 142.561 0.679998 142.641 0.599999C142.721 0.519998 142.881 0.479998 143.121 0.479998C143.175 0.479998 143.255 0.479998 143.361 0.479998C143.548 0.506664 143.681 0.519998 143.761 0.519998C144.055 0.519998 144.455 0.506664 144.961 0.479998C145.441 0.479998 145.775 0.479998 145.961 0.479998C146.815 0.479998 147.495 0.586665 148.001 0.799999C148.215 0.853331 148.428 0.986665 148.641 1.2C148.855 1.41333 149.015 1.65333 149.121 1.92ZM168.839 29.12C168.839 29.4933 168.706 29.88 168.439 30.28C168.173 30.6533 167.853 30.8533 167.479 30.88C167.293 30.88 167.173 30.7733 167.119 30.56C167.066 30.32 167.039 29.9733 167.039 29.52C167.039 28.1333 166.933 27.2933 166.719 27C166.399 26.5467 166.186 26.1333 166.079 25.76C165.973 25.36 165.919 24.9467 165.919 24.52C165.919 23.7733 165.866 23.2 165.759 22.8C165.653 22.3733 165.426 21.9333 165.079 21.48C164.919 21.3467 164.599 21.2667 164.119 21.24C163.666 21.1867 162.786 21.16 161.479 21.16C160.839 21.16 160.333 21.1333 159.959 21.08C159.453 21 158.906 20.96 158.319 20.96C157.279 20.96 156.279 21.08 155.319 21.32C154.386 21.5333 153.679 21.8533 153.199 22.28C153.119 22.68 153.013 22.9467 152.879 23.08C152.773 23.1867 152.613 23.2667 152.399 23.32C152.159 23.3733 151.946 23.4667 151.759 23.6C151.573 23.7333 151.373 23.9867 151.159 24.36C151.159 24.7067 151.133 25.1467 151.079 25.68C151.026 26.1867 150.879 26.8933 150.639 27.8C150.719 28.2267 150.759 28.7333 150.759 29.32C150.759 30.1733 150.666 30.9733 150.479 31.72C150.293 32.4667 150.053 32.9067 149.759 33.04C149.519 33.1467 149.279 33.2 149.039 33.2C148.586 33.2 148.359 33.08 148.359 32.84C148.359 32.4133 148.426 31.8133 148.559 31.04C148.666 30.32 148.719 29.8133 148.719 29.52C148.773 28.96 148.866 28.1467 148.999 27.08C149.239 25.1333 149.359 23.6933 149.359 22.76C149.359 21.96 149.293 21.1467 149.159 20.32C149.053 19.4933 148.853 18.5467 148.559 17.48C148.559 17.24 148.613 16.8267 148.719 16.24C148.853 15.6533 148.999 15.0267 149.159 14.36C149.319 13.6667 149.479 13.0133 149.639 12.4C149.826 11.76 149.973 11.32 150.079 11.08C150.239 10.7067 150.319 10.32 150.319 9.92C150.319 9.49333 150.186 8.90667 149.919 8.16C149.679 7.46667 149.559 6.94666 149.559 6.6C149.559 6.12 149.706 5.65333 149.999 5.2C150.133 4.98667 150.199 4.73333 150.199 4.44C150.199 4.33333 150.173 4.13333 150.119 3.84C150.093 3.62667 150.079 3.46667 150.079 3.36C150.079 2.96 150.306 2.72 150.759 2.64L150.999 2.6C151.773 2.44 152.453 2.30666 153.039 2.2C153.626 2.06666 154.266 1.92 154.959 1.76C155.653 1.57333 156.266 1.41333 156.799 1.28C157.359 1.12 157.733 0.986665 157.919 0.879998C158.213 0.719998 158.599 0.586665 159.079 0.479998C159.559 0.346665 159.999 0.279998 160.399 0.279998C160.826 0.279998 161.146 0.346665 161.359 0.479998C161.626 0.639998 161.946 1.08 162.319 1.8C162.586 2.38666 162.826 2.8 163.039 3.04C163.813 3.73333 164.399 4.46667 164.799 5.24C165.226 5.98667 165.666 6.94667 166.119 8.12C166.413 8.89333 166.559 9.77333 166.559 10.76C166.559 11.2133 166.533 11.8267 166.479 12.6C166.399 13.4267 166.359 14.0533 166.359 14.48C166.359 14.8533 166.386 15.2267 166.439 15.6C166.439 15.68 166.426 15.8 166.399 15.96C166.346 16.1733 166.319 16.3467 166.319 16.48C166.319 16.6667 166.373 16.8267 166.479 16.96C166.559 18 166.693 18.9867 166.879 19.92C167.066 20.8267 167.319 21.9733 167.639 23.36C168.253 25.76 168.653 27.68 168.839 29.12ZM161.999 17.72C161.466 17.0533 161.093 16.3467 160.879 15.6C160.666 14.8533 160.466 13.9067 160.279 12.76C160.146 11.8533 160.013 11.1067 159.879 10.52C159.746 9.90667 159.519 9.29333 159.199 8.68C158.906 8.04 158.466 7.42667 157.879 6.84C157.293 6.25333 156.546 5.72 155.639 5.24C155.719 5.50667 155.879 5.89333 156.119 6.4C156.439 7.09333 156.599 7.62667 156.599 8C156.599 8.18666 156.573 8.37333 156.519 8.56C156.173 8.69333 155.999 8.89333 155.999 9.16C155.999 9.18666 156.013 9.22667 156.039 9.28C156.039 9.33333 156.039 9.37333 156.039 9.4C156.093 9.61333 156.119 9.82667 156.119 10.04C156.119 10.4667 156.039 10.88 155.879 11.28C155.719 11.6533 155.466 12.12 155.119 12.68C154.799 13.24 154.559 13.72 154.399 14.12C154.239 14.4933 154.159 14.88 154.159 15.28C154.159 15.84 154.159 16.4533 154.159 17.12C154.186 17.76 154.226 18.16 154.279 18.32C154.893 18.16 155.666 18.04 156.599 17.96C157.559 17.88 158.746 17.8267 160.159 17.8C161.013 17.7733 161.626 17.7467 161.999 17.72ZM191.61 32.72C191.61 32.72 191.57 32.72 191.49 32.72C191.437 32.7467 191.41 32.76 191.41 32.76C191.117 32.76 190.904 32.64 190.77 32.4C190.664 32.16 190.61 31.8533 190.61 31.48C190.61 31.3467 190.624 31.1867 190.65 31C190.65 30.8667 190.65 30.76 190.65 30.68C190.65 30.4933 190.624 30.4 190.57 30.4C190.49 30.32 190.45 30.24 190.45 30.16C190.45 30.1333 190.477 30.08 190.53 30C190.584 29.9467 190.61 29.8933 190.61 29.84C190.61 29.7867 190.57 29.72 190.49 29.64C190.144 29.3733 189.917 28.9867 189.81 28.48C189.704 28.0267 189.464 27.6933 189.09 27.48C188.824 27.32 188.637 27.1467 188.53 26.96C188.45 26.7467 188.384 26.4533 188.33 26.08C188.224 25.5467 188.064 25.1867 187.85 25C187.77 24.92 187.637 24.7867 187.45 24.6C187.104 24.3067 186.824 24.0533 186.61 23.84C186.424 23.6 186.33 23.3733 186.33 23.16C186.33 22.8133 185.97 22.4133 185.25 21.96C184.53 21.48 183.797 21.1333 183.05 20.92C182.73 20.84 182.384 20.8 182.01 20.8C181.85 20.8 181.597 20.8133 181.25 20.84C180.797 20.8667 180.477 20.88 180.29 20.88C179.597 20.88 178.877 20.7867 178.13 20.6C178.13 20.52 177.93 20.3733 177.53 20.16C177.104 19.9467 176.89 19.8 176.89 19.72C176.624 19.72 176.304 19.7733 175.93 19.88C175.557 19.96 175.37 20.08 175.37 20.24C175.024 21.6 174.784 23.0667 174.65 24.64C174.544 26.1867 174.464 27.8267 174.41 29.56C174.41 29.6133 174.397 29.9067 174.37 30.44C174.424 30.6533 174.53 30.92 174.69 31.24C174.877 31.6133 174.97 31.92 174.97 32.16C174.97 32.2133 174.957 32.2667 174.93 32.32C174.93 32.3733 174.93 32.4267 174.93 32.48C174.904 32.6667 174.797 32.8533 174.61 33.04C174.45 33.2267 174.264 33.32 174.05 33.32C174.024 33.32 173.984 33.32 173.93 33.32C173.877 33.2933 173.837 33.28 173.81 33.28C173.384 33.12 173.17 32.8 173.17 32.32C173.17 32.0533 173.237 31.7467 173.37 31.4C173.37 31.3733 173.37 31.36 173.37 31.36C173.184 31.1733 173.037 30.84 172.93 30.36C172.824 29.8533 172.717 29.1067 172.61 28.12C172.45 26.7867 172.277 25.6933 172.09 24.84C171.93 23.96 171.677 23.1067 171.33 22.28C171.17 21.9067 171.09 21.5067 171.09 21.08C171.09 20.7067 171.184 20.16 171.37 19.44C171.61 18.5333 171.73 17.8267 171.73 17.32C171.624 17.16 171.57 16.7067 171.57 15.96C171.57 15.72 171.584 15.3067 171.61 14.72C171.637 14.1333 171.65 13.7067 171.65 13.44C171.65 12.72 171.597 12.28 171.49 12.12C171.384 11.3467 171.197 10.6133 170.93 9.92C170.69 9.2 170.357 8.37333 169.93 7.44C169.317 6.02666 169.01 5.08 169.01 4.6C169.01 4.33333 169.064 4.12 169.17 3.96C169.544 3.34667 170.184 2.77333 171.09 2.24C171.997 1.70666 172.757 1.44 173.37 1.44C173.424 1.44 173.49 1.44 173.57 1.44C173.624 1.46667 173.677 1.48 173.73 1.48C173.784 1.48 173.85 1.48 173.93 1.48C174.09 1.50667 174.21 1.52 174.29 1.52C174.797 1.52 175.424 1.46667 176.17 1.36C176.944 1.25333 177.917 1.09333 179.09 0.879998C179.89 0.746665 180.45 0.653332 180.77 0.599999C180.877 0.599999 181.01 0.586666 181.17 0.559999C181.33 0.559999 181.464 0.559999 181.57 0.559999C182.424 0.559999 183.304 0.666666 184.21 0.879998C185.117 1.09333 185.637 1.29333 185.77 1.48L185.85 1.56C186.01 1.77333 186.17 1.98667 186.33 2.2C186.49 2.41333 186.65 2.64 186.81 2.88C186.97 3.09333 187.104 3.29333 187.21 3.48C187.344 3.66667 187.41 3.78667 187.41 3.84C187.437 4 187.77 4.46667 188.41 5.24C189.077 5.98667 189.717 6.64 190.33 7.2C191.05 7.78667 191.41 8.52 191.41 9.4C191.41 9.88 191.304 10.3733 191.09 10.88C190.877 11.3867 190.61 11.8533 190.29 12.28C190.104 12.52 189.877 12.8933 189.61 13.4C189.37 13.8533 189.117 14.2267 188.85 14.52C188.61 14.8133 188.237 15.08 187.73 15.32C187.41 15.3733 186.81 15.56 185.93 15.88C184.917 16.2267 184.237 16.4267 183.89 16.48C183.304 16.64 182.984 16.7333 182.93 16.76C181.89 17.0533 181.13 17.28 180.65 17.44C180.17 17.6 179.904 17.7467 179.85 17.88C179.85 18.0667 180.05 18.28 180.45 18.52C180.877 18.7333 181.33 18.88 181.81 18.96C182.237 19.0933 183.037 19.24 184.21 19.4C185.437 19.56 186.237 19.7067 186.61 19.84C187.304 20.16 187.81 20.4133 188.13 20.6C188.45 20.7867 188.69 20.96 188.85 21.12C189.01 21.28 189.117 21.4533 189.17 21.64C189.25 21.8267 189.33 22.12 189.41 22.52L189.53 23.08C189.557 23.4267 189.77 23.9467 190.17 24.64C190.357 24.9867 190.477 25.2133 190.53 25.32C190.637 25.9867 190.904 27.0667 191.33 28.56C191.597 29.4133 191.784 30.0933 191.89 30.6C192.024 31.1067 192.09 31.5333 192.09 31.88C192.09 32.3867 191.93 32.6667 191.61 32.72ZM183.17 10.6C183.437 10.2267 183.57 9.81333 183.57 9.36C183.57 8.77333 183.397 8.37333 183.05 8.16C182.33 7.46667 181.33 6.96 180.05 6.64C178.77 6.29333 177.424 6.12 176.01 6.12C176.01 6.84 176.13 7.77333 176.37 8.92C176.584 9.85333 176.69 10.56 176.69 11.04C176.69 11.5467 176.61 12.04 176.45 12.52C176.397 12.5733 176.37 12.76 176.37 13.08C176.37 13.2133 176.384 13.5333 176.41 14.04C176.41 14.5467 176.41 14.8533 176.41 14.96C176.41 15.3067 176.384 15.5067 176.33 15.56C176.33 15.72 176.304 15.8933 176.25 16.08C176.224 16.2667 176.21 16.4 176.21 16.48C176.21 16.64 176.277 16.8 176.41 16.96C176.677 16.88 177.09 16.7733 177.65 16.64C178.85 16.3733 179.757 16.08 180.37 15.76C180.93 15.4933 181.344 15.12 181.61 14.64C181.877 14.1333 182.13 13.4533 182.37 12.6C182.637 11.6133 182.904 10.9467 183.17 10.6ZM228.905 14.4C228.718 14.96 228.571 15.64 228.465 16.44C228.331 17.1867 228.185 17.8 228.025 18.28C227.865 18.76 227.558 19.3333 227.105 20C227.025 20.08 226.865 20.1867 226.625 20.32C226.278 20.48 226.105 20.6133 226.105 20.72C226.025 21.1733 225.625 21.8 224.905 22.6C224.318 23.2933 223.958 23.8267 223.825 24.2C223.745 24.3867 223.611 24.64 223.425 24.96C223.158 25.4133 223.025 25.76 223.025 26C222.865 26.3467 222.705 26.8533 222.545 27.52C222.385 28.2667 222.211 28.8133 222.025 29.16C221.385 29.7467 220.785 30.1467 220.225 30.36C220.091 30.4933 220.011 30.7467 219.985 31.12C219.958 31.36 219.905 31.5467 219.825 31.68C219.771 31.7867 219.651 31.8533 219.465 31.88C218.958 31.96 218.465 32 217.985 32C216.358 32 214.985 31.5867 213.865 30.76C212.745 29.9067 211.811 28.88 211.065 27.68C210.878 27.5733 210.625 27.4133 210.305 27.2C210.145 26.88 210.011 26.4 209.905 25.76C209.745 24.9333 209.531 24.3067 209.265 23.88C208.945 23.3733 208.718 22.9467 208.585 22.6C208.451 22.2267 208.385 21.88 208.385 21.56C208.385 21.3733 208.411 21.12 208.465 20.8C208.518 20.4533 208.545 20.1733 208.545 19.96C208.545 19.9067 208.545 19.8133 208.545 19.68C208.518 19.5733 208.505 19.48 208.505 19.4C208.398 18.7067 208.171 17.7333 207.825 16.48C207.585 15.52 207.398 14.72 207.265 14.08C207.158 13.4133 207.105 12.7467 207.105 12.08C207.105 11.5467 207.145 11.0133 207.225 10.48C207.331 10.1333 207.425 9.61333 207.505 8.92C207.585 8.22667 207.691 7.66667 207.825 7.24C207.985 6.78667 208.291 6.36 208.745 5.96C208.985 5.77333 209.105 5.49333 209.105 5.12C209.105 5.01333 209.105 4.88 209.105 4.72C209.078 4.53333 209.065 4.41333 209.065 4.36C209.065 4.09333 209.131 3.88 209.265 3.72C209.771 3.10667 210.251 2.62667 210.705 2.28C211.158 1.90667 211.785 1.62667 212.585 1.44C212.905 1.36 213.411 1.32 214.105 1.32C214.691 1.32 215.171 1.29333 215.545 1.24C215.918 1.18667 216.291 1.05333 216.665 0.839998C217.118 0.706665 217.638 0.639998 218.225 0.639998C218.811 0.639998 219.398 0.706665 219.985 0.839998C220.625 0.999998 221.491 1.13333 222.585 1.24C222.905 1.26667 223.145 1.29333 223.305 1.32C224.185 1.42667 224.878 1.6 225.385 1.84C225.918 2.05333 226.305 2.32 226.545 2.64C226.811 2.96 226.985 3.29333 227.065 3.64C227.171 3.96 227.251 4.38667 227.305 4.92C227.331 5.18666 227.358 5.38666 227.385 5.52C227.411 5.62666 227.518 5.93333 227.705 6.44C228.131 7.77333 228.478 8.96 228.745 10C229.011 11.0133 229.145 11.96 229.145 12.84C229.145 13.4267 229.065 13.9467 228.905 14.4ZM223.545 13.2C223.545 12.9867 223.371 12.72 223.025 12.4C222.918 12.2933 222.838 12.2133 222.785 12.16C222.731 11.92 222.651 11.52 222.545 10.96C222.305 9.86667 222.038 8.98667 221.745 8.32C221.478 7.65333 220.971 7.02666 220.225 6.44C220.225 6.44 220.198 6.44 220.145 6.44C220.038 6.41333 219.958 6.4 219.905 6.4H219.585C219.451 6.4 219.318 6.4 219.185 6.4C218.865 6.4 218.625 6.36 218.465 6.28C217.771 5.90667 217.211 5.72 216.785 5.72C216.465 5.72 216.171 5.8 215.905 5.96C215.771 6.04 215.705 6.17333 215.705 6.36C215.705 6.49333 215.745 6.69333 215.825 6.96C215.905 7.25333 215.945 7.46667 215.945 7.6C215.945 7.62667 215.931 7.65333 215.905 7.68C215.905 7.76 215.905 7.8 215.905 7.8C215.851 7.93333 215.665 8.08 215.345 8.24C215.105 8.34667 214.945 8.44 214.865 8.52L214.705 9.12C214.438 10 214.158 10.72 213.865 11.28C213.598 11.8133 213.171 12.3067 212.585 12.76C212.691 13.6133 212.745 14.5867 212.745 15.68C212.745 16.24 212.731 16.8933 212.705 17.64C212.678 18.6533 212.665 19.3067 212.665 19.6C212.665 20.9067 212.745 22.1333 212.905 23.28C213.091 24.4 213.411 25.5067 213.865 26.6C213.918 26.7067 213.985 26.8933 214.065 27.16C214.225 27.5867 214.371 27.9467 214.505 28.24C214.665 28.5067 214.878 28.76 215.145 29C215.331 29.1867 215.745 29.4267 216.385 29.72C216.838 29.9333 217.185 30.1067 217.425 30.24C217.611 30.3467 217.758 30.4 217.865 30.4C217.945 30.4 218.065 30.3733 218.225 30.32C218.305 30.2667 218.398 30.2267 218.505 30.2C218.585 30.1733 218.625 30.1067 218.625 30C218.625 29.9733 218.625 29.92 218.625 29.84C218.625 29.7333 218.625 29.6667 218.625 29.64C218.625 29.5067 218.651 29.4 218.705 29.32C218.891 29.1067 219.225 28.7867 219.705 28.36C220.451 27.6667 220.878 27.1333 220.985 26.76C221.171 26.0933 221.265 25.1067 221.265 23.8C221.265 22.44 221.345 21.4133 221.505 20.72C221.665 20.4267 221.931 20.0133 222.305 19.48C222.865 18.7067 223.198 18.12 223.305 17.72C223.518 17.1067 223.625 16.3867 223.625 15.56C223.625 15.24 223.611 14.84 223.585 14.36C223.558 13.8533 223.545 13.4667 223.545 13.2ZM254.746 0.799999C254.506 2.18667 254.333 3.44 254.226 4.56C254.119 5.65333 254.013 7.01333 253.906 8.64C253.773 10.5067 253.653 12.0533 253.546 13.28C253.546 13.8667 253.319 14.7733 252.866 16C252.573 16.7467 252.386 17.2933 252.306 17.64C252.093 18.28 251.986 19 251.986 19.8C251.986 20.2 252.026 20.8133 252.106 21.64C252.213 22.4933 252.266 23.12 252.266 23.52C252.266 24.2667 252.159 24.96 251.946 25.6L251.666 26.48C251.266 27.6267 250.959 28.6 250.746 29.4C250.533 30.1733 250.426 30.8267 250.426 31.36C250.426 31.6267 250.333 31.8533 250.146 32.04C249.959 32.2533 249.773 32.36 249.586 32.36C249.213 32.36 249.026 32.12 249.026 31.64C249.026 31.6133 249.026 31.56 249.026 31.48C249.053 31.4 249.066 31.3333 249.066 31.28C249.173 30.96 249.226 30.5867 249.226 30.16C249.226 29.2 248.999 28.1733 248.546 27.08C248.093 25.96 247.559 25.0667 246.946 24.4C246.226 23.7867 245.866 23.2 245.866 22.64C245.839 21.8667 245.759 21.2133 245.626 20.68C245.493 20.12 245.186 19.5867 244.706 19.08C244.626 18.8933 244.466 18.72 244.226 18.56C244.013 18.4 243.706 18.2267 243.306 18.04C242.586 17.6667 242.119 17.36 241.906 17.12C241.799 16.9333 241.679 16.6 241.546 16.12C241.413 15.6667 241.279 15.3467 241.146 15.16C241.066 14.8667 240.919 14.64 240.706 14.48C240.519 14.32 240.253 14.16 239.906 14C239.506 13.8133 239.199 13.64 238.986 13.48C238.773 13.2933 238.613 13.0133 238.506 12.64C238.026 12.6933 237.679 12.88 237.466 13.2C237.279 13.4933 237.186 13.7867 237.186 14.08C237.159 14.56 237.066 15.6133 236.906 17.24C236.719 19.5067 236.559 21.5333 236.426 23.32C236.293 25.1067 236.226 26.6133 236.226 27.84C236.226 28.9867 236.293 29.7867 236.426 30.24C236.453 30.32 236.506 30.44 236.586 30.6C236.853 31.2133 236.986 31.7467 236.986 32.2C236.986 32.36 236.919 32.5067 236.786 32.64C236.653 32.8 236.493 32.88 236.306 32.88C236.013 32.8533 235.786 32.76 235.626 32.6C235.466 32.44 235.386 32.2667 235.386 32.08C235.333 31.76 235.306 31.4267 235.306 31.08C235.306 30.92 235.319 30.6267 235.346 30.2C235.373 29.8 235.386 29.4667 235.386 29.2C235.226 28.9333 235.093 28.6667 234.986 28.4C234.533 27.2267 234.306 25.6533 234.306 23.68C234.306 21.76 234.239 20.3067 234.106 19.32C233.973 18.3067 233.666 17.36 233.186 16.48C232.706 15.5733 232.373 14.64 232.186 13.68C231.999 12.72 231.853 11.4933 231.746 10C231.666 8.74667 231.573 7.81333 231.466 7.2C231.466 7.14667 231.426 7.04 231.346 6.88C231.266 6.72 231.119 6.4 230.906 5.92C230.639 5.38667 230.453 5 230.346 4.76C230.239 4.49333 230.186 4.33333 230.186 4.28L230.226 3.96C230.253 3.69333 230.279 3.52 230.306 3.44C230.359 3.36 230.719 3.24 231.386 3.08C232.079 2.89333 232.746 2.66667 233.386 2.4C233.786 2.29333 234.266 2.13333 234.826 1.92C235.253 1.76 235.626 1.64 235.946 1.56C236.293 1.45333 236.693 1.4 237.146 1.4L237.426 1.44C237.506 1.44 237.599 1.44 237.706 1.44L238.146 1.68C238.466 1.86667 238.679 2.01333 238.786 2.12C238.919 2.2 239.013 2.30667 239.066 2.44C239.146 2.54667 239.266 3.01333 239.426 3.84C239.639 4.34666 239.853 5.10666 240.066 6.12C240.386 7.48 240.746 8.50667 241.146 9.2C241.679 9.81333 242.479 10.52 243.546 11.32C244.239 11.8267 244.786 12.28 245.186 12.68C245.613 13.08 245.973 13.5733 246.266 14.16C246.373 14.4 246.799 14.8133 247.546 15.4C248.026 15.7467 248.386 16.04 248.626 16.28C248.866 16.52 248.986 16.7333 248.986 16.92C248.959 15.88 248.826 14.76 248.586 13.56C248.346 12.3333 247.999 10.76 247.546 8.84C247.253 7.61333 247.053 6.73333 246.946 6.2C246.839 5.66667 246.679 5.24 246.466 4.92C246.253 4.6 245.999 4.29333 245.706 4C245.386 3.65333 245.226 3.4 245.226 3.24C245.226 3.05333 245.373 2.82667 245.666 2.56C245.959 2.29333 246.266 2.12 246.586 2.04C246.933 1.93333 247.359 1.84 247.866 1.76C248.479 1.70667 249.013 1.61333 249.466 1.48C249.919 1.34667 250.413 1.12 250.946 0.799999C250.999 0.799999 251.159 0.759998 251.426 0.679998C251.826 0.546665 252.173 0.453332 252.466 0.399999C252.759 0.319999 253.066 0.279998 253.386 0.279998C253.973 0.279998 254.426 0.453332 254.746 0.799999ZM290.988 29.12C290.988 29.4933 290.854 29.88 290.588 30.28C290.321 30.6533 290.001 30.8533 289.628 30.88C289.441 30.88 289.321 30.7733 289.268 30.56C289.214 30.32 289.188 29.9733 289.188 29.52C289.188 28.1333 289.081 27.2933 288.868 27C288.548 26.5467 288.334 26.1333 288.228 25.76C288.121 25.36 288.068 24.9467 288.068 24.52C288.068 23.7733 288.014 23.2 287.908 22.8C287.801 22.3733 287.574 21.9333 287.228 21.48C287.068 21.3467 286.748 21.2667 286.268 21.24C285.814 21.1867 284.934 21.16 283.628 21.16C282.988 21.16 282.481 21.1333 282.108 21.08C281.601 21 281.054 20.96 280.468 20.96C279.428 20.96 278.428 21.08 277.468 21.32C276.534 21.5333 275.828 21.8533 275.348 22.28C275.268 22.68 275.161 22.9467 275.028 23.08C274.921 23.1867 274.761 23.2667 274.548 23.32C274.308 23.3733 274.094 23.4667 273.908 23.6C273.721 23.7333 273.521 23.9867 273.308 24.36C273.308 24.7067 273.281 25.1467 273.228 25.68C273.174 26.1867 273.028 26.8933 272.788 27.8C272.868 28.2267 272.908 28.7333 272.908 29.32C272.908 30.1733 272.814 30.9733 272.628 31.72C272.441 32.4667 272.201 32.9067 271.908 33.04C271.668 33.1467 271.428 33.2 271.188 33.2C270.734 33.2 270.508 33.08 270.508 32.84C270.508 32.4133 270.574 31.8133 270.708 31.04C270.814 30.32 270.868 29.8133 270.868 29.52C270.921 28.96 271.014 28.1467 271.148 27.08C271.388 25.1333 271.508 23.6933 271.508 22.76C271.508 21.96 271.441 21.1467 271.308 20.32C271.201 19.4933 271.001 18.5467 270.708 17.48C270.708 17.24 270.761 16.8267 270.868 16.24C271.001 15.6533 271.148 15.0267 271.308 14.36C271.468 13.6667 271.628 13.0133 271.788 12.4C271.974 11.76 272.121 11.32 272.228 11.08C272.388 10.7067 272.468 10.32 272.468 9.92C272.468 9.49333 272.334 8.90667 272.068 8.16C271.828 7.46667 271.708 6.94666 271.708 6.6C271.708 6.12 271.854 5.65333 272.148 5.2C272.281 4.98667 272.348 4.73333 272.348 4.44C272.348 4.33333 272.321 4.13333 272.268 3.84C272.241 3.62667 272.228 3.46667 272.228 3.36C272.228 2.96 272.454 2.72 272.908 2.64L273.148 2.6C273.921 2.44 274.601 2.30666 275.188 2.2C275.774 2.06666 276.414 1.92 277.108 1.76C277.801 1.57333 278.414 1.41333 278.948 1.28C279.508 1.12 279.881 0.986665 280.068 0.879998C280.361 0.719998 280.748 0.586665 281.228 0.479998C281.708 0.346665 282.148 0.279998 282.548 0.279998C282.974 0.279998 283.294 0.346665 283.508 0.479998C283.774 0.639998 284.094 1.08 284.468 1.8C284.734 2.38666 284.974 2.8 285.188 3.04C285.961 3.73333 286.548 4.46667 286.948 5.24C287.374 5.98667 287.814 6.94667 288.268 8.12C288.561 8.89333 288.708 9.77333 288.708 10.76C288.708 11.2133 288.681 11.8267 288.628 12.6C288.548 13.4267 288.508 14.0533 288.508 14.48C288.508 14.8533 288.534 15.2267 288.588 15.6C288.588 15.68 288.574 15.8 288.548 15.96C288.494 16.1733 288.468 16.3467 288.468 16.48C288.468 16.6667 288.521 16.8267 288.628 16.96C288.708 18 288.841 18.9867 289.028 19.92C289.214 20.8267 289.468 21.9733 289.788 23.36C290.401 25.76 290.801 27.68 290.988 29.12ZM284.148 17.72C283.614 17.0533 283.241 16.3467 283.028 15.6C282.814 14.8533 282.614 13.9067 282.428 12.76C282.294 11.8533 282.161 11.1067 282.028 10.52C281.894 9.90667 281.668 9.29333 281.348 8.68C281.054 8.04 280.614 7.42667 280.028 6.84C279.441 6.25333 278.694 5.72 277.788 5.24C277.868 5.50667 278.028 5.89333 278.268 6.4C278.588 7.09333 278.748 7.62667 278.748 8C278.748 8.18666 278.721 8.37333 278.668 8.56C278.321 8.69333 278.148 8.89333 278.148 9.16C278.148 9.18666 278.161 9.22667 278.188 9.28C278.188 9.33333 278.188 9.37333 278.188 9.4C278.241 9.61333 278.268 9.82667 278.268 10.04C278.268 10.4667 278.188 10.88 278.028 11.28C277.868 11.6533 277.614 12.12 277.268 12.68C276.948 13.24 276.708 13.72 276.548 14.12C276.388 14.4933 276.308 14.88 276.308 15.28C276.308 15.84 276.308 16.4533 276.308 17.12C276.334 17.76 276.374 18.16 276.428 18.32C277.041 18.16 277.814 18.04 278.748 17.96C279.708 17.88 280.894 17.8267 282.308 17.8C283.161 17.7733 283.774 17.7467 284.148 17.72ZM310.359 30.68C310.359 31.0267 310.265 31.2133 310.079 31.24C309.812 31.2933 309.425 31.4267 308.919 31.64C308.252 31.9333 307.745 32.08 307.399 32.08C307.052 32.08 306.719 31.9867 306.399 31.8C305.865 31.5333 305.199 31.4 304.399 31.4C304.105 31.4 303.679 31.4267 303.119 31.48C302.585 31.5333 302.172 31.56 301.879 31.56C301.532 31.56 301.225 31.5333 300.959 31.48C300.692 31.4267 300.399 31.4 300.079 31.4C299.679 31.4 299.105 31.4667 298.359 31.6C297.665 31.7067 297.145 31.76 296.799 31.76C296.479 31.76 296.185 31.72 295.919 31.64C295.785 31.9067 295.585 32.04 295.319 32.04C295.212 32.04 295.065 32 294.879 31.92C294.719 31.8933 294.625 31.88 294.599 31.88C294.252 31.88 294.079 31.72 294.079 31.4C294.079 31.0533 294.012 30.5467 293.879 29.88L293.839 29.76C293.705 29.0667 293.639 28.3467 293.639 27.6C293.639 26.64 293.759 25.6933 293.999 24.76C294.052 24.5733 294.079 24.36 294.079 24.12C294.079 23.72 293.919 23.12 293.599 22.32C293.519 22.08 293.465 21.9333 293.439 21.88C293.439 21.8533 293.439 21.8267 293.439 21.8C293.439 21.7467 293.439 21.72 293.439 21.72C293.439 21.3733 293.599 21.2 293.919 21.2C293.945 21.2 293.985 21.2 294.039 21.2C294.092 21.2267 294.119 21.24 294.119 21.24C294.252 21.08 294.319 20.9067 294.319 20.72C294.319 20.5333 294.279 20.36 294.199 20.2C294.119 20.04 294.025 19.9067 293.919 19.8C293.732 19.64 293.639 19.4133 293.639 19.12C293.639 19.04 293.639 18.9333 293.639 18.8C293.665 18.64 293.679 18.5067 293.679 18.4C293.679 17.92 293.585 17.44 293.399 16.96C293.319 16.72 293.279 16.5067 293.279 16.32C293.279 16.1067 293.332 15.8267 293.439 15.48C293.545 15.1867 293.612 14.96 293.639 14.8C293.612 14.6133 293.532 14.2933 293.399 13.84C293.265 13.3867 293.185 13.0667 293.159 12.88C292.652 10.96 292.359 9.14667 292.279 7.44C292.279 7.28 292.199 7.02667 292.039 6.68C291.905 6.36 291.825 6.12 291.799 5.96C291.799 5.74667 291.865 5.45333 291.999 5.08C292.105 4.78667 292.159 4.57333 292.159 4.44C292.159 4.28 292.079 4.02667 291.919 3.68C291.732 3.22667 291.639 2.85333 291.639 2.56C291.639 2.53333 291.639 2.50666 291.639 2.48C291.692 2.08 291.745 1.85333 291.799 1.8C291.852 1.72 292.065 1.58667 292.439 1.4C292.519 1.34667 292.612 1.32 292.719 1.32C293.039 1.32 293.319 1.42667 293.559 1.64C294.145 0.999998 294.985 0.679998 296.079 0.679998C296.399 0.679998 296.705 0.706665 296.999 0.759999C297.025 0.466665 297.185 0.319998 297.479 0.319998C297.665 0.319998 297.812 0.399998 297.919 0.559999C298.025 0.426666 298.159 0.36 298.319 0.36C298.559 0.36 298.719 0.466666 298.799 0.679998C299.065 1.34667 299.199 2.08 299.199 2.88C299.199 3.78667 298.959 5.13333 298.479 6.92L298.439 7.08L298.359 7.4C298.172 8.09333 298.052 8.61333 297.999 8.96C298.265 9.12 298.399 9.44 298.399 9.92C298.399 10.16 298.345 10.5067 298.239 10.96V11C298.345 11.5333 298.399 11.9333 298.399 12.2C298.399 12.5467 298.345 12.8533 298.239 13.12C298.132 13.3867 297.959 13.6933 297.719 14.04C297.532 14.36 297.399 14.6133 297.319 14.8C297.239 15.2 297.199 15.5867 297.199 15.96C297.465 17.1333 297.599 18.0933 297.599 18.84C297.599 19.32 297.545 19.7867 297.439 20.24C297.279 20.9867 297.172 21.6 297.119 22.08C297.065 22.5333 297.025 23.0533 296.999 23.64C296.972 24.2533 296.932 24.7867 296.879 25.24C296.825 25.6933 296.719 26.3067 296.559 27.08C296.559 27.2133 296.505 27.48 296.399 27.88C296.319 28.28 296.185 28.84 295.999 29.56C295.999 29.64 296.039 29.6933 296.119 29.72C296.225 29.7467 296.279 29.8 296.279 29.88C296.305 29.88 296.359 29.88 296.439 29.88C296.545 29.9067 296.625 29.92 296.679 29.92C297.105 29.92 297.679 29.8533 298.399 29.72C299.119 29.5867 299.919 29.4267 300.799 29.24C301.359 29.1067 301.679 29.04 301.759 29.04C302.052 29.0133 302.425 28.9867 302.879 28.96C303.172 28.9333 303.399 28.9067 303.559 28.88C303.585 28.8533 303.745 28.7333 304.039 28.52C304.385 28.2533 304.652 28.0933 304.839 28.04C305.052 27.96 305.439 27.92 305.999 27.92C306.025 27.92 306.119 27.88 306.279 27.8C306.439 27.6933 306.679 27.5467 306.999 27.36C307.292 27.2 307.519 27.08 307.679 27C307.839 26.8933 307.932 26.84 307.959 26.84C308.039 26.76 308.145 26.72 308.279 26.72C308.652 26.72 309.052 27.1333 309.479 27.96C309.932 28.7867 310.225 29.6933 310.359 30.68ZM330.788 30.68C330.788 31.0267 330.695 31.2133 330.508 31.24C330.242 31.2933 329.855 31.4267 329.348 31.64C328.682 31.9333 328.175 32.08 327.828 32.08C327.482 32.08 327.148 31.9867 326.828 31.8C326.295 31.5333 325.628 31.4 324.828 31.4C324.535 31.4 324.108 31.4267 323.548 31.48C323.015 31.5333 322.602 31.56 322.308 31.56C321.962 31.56 321.655 31.5333 321.388 31.48C321.122 31.4267 320.828 31.4 320.508 31.4C320.108 31.4 319.535 31.4667 318.788 31.6C318.095 31.7067 317.575 31.76 317.228 31.76C316.908 31.76 316.615 31.72 316.348 31.64C316.215 31.9067 316.015 32.04 315.748 32.04C315.642 32.04 315.495 32 315.308 31.92C315.148 31.8933 315.055 31.88 315.028 31.88C314.682 31.88 314.508 31.72 314.508 31.4C314.508 31.0533 314.442 30.5467 314.308 29.88L314.268 29.76C314.135 29.0667 314.068 28.3467 314.068 27.6C314.068 26.64 314.188 25.6933 314.428 24.76C314.482 24.5733 314.508 24.36 314.508 24.12C314.508 23.72 314.348 23.12 314.028 22.32C313.948 22.08 313.895 21.9333 313.868 21.88C313.868 21.8533 313.868 21.8267 313.868 21.8C313.868 21.7467 313.868 21.72 313.868 21.72C313.868 21.3733 314.028 21.2 314.348 21.2C314.375 21.2 314.415 21.2 314.468 21.2C314.522 21.2267 314.548 21.24 314.548 21.24C314.682 21.08 314.748 20.9067 314.748 20.72C314.748 20.5333 314.708 20.36 314.628 20.2C314.548 20.04 314.455 19.9067 314.348 19.8C314.162 19.64 314.068 19.4133 314.068 19.12C314.068 19.04 314.068 18.9333 314.068 18.8C314.095 18.64 314.108 18.5067 314.108 18.4C314.108 17.92 314.015 17.44 313.828 16.96C313.748 16.72 313.708 16.5067 313.708 16.32C313.708 16.1067 313.762 15.8267 313.868 15.48C313.975 15.1867 314.042 14.96 314.068 14.8C314.042 14.6133 313.962 14.2933 313.828 13.84C313.695 13.3867 313.615 13.0667 313.588 12.88C313.082 10.96 312.788 9.14667 312.708 7.44C312.708 7.28 312.628 7.02667 312.468 6.68C312.335 6.36 312.255 6.12 312.228 5.96C312.228 5.74667 312.295 5.45333 312.428 5.08C312.535 4.78667 312.588 4.57333 312.588 4.44C312.588 4.28 312.508 4.02667 312.348 3.68C312.162 3.22667 312.068 2.85333 312.068 2.56C312.068 2.53333 312.068 2.50666 312.068 2.48C312.122 2.08 312.175 1.85333 312.228 1.8C312.282 1.72 312.495 1.58667 312.868 1.4C312.948 1.34667 313.042 1.32 313.148 1.32C313.468 1.32 313.748 1.42667 313.988 1.64C314.575 0.999998 315.415 0.679998 316.508 0.679998C316.828 0.679998 317.135 0.706665 317.428 0.759999C317.455 0.466665 317.615 0.319998 317.908 0.319998C318.095 0.319998 318.242 0.399998 318.348 0.559999C318.455 0.426666 318.588 0.36 318.748 0.36C318.988 0.36 319.148 0.466666 319.228 0.679998C319.495 1.34667 319.628 2.08 319.628 2.88C319.628 3.78667 319.388 5.13333 318.908 6.92L318.868 7.08L318.788 7.4C318.602 8.09333 318.482 8.61333 318.428 8.96C318.695 9.12 318.828 9.44 318.828 9.92C318.828 10.16 318.775 10.5067 318.668 10.96V11C318.775 11.5333 318.828 11.9333 318.828 12.2C318.828 12.5467 318.775 12.8533 318.668 13.12C318.562 13.3867 318.388 13.6933 318.148 14.04C317.962 14.36 317.828 14.6133 317.748 14.8C317.668 15.2 317.628 15.5867 317.628 15.96C317.895 17.1333 318.028 18.0933 318.028 18.84C318.028 19.32 317.975 19.7867 317.868 20.24C317.708 20.9867 317.602 21.6 317.548 22.08C317.495 22.5333 317.455 23.0533 317.428 23.64C317.402 24.2533 317.362 24.7867 317.308 25.24C317.255 25.6933 317.148 26.3067 316.988 27.08C316.988 27.2133 316.935 27.48 316.828 27.88C316.748 28.28 316.615 28.84 316.428 29.56C316.428 29.64 316.468 29.6933 316.548 29.72C316.655 29.7467 316.708 29.8 316.708 29.88C316.735 29.88 316.788 29.88 316.868 29.88C316.975 29.9067 317.055 29.92 317.108 29.92C317.535 29.92 318.108 29.8533 318.828 29.72C319.548 29.5867 320.348 29.4267 321.228 29.24C321.788 29.1067 322.108 29.04 322.188 29.04C322.482 29.0133 322.855 28.9867 323.308 28.96C323.602 28.9333 323.828 28.9067 323.988 28.88C324.015 28.8533 324.175 28.7333 324.468 28.52C324.815 28.2533 325.082 28.0933 325.268 28.04C325.482 27.96 325.868 27.92 326.428 27.92C326.455 27.92 326.548 27.88 326.708 27.8C326.868 27.6933 327.108 27.5467 327.428 27.36C327.722 27.2 327.948 27.08 328.108 27C328.268 26.8933 328.362 26.84 328.388 26.84C328.468 26.76 328.575 26.72 328.708 26.72C329.082 26.72 329.482 27.1333 329.908 27.96C330.362 28.7867 330.655 29.6933 330.788 30.68Z" fill="white"/>
</svg>
