<svg width="454" height="98" viewBox="0 0 454 98" fill="none" xmlns="http://www.w3.org/2000/svg">
<g clip-path="url(#clip0_2_4)">
<path d="M46.6475 0C47.3405 0.264456 47.4917 1.71267 48.0083 2.34233C49.1991 3.78425 50.7364 5.32061 51.6373 7.02698C51.8389 7.70702 52.0405 8.38705 52.2421 9.06708C52.784 9.98638 53.6534 10.9246 54.2078 11.8628C55.6128 14.2429 56.583 16.39 58.1392 18.5875C58.1896 18.9401 58.24 19.2927 58.2904 19.6453C58.6747 20.6024 59.1032 22.0317 59.6513 23.0455C59.8214 23.3666 60.2624 23.4548 60.4073 23.8766C60.4829 24.6574 60.5585 25.4382 60.6341 26.219C60.7475 26.3449 60.8673 26.3575 61.0122 26.4456C60.3065 27.0564 60.0671 28.1457 59.3489 28.7124H59.0465C58.8827 28.2717 58.8827 27.875 58.2904 27.8057C57.7486 28.5298 56.6587 28.4102 55.9467 29.6191C55.2663 31.9363 54.5858 34.2534 53.9054 36.5705V40.1218C53.4644 43.0434 52.6202 46.9032 53.225 49.8689H53.603C53.3447 51.9531 57.8242 56.1025 58.5928 58.7849C59.0276 60.3087 59.1977 62.2858 58.6684 63.8473C57.2005 68.192 54.9009 71.7244 52.9226 75.4834C52.3303 76.6168 51.9586 77.7313 51.1837 78.5813C50.6545 78.8836 50.1252 79.1858 49.596 79.488L48.9912 79.2614C48.84 77.7061 50.1315 76.1949 50.7301 75.0301C52.2295 72.1022 53.5589 69.105 54.7371 65.963C55.2663 64.5463 55.4931 62.0528 54.5102 60.9005C53.9306 60.2205 53.2124 59.8364 52.5446 59.2382C51.8515 58.6149 51.5869 57.5759 50.4276 57.4248C49.5015 58.5582 48.1721 59.1564 47.1011 60.1449C45.2803 61.8261 43.3335 63.4821 41.8844 65.8119C39.1816 70.1628 41.5757 80.9551 42.9429 84.3994C43.4847 85.7594 44.3605 86.8928 44.7574 88.4796C42.1931 87.7744 41.2796 84.7079 39.9943 82.6615C39.2572 81.4967 37.6254 80.7851 37.0458 79.488C36.6426 77.2968 36.2394 75.1056 35.8361 72.9144C35.9117 72.184 35.9873 71.4536 36.063 70.7232C35.4392 68.4501 34.2611 66.1519 33.4168 63.9985C33.2908 63.2681 33.1648 62.5377 33.0388 61.8072C32.5348 60.0631 32.0182 58.0671 31.3755 56.367L31.2243 56.5181C30.3171 57.2233 29.4098 57.9286 28.5026 58.6338C26.455 60.0442 21.2005 61.908 18.2205 62.1095C18.5166 63.8222 20.0413 65.1067 19.5814 67.6253C19.0584 70.4965 16.8722 72.6563 17.7669 76.3146C18.4095 78.9465 20.5264 81.3266 22.0763 83.1904V83.266C21.8495 83.3604 21.9881 83.266 21.8495 83.4171C18.8757 82.5608 15.1837 78.7262 14.5159 75.4834C14.2702 74.2934 16.2422 71.4347 16.5572 70.2698C17.2691 67.6568 14.5537 63.6773 13.0038 63.0162C11.7501 63.2806 9.40636 65.1759 8.99684 66.1897C9.04724 67.6001 9.09764 69.0105 9.14804 70.421C8.76373 70.4021 8.95273 70.1817 8.77003 70.4965C9.13544 70.6099 9.00314 70.4713 9.07244 70.8743L8.54321 70.7988C8.46131 70.5217 8.48021 70.5784 8.3164 70.421H8.2408C8.266 70.9184 8.2975 71.5858 8.08959 71.8566L7.56037 71.4788C7.64857 70.9121 7.83758 71.0506 7.93839 70.4965C7.34616 70.2636 7.23275 69.5206 6.72873 69.212C6.01679 68.7776 5.27336 68.8279 4.76303 68.2298C3.99439 67.3293 4.46692 65.2326 4.76303 64.3762C5.73328 61.5302 6.93664 59.5908 9.52606 58.4071V58.1804C8.1904 57.1352 7.26425 54.881 6.2751 53.4958C4.99614 51.7075 2.0602 50.0641 0.907244 48.2822C0.718235 47.9485 0.793839 47.6273 0.83164 47.1488C1.23486 46.6703 1.63808 46.1917 2.0413 45.7132L1.9657 45.4865C1.07105 45.5306 0.61743 46.1162 0.226811 45.7132C-0.0126006 45.5558 0.0378018 45.6376 0 45.2598C0.592229 43.7801 1.58768 43.5094 2.72173 42.6153C3.75498 41.4063 4.78823 40.1974 5.82148 38.9884C5.87188 38.4343 5.92229 37.8802 5.97269 37.3261C6.42001 34.8201 6.64052 30.5951 4.00699 29.6191C3.51557 29.5499 3.04305 29.8899 2.49492 29.9969C0.806439 23.1462 9.47566 13.928 13.2306 10.276C13.8985 9.62747 14.4655 8.73336 15.1963 8.16037C15.5996 8.05962 16.0028 7.95888 16.406 7.85813C17.0927 7.3607 17.2313 6.24621 18.4473 5.8936V6.12028C16.5698 10.1249 14.5033 14.1988 13.3818 18.8897C12.3801 23.0896 12.9471 27.1257 13.155 30.8281C15.0325 30.2425 16.721 27.1635 18.4473 26.0678C17.7858 29.4365 15.0829 31.7348 13.8355 34.7571C13.9111 35.412 13.9867 36.0668 14.0623 36.7217C14.1505 37.3387 13.3251 38.7618 13.0038 39.2151C12.4053 40.0463 11.3532 39.5929 10.6601 40.0463C10.1183 40.3989 8.47391 42.9301 8.3164 43.4464C8.1715 43.9187 9.37485 46.431 9.60167 46.771C11.1326 49.0819 12.6699 51.5753 14.1379 53.9491C14.5915 54.7299 15.0451 55.5107 15.4988 56.2914C16.3997 56.5307 18.2268 55.454 19.1277 55.1581C23.4434 53.735 25.3524 50.933 29.1074 49.1133C29.1515 44.3216 22.7378 41.3497 21.8495 37.4017C21.7613 37.0113 24.7476 30.1417 25.1004 29.1658C26.0014 26.6912 24.6846 26.0741 26.9905 24.7078C26.9527 25.9167 27.148 26.6031 27.3685 27.4279C27.6961 28.6557 27.1291 29.8962 27.4441 30.8281C29.7311 31.0296 32.4277 31.6844 34.7777 31.0547C34.7273 27.7364 32.0434 21.6539 30.6195 19.4187L31.0731 19.192C30.9282 19.0472 31.0416 18.959 30.9975 18.5875C34.3871 18.6127 34.5257 20.6276 37.1214 21.081L37.4994 20.7787C37.323 21.6414 36.7371 22.0506 36.5166 22.8188C36.567 23.3729 36.6174 23.927 36.6678 24.4811C36.4914 26.962 36.8505 28.7376 39.3139 29.1658C39.5659 29.6884 40.0825 30.2362 39.9943 30.9036C39.9943 30.9036 38.9989 33.5608 38.9359 33.6237C38.5957 33.7056 38.4886 33.4726 38.1799 33.6237C37.8018 34.5368 37.0332 35.1979 36.5166 35.9661C35.4959 37.4898 34.8533 39.1647 34.2485 41.1041C34.0532 41.74 33.2089 43.2008 33.4924 44.0509C34.2674 46.368 36.8316 47.6903 38.6335 49.0378L38.5579 49.7934L37.953 50.1712L38.2555 50.6245C37.4112 50.6497 37.1277 51.1912 36.6678 51.6823C37.0962 54.0247 37.5246 56.367 37.953 58.7093C38.3311 59.2382 38.7091 59.7672 39.0871 60.2961H39.2383C40.0762 57.5696 41.8781 55.1832 42.1868 51.8335C42.3318 50.2152 40.1707 49.0944 41.2796 47.5266C38.8036 45.5243 42.4515 37.471 43.3209 35.5883C43.6863 34.8012 45.0031 32.6981 44.5306 32.2637C44.2407 31.2122 43.6044 30.9666 43.0941 30.2236C42.294 29.065 42.023 27.9316 40.9772 27.0501L41.1284 26.5968C40.3283 26.2756 40.0069 25.6586 39.8431 24.7078C40.3598 24.2733 40.6937 24.0152 41.3552 23.65C41.1977 23.3414 41.1473 23.2911 41.204 22.8944C42.1364 22.5921 43.428 20.2561 43.1697 19.192L42.7917 18.5119L42.4137 18.8142L42.3381 18.6631C42.3129 18.2097 42.2877 17.7564 42.2625 17.303C42.4641 16.0689 43.6863 14.7403 44.5306 14.054H44.6818C45.2677 15.3007 47.2208 17.536 48.3863 17.4541C48.651 20.6843 46.3198 23.1525 44.833 25.01V25.0856C46.1308 25.2367 47.3216 25.7278 48.2351 26.2945C49.4889 25.0037 49.407 22.3781 49.7472 20.1742C50.0559 18.1656 50.0496 16.1822 49.218 14.8851C49.2936 13.9784 49.3692 13.0717 49.4448 12.165C49.1487 10.4397 48.5439 8.18556 47.7059 6.80031C46.9751 5.64174 46.2442 4.48317 45.5134 3.3246C45.0472 2.87754 44.2785 2.91532 44.1525 2.11565C44.6944 1.09561 45.9229 0.837445 46.6475 0Z" fill="white"/>
<path d="M356.774 12.3917C356.755 15.6218 358.406 17.6745 359.647 19.9476C360.151 21.1061 360.655 22.2647 361.159 23.4233C361.499 24.0152 362.74 23.5933 363.427 24.33C363.175 24.6259 362.942 25.0352 363.427 25.2367C363.698 25.5075 364.592 25.8727 364.939 25.9923C364.529 26.8549 363.666 27.3901 363.124 28.1079C362.62 29.1406 362.116 30.1732 361.612 31.2059C361.134 31.2185 360.882 31.3633 360.63 31.0547C360.491 30.8847 360.138 30.211 360.403 29.9214C359.477 28.5739 359.206 27.8624 357.303 27.2012C356.566 26.9431 355.81 26.7479 355.262 27.4279C355.816 28.5613 360.409 34.6879 361.31 35.2105C361.719 35.4498 362.236 35.2986 362.595 35.2105L362.217 35.815C362.368 35.9346 362.324 35.9157 362.595 35.9661C362.072 36.6146 361.789 37.4647 360.932 37.7795C360.478 37.7543 360.025 37.7291 359.571 37.7039C358.248 38.1384 357.46 38.5099 356.925 39.744C356.421 41.3308 355.917 42.9175 355.413 44.5042C355.262 45.688 355.11 46.8718 354.959 48.0555C354.89 48.2255 354.613 48.3074 354.657 48.66C355.161 50.549 355.665 52.4379 356.169 54.3269C356.522 54.7299 356.875 55.1329 357.227 55.5359C357.416 56.0585 357.007 56.77 357.076 57.1982C357.101 57.3682 357.807 60.1135 357.832 60.145C357.99 60.3464 358.563 60.6676 358.664 60.9005C358.708 61.0076 358.494 61.335 358.588 61.6561C358.891 62.4117 359.193 63.1673 359.495 63.9229C360.371 67.4805 358.739 70.5721 358.059 73.2922C357.574 75.2379 358.292 77.725 357.605 79.7147C356.793 79.8658 356.73 80.7726 356.093 81.0748C355.388 81.4085 354.865 81.3015 354.279 81.6793C353.876 82.0571 353.472 82.4349 353.069 82.8127H352.994L352.842 82.4349C351.941 82.7119 351.532 83.1275 351.103 82.0571C350.883 80.9678 351.872 80.4451 352.238 79.7147C352.76 78.6695 353.113 77.2654 353.145 75.9368C352.899 75.9368 352.842 75.9557 352.616 75.7857C352.773 75.4016 352.697 75.049 352.994 74.7278H353.296V72.3855C353.006 71.9385 352.338 71.6866 352.162 71.101C352.212 70.5469 352.263 69.9928 352.313 69.4387C351.759 67.3294 349.434 64.2818 347.626 63.3184L347.55 63.4696C347.865 64.4203 348.294 66.5675 347.626 67.2475C347.191 67.2979 347.078 67.7197 346.567 67.9275C346.466 68.6831 346.366 69.4387 346.265 70.1943L346.567 70.1187L346.643 70.1943C346.265 71.3529 345.887 72.5114 345.509 73.67C344.35 74.35 343.19 75.0301 342.031 75.7101C342.126 76.8309 342.737 77.3913 342.938 78.4302C343.833 82.9764 345.597 85.9987 346.945 90.4441C347.418 91.9931 348.772 93.1831 348.457 95.0532C347.185 95.6388 346.763 97.2381 345.66 98L345.358 97.9244C345.061 93.7246 344.368 89.2289 342.485 86.3639C341.54 84.922 339.92 83.9838 338.856 82.6615C338.402 82.0822 337.948 81.503 337.495 80.9237C336.184 79.9036 334.874 79.0599 334.017 77.5991C334.269 76.919 334.779 76.5475 335 75.9368C335.409 74.7971 335.517 73.7456 336.058 72.7633C337.066 70.931 339.259 69.2687 338.629 66.1897C337.885 62.588 335.573 60.5102 333.261 58.4827C332.927 58.193 331.226 56.2726 330.917 56.6692C330.18 56.8833 329.764 57.576 329.254 58.0293C326.368 60.6172 325.121 64.074 324.264 68.7587C323.899 70.7547 325.039 72.0833 324.567 73.9723C324.189 75.4897 323.073 75.9431 322.374 77.0702C321.574 78.361 321.423 79.8344 321.164 81.5281C320.881 83.3919 321.517 86.1309 322.147 87.6484C322.513 88.5236 323.47 89.1218 323.735 90.2174C323.867 90.7652 322.84 91.8671 322.525 92.1064H322.45C322.336 91.3445 321.782 91.2375 321.542 90.5952C320.875 88.7944 320.736 87.2832 320.182 85.2305C319.678 84.0468 319.173 82.863 318.669 81.6793V76.0879C317.794 70.7358 316.439 66.2463 314.587 62.0339C314.385 61.4043 314.184 60.7746 313.982 60.145C311.827 56.4237 308.507 53.691 305.741 50.549C304.683 49.3463 302.415 48.4963 301.961 46.771C301.085 46.834 300.21 47.5392 299.769 47.1488C299.844 46.6199 299.92 46.091 299.995 45.5621C300.197 44.882 300.651 43.9753 300.978 43.2197C302.339 41.2048 303.7 39.1899 305.061 37.175C306.27 35.6261 309.282 33.7497 309.899 31.9614C310.391 30.5384 310.655 23.184 309.899 22.8188C309.005 23.6689 307.638 23.864 307.178 25.1611C307.512 25.3437 307.304 25.2682 307.178 25.5389L306.875 26.1434C306.516 26.0804 306.661 25.9608 306.422 26.1434C305.716 26.5905 304.689 28.1394 304.38 28.9391C304.248 29.2917 304.588 29.5436 304.305 29.7702L303.7 29.9214L303.246 29.2413C302.723 28.1205 303.92 26.9116 304.229 26.0678C304.462 25.4382 304.053 25.1674 304.002 24.5567H304.078C304.418 24.6826 304.286 24.6574 304.607 24.4811C304.714 24.0655 304.847 23.9081 304.834 23.5744H305.212C305.256 22.7936 305.678 22.3214 306.27 22.2143C306.27 20.6339 307.411 20.4513 307.783 19.4187C309.049 15.8674 314.221 11.0064 317.309 8.61372C318.317 7.83295 319.892 5.3332 320.862 4.98689C321.139 5.72989 321.624 5.04986 321.92 5.44025C321.379 5.73619 321.448 6.33436 321.089 6.80031C320.528 7.53701 319.646 8.00295 319.047 8.76484L316.931 10.8805C312.867 15.7603 311.815 20.2183 314.738 26.3701C314.788 26.9494 314.839 27.5287 314.889 28.1079C315.86 27.579 319.111 26.0427 319.426 25.0856C320.345 25.1297 321.202 25.0478 321.845 24.6322C321.794 21.6162 321.857 15.2629 323.584 14.054C323.584 18.0397 323.962 21.3895 324.415 24.7833C324.504 25.4256 325.14 27.7868 325.02 28.1835C324.296 30.6266 321.385 31.3759 319.879 33.0948C317.586 35.7079 316.105 38.9066 314.662 42.3886C314.083 43.7801 312.646 47.2181 313.528 49.1133C315.393 53.1306 319.602 55.0888 321.92 58.6338C323.577 56.9589 324.604 54.9251 326.835 53.798V53.4202C326.255 53.0928 325.675 52.7654 325.096 52.4379C324.025 52.0413 322.38 52.2427 321.694 51.3801C321.209 50.7693 321.574 49.8249 321.164 49.1889C320.522 48.1752 318.966 47.1488 319.728 45.411C320.194 44.3594 321.713 43.6731 322.525 42.9175C322.979 43.1946 323.433 43.4716 323.886 43.7487C324.34 43.2197 324.963 42.5271 325.701 42.313C326.343 42.1241 326.683 42.4893 327.137 42.313C327.647 40.147 329.021 38.6547 329.405 36.0416C329.752 33.693 327.175 32.6919 327.742 30.7525C328.353 28.662 330.514 27.3649 332.505 26.6723C333.318 26.389 334.212 26.7164 334.849 26.2945C337.722 24.3867 338.641 20.7221 341.955 19.192C343.121 18.6505 343.934 19.5698 344.753 19.4187C344.255 20.6843 344.261 22.3781 343.694 23.65C343.014 24.5063 342.333 25.3626 341.653 26.219C340.821 29.4176 339.99 32.6163 339.158 35.815C337.734 39.6118 336.216 42.779 334.017 45.7132V45.8643C335.176 46.5695 336.336 47.2747 337.495 47.98C337.4 48.2066 337.394 48.1185 337.419 48.3578L336.814 47.98V48.2066C337.476 49.2645 338.578 51.336 339.687 51.909L339.536 51.6068C340.809 52.5198 341.136 54.9125 342.787 55.3847L342.258 54.478V54.4025H342.56C342.837 54.9251 343.323 55.284 343.467 55.9137C345.761 55.1707 346.403 51.5501 347.55 49.5667C348.476 47.9611 349.667 46.3428 350.272 44.4287C351.242 41.3371 349.85 36.5328 349.213 33.7749C349.264 32.3896 349.314 31.0044 349.365 29.6191C349.251 28.958 348.64 28.2842 348.306 27.8057C347.752 26.496 347.197 25.1863 346.643 23.8766C345.969 21.9247 345.704 17.3597 346.492 15.414C346.611 15.1181 346.857 14.9922 346.945 14.5073H347.399C347.544 14.5514 351.198 15.2188 351.255 15.2629C351.418 15.4203 351.406 15.5211 351.406 15.8674L351.33 16.0185C350.889 16.0185 350.744 16.3333 350.423 16.7741C351.122 18.4049 352.187 19.6957 352.842 21.6099L352.994 21.5343C353.138 20.2498 354.09 13.8651 353.901 13.5251C353.472 11.8565 349.824 6.03212 348.609 5.06245C348.079 4.64058 347.323 4.61539 346.643 4.30686C346.555 2.87124 347.582 1.15227 348.76 0.755589C348.987 2.17232 350.795 3.56386 351.633 4.53354C353.548 6.74993 354.884 9.65266 356.093 12.5428L356.774 12.3917Z" fill="white"/>
<path d="M82.5592 51.3801C82.5592 52.1735 83.2396 54.881 83.6176 55.1581C83.9704 55.4162 84.2603 55.2336 84.7517 55.1581C85.9865 59.509 79.6232 61.6939 77.9473 64.6785C75.7422 68.6013 76.0005 73.6952 76.2085 77.5991H75.906C75.6288 77.3598 75.6036 77.2024 75.3012 77.3724C75.3957 77.7502 75.3327 77.9139 75.6036 78.2035L75.6792 77.7502H75.9816C76.0257 78.4176 76.303 78.6569 76.5109 79.2614C76.1518 79.1417 76.2211 79.0284 75.906 78.8836C76.5235 80.017 77.1346 80.8103 77.2669 81.8304C77.0464 81.8682 76.8952 81.7674 77.0401 81.9815C77.8213 82.5041 77.4685 82.7686 77.6449 83.4171C77.8843 84.2986 78.7034 84.9535 79.2326 85.6839L79.0814 86.1372C79.5224 87.044 79.7303 87.6988 80.5179 88.2529V88.4796H79.913C79.9697 88.9077 80.0579 88.8763 80.2155 89.1596C78.3947 88.6307 77.3047 85.9232 76.2841 84.3238C75.1626 82.5671 73.4615 80.7663 72.4283 78.9591C72.2267 78.2791 72.0251 77.5991 71.8234 76.919C71.3698 76.1635 70.9162 75.4079 70.4626 74.6523C70.3114 73.8463 70.1602 73.0404 70.009 72.2344C69.2718 69.7976 68.1693 67.2223 68.6481 64.2251C68.7867 63.3562 69.6057 63.3499 69.7821 62.4873C69.6624 62.2039 69.0702 61.1524 69.2529 60.7494C69.8703 59.3705 73.2662 53.6595 72.6551 51.7579C72.2267 51.1031 71.7982 50.4482 71.3698 49.7934C70.1602 47.6022 68.9505 45.4109 67.7408 43.2197C68.3268 42.8419 68.5788 42.0612 69.2529 41.7841C69.6813 41.8093 70.1098 41.8345 70.5382 41.8597C71.332 41.4756 75.1815 35.689 75.3012 34.606C75.4146 33.5419 74.4381 32.3204 73.7135 31.8103C73.745 29.4995 72.2645 29.1469 71.4454 27.579C71.0107 26.7416 69.5427 21.0747 69.7065 20.1742C71.143 18.5371 72.5795 16.9 74.016 15.2629C75.3957 13.3236 76.0068 10.9183 77.4937 9.14264C78.842 7.53071 81.4251 5.66063 83.4664 4.83577C84.7517 4.48316 86.0369 4.13056 87.3222 3.77795C87.5238 3.42534 87.7254 3.07273 87.927 2.72012C88.7839 2.36751 89.6407 2.0149 90.4976 1.6623C91.2095 1.40414 92.898 1.73156 93.7485 1.58674C92.7279 3.23644 91.0394 3.92907 89.8927 5.36469C87.9396 7.80776 85.199 11.3779 83.9956 14.3562C83.9452 14.9607 83.8948 15.5651 83.8444 16.1696C83.164 19.1227 83.0569 24.9471 83.3152 28.4857C83.1388 29.9969 82.9624 31.5081 82.786 33.0193C83.1766 34.3479 84.632 35.242 85.4321 36.2683L86.0369 36.1172V36.3439C84.8651 36.9295 85.6148 39.127 85.4321 40.1218C85.1801 40.7011 84.9281 41.2804 84.6761 41.8597C84.38 44.0887 86.8182 45.7573 87.6246 47.1488H87.549C85.7156 46.5066 84.1027 45.3102 82.6348 44.2776C82.6537 42.8797 82.975 41.5323 82.5592 40.8019C81.5763 40.5185 78.8231 37.578 78.1742 37.9306C77.0275 38.3147 76.3345 41.2552 76.7377 42.9175C77.0905 44.3594 78.3254 45.2346 78.8546 46.5443C79.5413 48.2507 79.9634 49.9445 80.6691 51.5312C81.2991 51.4809 81.9291 51.4305 82.5592 51.3801Z" fill="white"/>
<path d="M119.076 27.5035C116.159 27.3712 114.521 28.662 113.632 30.7525C113.399 31.3066 113.475 32.0874 113.103 32.4904L112.801 32.4148C112.549 31.5144 111.9 30.6832 112.045 29.3924C112.215 27.8876 114.136 27.1823 115.296 26.5968C118.175 25.1548 121.653 24.6259 123.083 21.761C121.193 21.7106 119.303 21.6602 117.412 21.6099C113.657 20.615 109.254 20.1113 105.165 21.1565C100.767 22.2836 96.6719 25.5893 94.429 28.9391C93.8682 29.7828 92.7972 31.7663 92.9169 33.0948C93.0618 34.7068 95.2228 37.7291 96.1678 38.7618C92.5389 38.1195 89.8864 34.543 88.7587 31.1303C88.2421 29.5687 86.9568 28.6557 87.6246 26.4456C88.8091 22.5166 90.7748 19.5572 93.0681 16.7741C93.7989 16.1192 94.5298 15.4644 95.2606 14.8096C96.1426 13.8021 97.0247 12.7947 97.9067 11.7872C98.5116 11.3842 99.1164 10.9812 99.7212 10.5783C100.169 10.0808 99.7842 9.45747 100.628 9.29375C101.303 9.96119 103.76 13.0969 102.745 14.054C102.481 14.0099 102.525 14.0288 102.292 14.1295C102.248 15.8107 102.411 17.0197 103.199 17.983C104.61 18.0082 105.707 17.9012 106.677 17.303C107.3 16.9189 111.503 11.7179 111.742 11.0316C111.912 10.5342 111.541 10.169 111.742 9.67155C112.208 9.45747 112.473 9.19301 113.103 9.06708C113.935 9.47006 114.766 9.87304 115.598 10.276L116.203 10.8805C116.549 11.0316 116.871 10.8553 117.11 11.0316C116.902 11.6676 117.368 11.6676 117.261 12.3161C116.669 15.7855 122.087 16.3207 125.88 16.3207H129.358C130.731 15.9366 132.054 14.8536 133.516 14.3562C134.719 13.9469 136.036 13.7077 137.372 13.4495C138.745 13.185 142.582 12.7884 143.723 13.2228H143.571C141.429 14.5388 138.115 14.7466 135.935 16.0185C129.685 19.6579 122.188 27.7301 123.461 37.3261H124.292C125.993 36.558 126.731 35.5253 127.317 33.6993C127.947 31.7159 127.26 29.9654 128.753 28.9391H130.038L130.114 29.0146C130.12 34.2849 130.681 35.4309 127.392 38.5351C125.37 40.4429 122.094 41.3622 119.151 42.313C116.858 43.056 110.274 46.9662 109.701 49.0378C109.436 50.0012 109.638 55.6744 110.003 57.3493C110.709 57.3745 111.415 57.3996 112.12 57.4248C113.424 56.644 114.445 55.9514 116.278 55.4603C118.295 54.9188 120.317 56.0711 121.797 55.8381C122.339 52.7717 122.283 52.1798 124.822 50.8512C124.129 49.1952 125.817 48.4963 126.712 47.9044C128.696 50.1208 130.089 53.3069 131.172 56.367C131.878 58.3567 132.306 63.7529 131.853 66.4919C130.757 73.1222 130.29 79.3873 127.619 84.3238C126.561 86.2821 124.292 90.9352 121.797 91.1241L121.646 90.8975V90.6708C122.302 89.5122 122.957 88.3536 123.612 87.1951C124.166 85.7846 124.721 84.3742 125.275 82.9638C125.729 81.1 126.183 79.2362 126.636 77.3724C126.687 76.0879 126.737 74.8034 126.787 73.5189C126.138 67.9149 123.322 60.1512 117.412 64.8296C116.537 64.7352 116.171 64.3888 115.522 64.8296C115.302 65.4278 114.697 65.6356 114.464 66.1141C114.414 66.4667 114.363 66.8193 114.313 67.1719C112.637 67.3356 111.837 68.8972 109.701 68.3809L109.172 67.6253C109.096 67.2349 109.398 67.1405 109.474 66.7941C109.695 65.8308 108.876 63.7907 108.34 63.1673C106.28 60.7872 103.583 62.588 101.536 63.6962C98.0327 65.5915 92.5767 73.7078 95.3362 78.808C93.1815 78.7828 92.1609 75.6723 92.3121 73.8967C91.9277 73.8274 91.9907 73.7896 91.7828 73.5944C91.9781 69.9298 93.8619 66.9453 93.0681 62.7895C92.6838 60.7746 93.5973 59.0493 92.0096 58.1049C91.9277 57.4626 91.8647 57.1289 92.4633 56.9715C93.5217 56.0144 94.5802 55.0573 95.6386 54.1002C97.346 52.4757 98.4738 50.2971 99.948 48.4333C100.698 47.4825 101.649 46.6514 102.292 45.5621C103.854 42.9112 105.902 37.7921 108.189 36.1172C109.323 35.286 110.596 34.4171 112.649 35.0594C113.185 35.2294 113.708 35.4686 114.54 35.2105C116.776 34.5179 117.097 32.2574 118.017 30.148C118.364 29.3484 119.019 28.5424 119.076 27.5035Z" fill="white"/>
<path d="M404.102 44.882C403.843 44.4035 404.398 44.5861 403.799 44.2776V44.202C403.95 44.0509 404.102 43.8998 404.253 43.7487C404.278 43.6731 404.303 43.5975 404.328 43.522C402.577 43.0812 400.907 42.5712 399.868 41.2552C399.792 41.1293 399.717 41.0033 399.641 40.8774C402.111 36.3879 405.708 29.2791 403.043 23.0455C402.508 22.9636 402.155 23.3288 401.531 23.4233C400.114 22.2899 398.853 18.9842 397.751 17.3786C395.42 13.9847 392.446 11.0694 390.115 7.70702C389.258 6.47289 387.349 5.44025 386.864 3.92907C385.257 3.1294 383.336 4.65318 383.613 6.72475C384.104 7.08366 384.842 7.11514 385.428 7.48034C385.856 7.88332 386.284 8.2863 386.713 8.68928C386.234 10.9686 382.492 14.1358 381.118 15.8674C378.718 18.896 376.569 22.4788 374.919 26.219C374.616 27.1005 374.314 27.982 374.011 28.8635C372.247 32.3518 370.905 37.1876 372.802 41.3308C372.695 42.3697 370.546 44.2524 369.929 45.1843C368.095 47.9548 366.823 50.6119 365.695 54.1758C364.17 59.0053 366.256 63.3058 366.98 67.0208C367.207 68.1731 367.119 69.338 367.434 70.5721C367.358 70.9499 367.283 71.3277 367.207 71.7055C367.831 73.5693 368.518 75.3071 369.097 77.2968C369.223 78.3295 369.349 79.3621 369.475 80.3948C369.929 81.2763 370.382 82.1578 370.836 83.0393C371.365 83.6186 371.894 84.1979 372.424 84.7772C372.449 84.9031 372.474 85.029 372.499 85.155C374.068 85.2746 374.938 86.8928 376.053 87.5729C379.215 89.5059 382.252 92.4275 386.637 92.7864C386.354 91.9049 386.07 90.8849 385.579 90.1419C385.169 89.5248 384.527 89.6759 383.84 89.3107C382.813 88.7629 378.995 85.6965 378.396 84.7772C375.901 80.9489 374.824 74.5893 375.448 69.9676V65.0563C376.242 63.2932 381.811 60.5605 383.991 59.9938C384.004 59.8049 383.978 59.6349 384.142 59.4649C384.646 59.1879 385.522 59.8238 386.259 59.5405C388.2 58.936 390.14 58.3315 392.081 57.7271C392.415 57.7397 392.452 57.7145 392.61 57.8782C393.202 58.9045 392.956 60.7179 393.82 61.6561C394.569 62.4684 396.239 62.2039 397.146 62.8651C398.658 63.967 399.427 65.9063 400.019 67.9275C401.172 71.8566 398.589 77.6054 397.146 79.9414C396.535 80.93 395.603 81.6478 394.954 82.6615C394.223 83.8012 392.32 84.7898 392.232 86.4395C394.361 88.0199 397.6 85.6461 398.961 84.0216C398.835 84.0468 398.709 84.072 398.583 84.0971C399.307 81.9563 401.752 81.3455 402.968 79.6392C404.612 77.322 404.656 74.0856 405.538 71.101C405.154 71.2206 405.229 71.3592 405.236 71.6299L405.084 71.781C405.04 71.6929 404.82 67.9212 404.933 67.6253L405.387 67.1719C404.694 66.3471 405.066 64.5777 404.706 63.3184C404.253 61.8072 403.799 60.2961 403.346 58.7849C402.867 57.7963 401.852 56.8329 401.758 55.5359C403.308 55.5359 404.757 54.5725 405.387 53.6469C405.563 53.1431 405.74 52.6394 405.916 52.1357C406.439 51.3423 407.39 50.8701 407.806 49.9445C408.008 49.743 408.209 49.5415 408.411 49.34C408.008 49.0882 404.297 45.2472 404.102 44.882ZM396.088 38.1573C394.891 40.9593 393.057 43.8431 390.569 45.3354C389.359 44.0698 388.508 42.6279 388.074 40.5752C388.023 39.6937 387.973 38.8121 387.922 37.9306C387.733 37.6284 387.494 37.578 387.091 37.7039C386.429 37.5591 386.36 39.2214 386.032 39.744C385.358 40.8207 383.09 41.2174 381.799 40.3485C381.502 40.4492 381.54 40.4933 381.345 40.6507H380.816C380.967 40.1092 380.998 39.6811 381.572 39.5173C381.244 38.9758 381.339 38.4595 381.421 37.6284C378.705 37.5339 378.888 32.5659 379.606 29.468C380.602 25.1674 382.082 21.3769 384.142 18.1342C385.302 16.5222 386.461 14.9103 387.62 13.2984C387.778 13.5314 388.13 14.8536 388.225 15.2629C388.074 15.3385 387.922 15.414 387.771 15.4896C387.721 15.5652 387.67 15.6407 387.62 15.7163C387.746 15.8674 387.872 16.0185 387.998 16.1696C387.689 16.8119 387.689 17.536 387.771 18.512L387.922 18.7386C388.193 18.6316 388.162 18.6757 388.3 18.4364C388.477 18.6631 388.653 18.8897 388.83 19.1164C389.056 19.2801 388.849 19.2046 389.132 19.1164C389.271 19.3431 389.302 19.5572 389.208 19.872C389.403 19.8594 389.296 19.8783 389.51 19.7965C389.661 20.2372 390.039 20.9172 389.888 21.3832C389.989 21.4084 390.09 21.4336 390.191 21.4588C390.266 21.6854 390.342 21.9121 390.417 22.1388C390.184 22.3655 390.43 22.2269 390.115 22.2899C390.304 22.5418 390.802 22.2899 390.947 22.5921C390.795 23.0203 390.644 23.4485 390.493 23.8766C390.644 24.5315 390.795 25.1863 390.947 25.8412C391.35 26.3953 391.753 26.9494 392.156 27.5035C392.591 28.278 394.179 32.8556 394.122 33.5482C394.727 33.8504 395.332 34.1527 395.936 34.4549C396.138 34.7382 396.1 35.1223 396.314 35.3616C396.503 35.5505 396.724 35.5253 397.146 35.5127C397.385 36.1991 396.396 37.4332 396.088 38.1573Z" fill="white"/>
<path d="M313.302 13.4495C313.465 13.5502 313.339 13.588 313.528 13.5251V13.4495H313.302Z" fill="white"/>
<path d="M161.414 16.3207V16.5474H161.489L161.716 16.3963L161.414 16.3207Z" fill="white"/>
<path d="M440.996 18.1342L440.694 18.3608V18.512L440.845 18.5875L441.147 18.512V18.1342H440.996Z" fill="white"/>
<path d="M275.046 39.4418C274.731 37.6725 274.511 35.8213 273.912 34.3038C272.753 31.9363 271.594 29.5688 270.434 27.2012C269.527 25.3689 268.903 23.6374 267.713 22.1388C266.654 20.8039 264.569 20.2057 263.328 19.0409C261.406 17.24 259.308 14.2492 256.07 13.9029C256.41 12.908 261.526 10.0053 262.798 9.74711C262.37 9.57081 261.942 9.3945 261.513 9.2182C261.942 8.853 263.132 8.68299 263.857 8.68929V8.61373C262.698 7.66294 260.335 7.35441 258.262 7.40478C257.733 7.45516 257.204 7.50553 256.674 7.5559C254.583 8.05963 252.491 8.56335 250.399 9.06708C245.529 11.1135 241.163 14.1799 237.32 16.7741C236.52 17.3156 235.625 17.536 234.901 18.1342C233.893 19.3179 232.885 20.5017 231.876 21.6854C231.473 22.0632 231.07 22.441 230.667 22.8188C230.037 24.2985 229.936 25.4634 229.306 26.8234C228.424 28.7313 226.433 30.8595 226.357 33.3215C228.468 35.7331 231.366 33.1074 233.162 36.1928C233.414 36.2179 233.666 36.2431 233.918 36.2683C234.321 35.8905 234.724 35.5127 235.127 35.1349C235.802 36.2683 236.035 37.5276 236.413 38.9884C236.847 40.6759 238.7 45.008 238.227 47.1488C238 48.2066 237.774 49.2645 237.547 50.3223C237.427 51.3297 237.421 52.8535 236.866 54.0247C235.027 57.9097 233.105 60.762 232.633 65.5852C232.557 66.3408 232.481 67.0964 232.406 67.852C232.551 68.3998 233.338 71.1388 233.691 71.5544C234.258 72.2281 235.064 72.6814 235.581 73.4433C236.161 74.6523 236.74 75.8612 237.32 77.0702C238.038 78.3106 239.443 79.1669 240.571 80.017C241.075 80.3948 242.291 81.5911 242.99 81.377H243.141C241.951 78.7199 240.388 76.4657 239.588 73.2922C239.437 72.5366 239.286 71.781 239.134 71.0254C239.16 70.421 239.185 69.8165 239.21 69.212C239.116 68.7965 238.851 68.6264 238.832 68.0031C238.763 65.6671 238.712 61.7506 240.042 60.7494C240.899 60.1387 241.258 61.1524 241.705 61.3539C242.209 61.4295 242.713 61.505 243.217 61.5806C243.671 62.185 244.124 62.7895 244.578 63.394C244.931 63.8788 245.536 63.7844 246.014 64.1496C246.468 64.4959 246.657 65.1067 246.997 65.5852C247.659 66.5108 248.207 67.619 248.887 68.6076C249.265 68.9602 249.643 69.3128 250.021 69.6654C250.173 70.2447 250.324 70.824 250.475 71.4032C250.714 71.7055 251.086 71.7118 251.231 72.1588C251.332 72.9144 251.433 73.67 251.533 74.4256C251.867 75.5338 252.504 76.3712 252.894 77.3724C253.197 78.2287 253.499 79.0851 253.802 79.9414C254.306 80.4199 254.81 80.8985 255.314 81.377C256.07 82.3341 256.857 83.3164 257.582 84.2483C258.665 85.6398 260.322 88.0577 262.42 87.8751C262.471 88.0766 262.521 88.2781 262.572 88.4796C262.622 88.5551 262.672 88.6307 262.723 88.7063C263.082 88.2214 263.208 87.6358 263.252 86.9684C262.647 86.3135 261.79 85.9232 261.211 85.2305C260.618 84.5253 260.474 83.5745 260.001 82.7371C259.44 81.7485 258.489 80.7663 257.96 79.7147C256.769 77.3472 256.29 74.6271 255.465 71.781C255.673 70.465 262.017 69.6402 262.95 67.7764C263.246 67.1845 262.742 66.4037 263.025 65.8119C263.529 65.0563 264.033 64.3007 264.537 63.5451C265.816 60.9446 266.257 57.7774 266.805 54.478C266.856 53.3446 266.906 52.2113 266.957 51.0779C267.007 50.1712 267.057 49.2645 267.108 48.3577C266.856 46.368 266.604 44.3783 266.352 42.3886C266.402 42.3634 266.453 42.3382 266.503 42.313C268.368 43.1316 270.611 44.3846 270.586 47.0732C271.109 47.3881 271.594 47.1992 272.324 47.1488C273.32 45.6565 274.845 44.7498 275.5 42.9175C274.958 42.1367 275.286 40.7956 275.046 39.4418ZM265.369 38.8373C265.167 38.5855 265.01 38.4658 264.915 38.0817C263.277 37.5402 260.322 39.3473 259.472 40.4996C259.9 42.1367 260.329 43.7738 260.757 45.411C260.625 46.6199 258.949 48.3766 258.338 49.4911C256.479 52.8787 255.477 59.0053 251.685 60.4472C250.595 59.5971 250.059 58.2623 249.114 57.2737C248.018 56.134 245.964 54.6732 244.427 54.1002C243.904 53.905 243.519 54.2262 243.217 54.1758H243.066C247.142 45.4991 245.548 34.4234 241.856 26.5968C243.715 23.4422 247.621 21.7799 249.946 19.0409C252.497 19.3179 253.663 22.1955 255.54 23.2722C256.643 23.9018 257.62 24.3993 258.565 25.1611C259.195 25.8664 259.825 26.5716 260.455 27.2768C261.564 28.1079 262.672 28.9391 263.781 29.7702C265.816 31.5396 268.941 36.5454 270.132 39.2151C269.678 39.6559 266.579 38.8562 265.369 38.8373Z" fill="white"/>
<path d="M451.959 23.8766C451.24 22.1955 450.088 20.5898 449.388 18.7386C448.764 17.0889 447.082 15.0551 448.027 13.4495C447.611 12.6246 446.232 12.9206 445.154 12.6939C442.949 12.228 440.908 11.6109 438.577 11.6361C438.306 12.0768 438.369 13.0339 437.972 13.4495C437.462 13.9847 431.237 16.7741 430.336 16.9252C430.235 17.026 430.134 17.1267 430.034 17.2274H429.958C430.059 16.8748 430.16 16.5222 430.26 16.1696C429.586 15.9241 428.95 15.7981 428.144 15.4896C428.068 15.4392 427.992 15.3888 427.917 15.3385C429.492 12.4735 432.73 10.7105 435.402 8.91596C436.58 8.12259 437.821 7.70072 438.652 6.57363C438.974 6.6366 438.715 6.50437 438.955 6.72475C439.207 6.4477 439.459 6.17065 439.711 5.8936C439.03 5.79286 438.35 5.69211 437.67 5.59137C435.887 5.84323 434.349 6.84439 432.982 7.5559C431.161 8.50668 429.196 8.89707 427.69 10.1249C422.902 14.0477 419.474 19.3305 415.442 24.0278C414.062 25.6397 412.21 27.4027 411.36 29.468C410.988 30.3747 411.435 31.6088 411.057 32.717C410.73 33.6678 410.528 34.2471 410.755 35.286C412.67 36.5643 414.522 34.5997 416.123 34.1527C416.828 34.7445 416.217 40.0148 416.198 41.633C415.619 42.3445 413.048 43.799 414.535 45.2598C415.297 46.5003 417.931 44.9639 418.693 47.2244C419.777 50.4293 418.964 56.1088 417.559 58.256C416.135 60.4346 414.088 63.054 413.93 66.1141H414.384C417.874 70.5406 413.672 77.0513 414.157 81.4526C414.604 85.5139 416.538 87.9884 415.593 91.8042C417.943 91.0549 420.344 89.9215 421.717 88.1773C421.887 87.2706 421.528 86.175 421.717 84.9283C422.139 82.1956 423.318 79.2173 423.607 76.4657C423.878 73.8652 422.895 70.3202 423.834 68.0031C424.414 66.5738 425.964 64.9933 427.236 64.2251C427.923 63.8096 428.767 63.8033 429.353 63.3184C430.267 62.5628 429.933 61.2657 430.336 60.3716C430.588 60.019 430.84 59.6664 431.092 59.3138C430.991 58.023 430.147 56.1592 429.58 55.1581C429.076 55.2084 428.572 55.2588 428.068 55.3092C426.587 54.4465 428.755 51.9972 429.504 51.7579C429.208 51.3927 428.767 51.1157 428.144 51.0779C427.696 50.4104 428.024 49.1008 427.917 48.2822C427.564 46.5443 427.211 44.8065 426.858 43.0686C426.884 43.0434 426.909 43.0182 426.934 42.9931C427.646 43.2197 431.703 48.7481 432.377 49.7178C432.957 50.2719 433.537 50.826 434.116 51.3801C435.666 53.4643 437.418 55.5107 439.182 57.4248C439.812 58.1112 440.813 58.9045 441.147 59.8427C441.525 60.9068 440.977 61.335 441.072 62.3362C441.822 70.1187 437.021 75.6849 434.494 81.377C434.393 82.0067 434.293 82.6364 434.192 83.266C433.808 84.1853 432.793 85.3313 432.453 86.2128C432.012 87.3588 432.888 88.234 432.68 89.0085C432.428 89.9467 431.628 92.0938 431.924 93.2398C432.277 93.6176 432.629 93.9954 432.982 94.3732C433.461 93.1957 433.247 91.609 433.965 90.6708C435.868 88.171 439.012 86.2821 441.072 83.8705C442.281 82.2586 443.491 80.6466 444.701 79.0347C445.74 77.9706 446.704 76.8813 447.347 75.4079C447.674 74.5264 448.002 73.6448 448.33 72.7633C448.632 72.354 449.174 72.3351 449.388 71.781C449.93 70.3832 449.647 67.3042 451.278 67.5497C451.505 66.9453 451.732 66.3408 451.959 65.7363C452.299 62.9847 449.344 62.6762 448.557 61.0517C447.158 58.1741 445.98 54.9881 444.172 52.4379C442.559 50.1586 441.065 48.024 439.635 45.4865C439.207 44.9324 438.778 44.3783 438.35 43.8242C438.079 43.3457 438.917 42.4893 439.106 41.9352C438.848 41.1545 439.894 40.254 440.24 39.744C441.305 38.1825 442.048 36.5265 443.567 35.4372C444.222 35.1097 444.877 34.7823 445.532 34.4549C445.658 34.4801 445.784 34.5053 445.91 34.5305C446.137 35.9787 447.101 37.5591 447.498 38.9884C447.838 40.21 447.341 44.2902 447.271 45.0332H446.893C447.07 46.1162 447.813 46.8214 448.783 47.1488C449.111 47.0229 449.439 46.8969 449.766 46.771C450.006 46.4247 450.031 46.3617 450.069 45.7887C450.119 45.7132 450.169 45.6376 450.22 45.5621C450.396 45.688 450.573 45.8139 450.749 45.9399H450.825C450.201 42.6719 452.337 39.9896 453.093 37.5528C453.244 36.6461 453.395 35.7394 453.546 34.8327C453.698 33.9008 453.849 32.9689 454 32.037C453.597 29.0713 452.979 26.2756 451.959 23.8766ZM435.023 38.9884H434.948C433.795 38.0565 432.554 37.1246 431.168 36.4194C430.317 35.985 429.41 36.2242 428.597 35.6638C427.69 35.0405 426.865 34.1086 425.422 34.0015C424.615 32.7107 424.074 31.1618 424.137 29.2413C424.741 28.9895 425.346 28.7376 425.951 28.4857C426.682 27.8498 427.293 27.0627 428.219 26.5968C431.678 24.84 434.866 22.9636 437.594 20.4765H437.896C439.421 22.3718 440.82 24.7393 441.979 26.9746C442.212 27.4279 442.017 27.9757 442.281 28.4857C442.817 29.5184 443.605 30.614 443.794 32.037C440.177 33.7182 436.321 35.0027 435.023 38.9884Z" fill="white"/>
<path d="M308.841 21.1565L308.917 21.3076C308.885 21.2384 308.98 21.2573 308.841 21.1565Z" fill="white"/>
<path d="M223.711 59.0116C222.306 59.4208 221.777 58.6086 220.611 58.3315C219.679 58.2812 218.747 58.2308 217.814 58.1804C214.538 56.4677 213.196 54.7173 211.237 51.4557C210.909 50.9016 209.164 47.8162 209.271 47.2244C209.725 46.3177 210.178 45.4109 210.632 44.5042C212.862 40.4996 215.546 40.2352 219.704 38.3084C220.309 39.1458 219.414 42.8482 219.326 42.9175C219.994 43.6164 220.656 43.2134 221.746 43.1442C222.237 42.4075 221.771 41.4819 221.972 40.3485C222.319 40.147 222.886 40.1029 223.258 40.0463C223.289 38.661 222.823 37.8802 222.804 36.495C222.905 36.3691 223.006 36.2431 223.106 36.1172L223.409 35.815V35.7394C223.024 35.8275 222.93 35.8653 222.502 35.815C221.84 32.27 221.626 28.9328 220.385 25.9167C219.944 24.84 219.068 23.99 218.419 23.121C217.865 22.2647 217.31 21.4084 216.756 20.552C215.124 18.7449 213.322 17.4667 211.312 16.0185C209.819 14.9418 207.935 13.1976 206.02 12.6939C205.995 12.6435 205.97 12.5932 205.944 12.5428C206.694 11.9698 209.095 11.5794 210.027 11.4094C210.562 11.3087 210.676 11.6928 211.237 11.485C211.715 11.2331 212.194 10.9812 212.673 10.7294C212.723 10.4775 212.749 10.2697 212.9 10.1249V9.89823C208.943 8.90337 205.988 9.99268 202.92 10.8805C202.208 11.0883 201.251 10.5531 200.728 10.4271C199.537 10.1375 198.378 10.446 197.401 10.6538C197.155 11.0442 196.815 11.485 196.872 11.9383C196.664 12.1335 196.425 12.2091 196.04 12.2406C196.015 12.442 195.99 12.6435 195.965 12.845C196.267 13.141 196.456 13.6573 196.796 13.9029C196.847 14.0036 196.897 14.1043 196.948 14.2051C195.171 15.137 194.138 17.2086 192.638 18.4364C191.428 17.0071 190.729 12.801 191.655 10.276C192.21 9.3945 192.764 8.51298 193.319 7.63146C194.327 5.76767 195.335 3.90388 196.343 2.04009H196.191C194.881 2.41789 193.571 2.79568 192.26 3.17348C191.983 3.5009 191.706 3.82832 191.428 4.15574C187.995 7.13403 186.76 10.9623 184.851 15.5651C184.681 15.9807 184.265 16.3207 184.095 16.8497C183.78 17.8193 183.874 19.0975 183.566 19.872C182.703 22.0254 181.48 25.7656 181.978 27.8813C183.169 28.4165 183.572 29.4554 184.397 30.5258C184.92 30.3558 185.008 30.0914 185.758 30.0725C185.834 30.1732 185.909 30.274 185.985 30.3747C186.149 31.7788 185.323 33.2711 185.002 34.4549C185.456 35.922 184.719 37.1561 184.775 38.5351C184.901 39.2403 185.027 39.9455 185.153 40.6507C185.128 41.1796 185.103 41.7086 185.078 42.2375C185.777 44.945 188.675 46.2484 190.068 48.4333C189.998 50.0389 188.253 50.8701 187.573 51.9846C186.829 53.1998 186.476 54.2954 186.212 55.8381C186.092 56.5244 185.991 57.3178 186.363 57.8782C187.466 59.5594 188.316 58.0293 189.614 58.4826C190.471 58.7786 191.592 60.082 192.033 60.825C191.517 61.9143 190.553 62.6384 189.765 63.4695C189.066 64.2062 188.889 65.3081 188.329 66.1897C187.491 67.5057 186.458 68.7209 185.758 70.2699C184.643 72.7318 186.023 78.4806 187.346 79.9414C188.001 80.2688 188.656 80.5962 189.312 80.9237C189.816 81.3078 189.721 81.6981 190.446 81.9815H190.521C190.899 78.1469 191.246 71.5984 193.243 68.2298C194.175 66.8445 195.108 65.4593 196.04 64.074C196.645 63.6207 197.25 63.1673 197.855 62.714C199.373 60.6802 200.003 58.5708 199.14 55.7625C198.768 55.4981 198.529 55.4351 197.93 55.5358C197.099 54.3962 196.469 52.9543 195.587 51.8335C195.612 51.7327 195.637 51.632 195.662 51.5312V51.3801C195.902 51.3927 195.706 51.2983 195.889 51.4557C196.614 51.1786 196.21 50.5364 196.721 50.1712C196.822 50.1208 196.922 50.0704 197.023 50.02C197.061 50.3349 197.061 50.2971 196.948 50.549C197.099 50.5993 197.25 50.6497 197.401 50.7001C197.691 50.486 197.911 50.3034 198.308 50.1712C198.422 49.9193 198.416 49.9571 198.384 49.6422C199.266 50.2215 199.676 51.1471 200.425 51.8335C201.95 53.2313 203.809 54.5788 205.415 55.8381C206.297 56.5307 207.904 57.4563 208.364 58.4826C208.546 58.8856 208.49 62.3739 208.364 62.7895C208.137 63.5577 206.801 64.2818 207.532 65.3585C208.742 67.1405 211.646 66.5864 213.278 66.0385C213.272 69.8606 211.93 71.674 211.085 74.5012C210.846 75.3134 210.682 75.899 210.481 76.4657C210.506 76.8939 210.531 77.322 210.556 77.7502C210.355 78.0524 210.153 78.3547 209.951 78.6569C209.384 80.061 209.447 81.9563 208.137 82.586C208.187 82.9386 208.238 83.2912 208.288 83.6438C208.112 83.669 207.935 83.6942 207.759 83.7194C207.948 84.6198 208.572 84.985 209.347 85.3061C210.928 82.0822 213.839 79.5573 216 76.6924C218.198 73.7708 219.981 70.7106 221.519 67.0964C222.004 65.9504 222.193 64.647 222.728 63.3184C223.358 61.7632 224.442 61.7443 223.711 59.0116ZM205.037 42.1619C204.987 42.1871 204.936 42.2123 204.886 42.2375C204.659 41.9352 204.432 41.633 204.205 41.3308C204.457 40.2477 204.71 39.1647 204.962 38.0817C205.327 36.0479 205.138 33.5608 204.659 31.5081C204.268 29.8206 203.286 28.9139 202.92 27.3523H202.845C202.693 27.7805 202.542 28.2087 202.391 28.6369C201.837 29.5939 201.131 29.7576 200.879 31.2059C202.076 33.5545 201.981 35.6198 201.937 38.8373C201.887 38.8625 201.837 38.8877 201.786 38.9129C200.992 38.5036 200.476 37.855 199.82 37.3261C198.397 36.1802 196.28 35.8213 194.831 34.7571C194.906 33.246 195.637 32.1755 196.04 30.9792C197.143 27.6735 197.565 23.927 199.367 21.3076C200.148 22.334 201.049 22.8881 202.315 23.4233C202.548 23.524 202.687 23.2029 202.769 23.2722C203.89 24.1915 204.848 25.2493 206.096 26.0678H206.171C206.228 25.7908 206.177 25.8727 206.096 25.6145C207.671 26.496 212.453 29.1091 212.824 30.8281C211.816 31.9552 210.336 32.6981 209.347 33.8504C207.431 36.092 206.014 39.0073 205.037 42.1619Z" fill="white"/>
<path d="M199.821 21.3076L200.047 21.6099H200.123V21.3076H199.821Z" fill="white"/>
<path d="M177.895 62.1095C176.333 58.5771 171.658 56.5181 167.84 55.2336C167.128 51.2101 170.688 42.653 172.225 39.8951C173.454 40.147 174.014 41.0789 175.325 41.1041C176.654 43.9753 175.867 47.8666 174.493 50.2467C174.518 50.3727 174.544 50.4986 174.569 50.6245C174.644 50.6497 174.72 50.6749 174.796 50.7001C178.532 49.3337 180.598 42.5964 178.576 37.855C178.242 37.0743 177.593 36.1046 176.761 35.815H175.098C174.153 35.3931 172.622 33.586 172.074 32.717C167.695 25.8223 167.084 15.5966 171.847 8.91596C172.124 8.38705 172.402 7.85813 172.679 7.32922V7.25366C169.529 7.48664 166.649 9.43858 164.287 10.6538C160.129 12.7947 157.085 15.817 153.551 18.5119C152.089 19.4438 150.628 20.3757 149.166 21.3076C146.866 23.3225 142.853 27.749 141.984 30.9792C142.614 32.6981 143.578 33.5545 144.479 34.9838V35.3616C142.759 35.0657 137.8 32.4085 137.296 30.6014C136.912 29.2098 137.832 27.919 138.279 27.0501V26.9746C136.061 27.982 133.825 32.0307 135.709 35.1349C136.244 36.0164 136.597 35.8905 137.523 36.4194C137.8 37.0491 138.077 37.6787 138.355 38.3084C138.733 38.5855 139.111 38.8625 139.489 39.1396C141.139 41.7589 142.097 44.8065 143.118 48.2066C143.319 49.7934 143.521 51.3801 143.723 52.9668C144.05 54.6732 144.472 56.1907 144.025 58.256C143.489 60.7053 143.13 62.8965 142.21 64.9807C141.379 66.5171 140.547 68.0535 139.716 69.5898C139.287 70.5658 139.608 71.7621 139.186 72.99C138.871 73.903 138.109 76.5664 138.43 78.0524C139.029 80.8355 140.925 82.9701 141.076 85.6083C141.316 85.4887 141.259 85.4446 141.606 85.3816C141.209 83.8894 142.166 82.5671 142.135 81.1503C142.015 76.006 144.63 70.358 147.654 68.0031C149.185 66.813 151.97 65.9189 152.871 64.1496C152.694 64.1999 152.518 64.2503 152.341 64.3007C152.745 60.6298 149.324 57.2359 149.015 53.0424C151.73 53.225 158.736 55.6807 160.431 57.2737C160.91 57.9286 161.389 58.5834 161.867 59.2382C162.422 59.4901 162.976 59.742 163.531 59.9938C163.776 60.1827 165.931 62.6006 166.101 62.8651C166.252 63.3688 166.404 63.8725 166.555 64.3763C166.857 64.6785 167.16 64.9807 167.462 65.283C168.672 66.9075 169.062 69.2435 170.562 70.5721C170.272 71.504 171.009 72.2533 171.393 73.1411C171.967 74.4508 172.15 78.3358 171.847 79.6392C171.501 81.1126 171.053 82.3026 170.335 83.4171C169.762 84.3112 168.401 85.3376 168.521 86.5906C169.018 86.7984 169.371 87.0817 169.73 87.4217C170.335 87.0062 170.593 86.3387 171.167 85.9106C172.206 85.1424 173.832 84.6261 174.569 83.5682C174.871 82.9638 175.174 82.3593 175.476 81.7548C175.741 80.634 175.13 79.7525 175.476 78.8836C177.095 74.7971 180.201 67.323 177.895 62.1095ZM165.496 41.0285C165.244 41.6078 164.992 42.1871 164.74 42.7664C163.739 43.8809 162.548 44.7876 161.641 46.0154C160.771 46.0154 159.637 46.2421 159.07 46.1665C158.755 46.1225 153.236 42.0738 152.946 41.7086C152.839 41.57 152.266 38.2895 152.039 37.5528C151.327 35.242 150.168 33.3656 149.393 30.8281C150.061 30.2866 150.968 30.0851 151.737 29.6191C155.87 27.1131 160.192 24.8526 164.816 22.7433H165.118C165.572 24.437 165.024 26.1245 165.194 27.7301C165.32 28.9454 165.956 29.7891 166.252 30.7525C166.586 31.8481 166.215 32.3329 166.555 33.5482C166.801 34.4297 168.836 37.175 169.579 37.6284V37.9306C168.01 38.7051 166.315 39.5048 165.496 41.0285Z" fill="white"/>
<path d="M358.588 22.9699V23.4233H358.891V23.1211L358.588 22.9699Z" fill="white"/>
<path d="M153.853 23.121L153.097 23.5744V23.7255C153.57 23.65 153.942 23.3414 153.853 23.121Z" fill="white"/>
<path d="M33.7948 24.1033C33.8641 24.6826 34.072 25.4886 34.3996 25.8412V25.6145C34.2358 25.1548 34.1098 24.4307 33.7948 24.1033Z" fill="white"/>
<path d="M244.2 24.2544L244.351 24.4055L244.275 24.4811L244.2 24.2544Z" fill="white"/>
<path d="M321.467 29.5436C320.963 29.8206 320.459 30.0977 319.955 30.3747L320.03 30.5258C320.389 30.3558 321.593 29.8962 321.467 29.5436Z" fill="white"/>
<path d="M393.744 33.1704L393.971 33.3215L393.82 33.5482L393.668 33.3971L393.744 33.1704Z" fill="white"/>
<path d="M445.684 34.6816C445.835 34.8201 445.734 34.6816 445.835 34.9083H445.684V34.6816Z" fill="white"/>
<path d="M184.7 34.7571C184.87 34.9083 184.882 34.9964 184.927 35.286H184.851L184.624 34.9083L184.7 34.7571Z" fill="white"/>
<path d="M445.986 35.7394C446.144 35.8905 446.062 35.7646 446.137 36.0416H446.062L445.986 35.7394Z" fill="white"/>
<path d="M383.915 40.0463L384.52 40.1974V40.3485H384.142L383.915 40.0463Z" fill="white"/>
<path d="M377.565 44.2776C376.998 45.3291 375.996 46.0721 375.977 47.6022L376.279 47.6777C377.035 47.4007 377.792 47.1236 378.548 46.8466C378.321 45.9902 378.094 45.1339 377.867 44.2776H377.565Z" fill="white"/>
<path d="M337.57 48.1311L338.402 48.8111L338.326 49.1133C338.156 48.9559 338.181 49.0063 338.1 48.7355L337.495 48.8111L337.57 48.1311Z" fill="white"/>
<path d="M337.873 48.8111L338.175 49.2645L337.873 49.1133V48.8111Z" fill="white"/>
<path d="M338.704 49.4911L339.007 49.5667C338.963 50.0515 338.975 49.7304 339.082 50.2467H339.007L338.478 50.02V49.7178L338.704 49.4911Z" fill="white"/>
<path d="M398.507 49.4911C398.255 50.0452 398.003 50.5993 397.751 51.1534C398.299 51.0275 399.307 50.763 399.49 50.2467C399.162 49.9949 398.835 49.743 398.507 49.4911Z" fill="white"/>
<path d="M340.443 51.8335H340.594C340.909 52.1231 341.13 52.5954 341.275 53.0424H341.048L340.897 52.9669C340.771 52.5261 340.405 52.1798 340.443 51.8335Z" fill="white"/>
<path d="M47.2523 52.3624V52.6646L47.4035 52.5135L47.2523 52.3624Z" fill="white"/>
<path d="M341.653 53.5713L341.88 53.8736H341.804L341.577 53.7224L341.653 53.5713Z" fill="white"/>
<path d="M79.3083 56.8204L79.2327 57.047L79.4595 57.1226C79.3902 56.8455 79.4595 56.9652 79.3083 56.8204Z" fill="white"/>
<path d="M80.4423 58.4071L79.9131 58.7849V58.936C80.2848 58.8793 80.4108 58.7975 80.5935 58.5582L80.4423 58.4071Z" fill="white"/>
<path d="M150.451 64.074L150.073 64.3007V64.4518L150.829 64.3763L150.754 64.1496L150.451 64.074Z" fill="white"/>
<path d="M253.877 64.8296L253.953 65.0563C254.104 64.9178 254.003 65.0563 254.104 64.8296H253.877Z" fill="white"/>
<path d="M219.477 68.0031C218.835 69.382 217.745 70.7736 217.361 72.3855H217.512C217.877 71.0695 219.629 69.3883 219.477 68.0031Z" fill="white"/>
<path d="M405.311 68.3809H405.538V69.1365H405.462C405.255 68.9539 405.242 69.0546 405.311 68.7587V68.3809Z" fill="white"/>
</g>
<defs>
<clipPath id="clip0_2_4">
<rect width="454" height="98" fill="white"/>
</clipPath>
</defs>
</svg>
